<?xml version="1.0" standalone="no"?>
<!DOCTYPE svg PUBLIC "-//W3C//DTD SVG 1.1//EN" "http://www.w3.org/Graphics/SVG/1.1/DTD/svg11.dtd" >
<svg xmlns="http://www.w3.org/2000/svg">
<metadata>
This is a custom SVG webfont generated by Font Squirrel.
Copyright   : Copyright c 2004 by Frantisek Storm wwwstormtypecom All rights reserved
Designer    : Frantisek Storm
Foundry     : Frantisek Storm wwwstormtypecom
Foundry URL : wwwstormtypecom
</metadata>
<defs>
<font id="AndulkaSerifBookBold" horiz-adv-x="1132" >
<font-face units-per-em="2048" ascent="1638" descent="-410" />
<missing-glyph horiz-adv-x="505" />
<glyph unicode="&#xfb00;" horiz-adv-x="1421" d="M41 922l8 57q0 14 12 14q68 0 162 8v152q0 190 117 286.5t303 96.5q176 0 358 -96q109 98 293 98q176 0 305 -90q10 -10 9 -33l-15 -47q-88 47 -219 47q-233 0 -233 -250v-131q182 6 266 13l-12 -111q0 -14 -13 -14h-241v-799q0 -14 8 -22.5t51 -21.5t137 -34l-6 -33 q0 -12 -10 -12h-555q-14 0 -14 12l-7 33q102 31 126 44t24 34v799h-426v-799q0 -20 23.5 -33.5t125.5 -44.5l-6 -33q0 -12 -10 -12h-508q-14 0 -14 12l-6 33q102 31 125.5 44t23.5 34v799h-182zM469 1010q334 8 426 16v135q0 137 51 213q-123 45 -231 45 q-119 0 -182.5 -64.5t-63.5 -189.5v-155z" />
<glyph unicode="&#xfb01;" horiz-adv-x="1325" d="M41 922l8 67q0 14 12 15q20 2 76 7t86 9v119q0 193 132 295t362 102q123 0 245.5 -35t202.5 -96q0 -88 -44 -133t-109.5 -45t-102.5 38t-37 107q0 25 7 49q-68 23 -156 23q-125 0 -189.5 -73t-64.5 -206v-137q375 12 655 39q16 0 17 -10v-932q0 -23 23.5 -36t125.5 -44 l-6 -33q0 -12 -10 -12h-508q-14 0 -14 12l-7 33q102 31 126 44t24 36v797h-426v-799q0 -20 23.5 -33.5t125.5 -44.5l-6 -33q0 -12 -10 -12h-508q-14 0 -14 12l-6 33q102 31 125.5 44t23.5 34v799h-182z" />
<glyph unicode="&#xfb02;" horiz-adv-x="1345" d="M43 922l8 69q0 14 12 15q127 12 162 16v139q0 180 117 278.5t299 98.5q82 0 175 -17.5t130 -17.5q106 0 191 64q23 0 28 -11q-10 -147 -10 -702v-729q0 -23 23.5 -36t126.5 -44l-7 -33q0 -12 -10 -12h-506q-14 0 -14 12l-6 33q102 31 125.5 44t23.5 36v1198q0 55 -41 82 t-151 27q-121 0 -184.5 -69t-63.5 -202v-131l266 17l-12 -111q0 -14 -12 -14h-242v-797q0 -23 23.5 -36t123.5 -44l-6 -33q0 -12 -10 -12h-506q-14 0 -14 12l-6 33q102 31 125.5 44t23.5 36v797h-182z" />
<glyph unicode="&#xfb03;" horiz-adv-x="1996" d="M41 922l8 57q0 14 12 14q68 0 162 8v152q0 188 120 284.5t302 96.5q199 0 385 -98q135 100 350 100q123 0 246 -35t203 -96q0 -88 -44 -133t-109.5 -45t-102.5 38t-37 107q0 25 6 49q-72 23 -156 23q-246 0 -245 -279v-133q352 6 655 35q14 0 14 -10v-932q0 -23 24 -36 t126 -44l-6 -33q0 -12 -10 -12h-508q-14 0 -15 12l-6 33q102 31 126 44t24 36v797h-424v-799q0 -20 23.5 -33.5t125.5 -44.5l-6 -33q0 -12 -10 -12h-508q-14 0 -14 12l-7 33q102 31 126 44t24 34v799h-426v-799q0 -20 23.5 -33.5t125.5 -44.5l-6 -33q0 -12 -10 -12h-508 q-14 0 -14 12l-6 33q102 31 125.5 44t23.5 34v799h-182zM469 1010q352 10 426 14v102q0 164 76 248q-115 43 -248 43q-254 0 -254 -258v-149z" />
<glyph unicode="&#xfb04;" horiz-adv-x="2054" d="M41 922l8 57q0 14 12 14q68 0 162 8v152q0 188 122 284.5t310 96.5q190 0 375 -94q117 98 297 98q82 0 176 -17.5t131 -17.5q104 0 193 64q23 0 28 -11q-10 -147 -10 -702v-729q0 -23 23.5 -36t126.5 -44l-6 -33q0 -12 -11 -12h-508q-14 0 -14 12l-6 33q102 31 125.5 44 t23.5 36v1198q0 55 -41.5 82t-150.5 27q-248 0 -248 -271v-131l266 17l-12 -111q0 -14 -12 -14h-242v-799q0 -20 23.5 -33.5t126.5 -44.5l-6 -33q0 -12 -11 -12h-508q-14 0 -14 12l-6 33q102 31 125.5 44t23.5 34v799h-444v-799q0 -20 24.5 -33.5t127.5 -44.5l-7 -33 q0 -12 -10 -12h-510q-14 0 -14 12l-6 33q102 31 125.5 44t23.5 34v799h-182zM469 1010q383 10 444 14v137q0 129 60 215q-117 41 -248 41q-256 0 -256 -258v-149z" />
<glyph unicode="fj" horiz-adv-x="1320" d="M41 920l8 69q0 14 12 15q20 2 76 7t86 9v119q0 193 129 295t359 102q123 0 249.5 -36t206.5 -95q0 -88 -44 -133t-109.5 -45t-102.5 39t-37 108q0 23 7 47q-80 23 -162 23q-250 0 -250 -279v-137q375 12 655 39q16 0 17 -10v-1213q0 -156 -87 -239.5t-247 -83.5 q-190 0 -287 121q-14 14 -2 28l21 37q70 -45 166 -45q190 0 190 232v1028h-426v-799q0 -20 23.5 -33.5t125.5 -44.5l-6 -33q0 -12 -10 -12h-508q-14 0 -14 12l-6 33q102 31 125.5 44t23.5 34v797h-182z" />
<glyph unicode="ffj" horiz-adv-x="1992" d="M41 922l8 57q0 14 12 14q68 0 162 8v152q0 188 122 285.5t304 97.5q184 0 375 -100q129 100 358 100q123 0 250 -36t207 -95q0 -86 -45 -132t-108 -46q-66 0 -103 38t-37 107q0 25 6 49q-84 23 -163 23q-119 0 -183.5 -72t-64.5 -207v-133q465 16 655 35q14 0 14 -10 v-1213q0 -156 -87 -239.5t-246 -83.5q-186 0 -287 121q-10 14 0 28l20 37q66 -45 166 -45q188 0 189 232v1028h-424v-799q0 -20 25.5 -33.5t136.5 -44.5l-7 -33q0 -12 -10 -12h-520q-14 0 -14 12l-7 33q102 31 126 44t24 34v799h-426v-799q0 -20 23.5 -33.5t125.5 -44.5 l-6 -33q0 -12 -10 -12h-508q-14 0 -14 12l-6 33q102 31 125.5 44t23.5 34v799h-182zM469 1008q334 8 426 16v111q0 150 72 237q-127 47 -240 47q-121 0 -189.5 -64.5t-68.5 -189.5v-157z" />
<glyph unicode="ffk" horiz-adv-x="2684" d="M41 922l8 57q0 14 12 14q68 0 162 8v148q0 190 123 288.5t313 98.5q188 0 367 -96q111 98 301 98q82 0 177 -17.5t132 -17.5q104 0 193 64q23 0 29 -11q-10 -147 -11 -702v-274q96 0 183.5 76.5t207.5 271.5q8 14 5.5 26.5t-30.5 24.5t-81 25l6 28q0 12 12 12h463 q14 0 15 -12l6 -28q-53 -10 -84 -21.5t-39 -19t-23 -23.5q-272 -332 -415 -367q86 -12 182 -108t299 -361q16 -23 37.5 -34t77.5 -25l-7 -33q0 -12 -12 -12h-332q-27 0 -39 25q-162 283 -256 387t-176 104v-391q0 -23 23.5 -36t126.5 -44l-6 -33q0 -12 -11 -12h-507 q-14 0 -15 12l-6 33q102 31 126 44t24 36v1194q0 59 -42 86t-153 27q-121 0 -184.5 -69t-63.5 -198v-131q182 6 266 13l-12 -111q0 -14 -12 -14h-242v-799q0 -20 23.5 -33.5t124.5 -44.5l-7 -33q0 -12 -10 -12h-506q-14 0 -14 12l-6 33q102 31 125.5 44t23.5 34v799h-444 v-799q0 -20 23.5 -33.5t125.5 -44.5l-6 -33q0 -12 -10 -12h-508q-14 0 -14 12l-6 33q102 31 125.5 44t23.5 34v799h-182zM469 1010q332 8 444 16v135q0 135 56 213q-119 45 -238 45q-262 0 -262 -264v-145z" />
<glyph unicode="Th" horiz-adv-x="2373" d="M-6 1159l24 258q0 18 21 19h1096q182 0 340 34q18 0 18 -12q0 -41 -3 -125t-3 -129q0 -246 -12 -393q53 88 169.5 173t239.5 85q150 0 221.5 -87t71.5 -280v-573q0 -25 23.5 -39t126.5 -45l-7 -33q0 -12 -10 -12h-508q-14 0 -14 12l-6 33q102 31 125.5 45t23.5 39v502 q0 145 -42 201.5t-136 56.5q-111 0 -186.5 -83t-75.5 -231v-450q0 -23 23.5 -36t125.5 -44l-6 -33q0 -12 -10 -12h-508q-14 0 -14 12l-6 33q102 31 125.5 45t23.5 37v1087q0 53 -65.5 75t-208.5 24l-236 2v-1188q0 -23 23.5 -37t126.5 -45l-6 -33q0 -12 -13 -12h-530 q-14 0 -14 12l-7 33q102 31 126 45t24 37v1188l-107 -2q-129 -2 -186 -15.5t-86 -56.5q-20 -33 -37 -106l-43 8q-12 4 -12 16z" />
<glyph unicode=" "  horiz-adv-x="505" />
<glyph unicode="&#x09;" horiz-adv-x="505" />
<glyph unicode="&#xa0;" horiz-adv-x="505" />
<glyph unicode="!" horiz-adv-x="671" d="M188 133q0 61 43 105.5t107 44.5q61 0 103 -44t42 -105.5t-42 -104.5t-103 -43q-63 0 -106.5 44t-43.5 103zM195 1556h284l-96 -1140h-92z" />
<glyph unicode="&#x22;" horiz-adv-x="899" d="M113 965q74 182 73 305q0 68 -20.5 106.5t-50.5 42.5q0 68 35.5 109t103.5 41q137 0 137 -139q0 -166 -203 -484q0 -10 -26 -4zM512 965q74 182 74 305q0 68 -20.5 106.5t-53.5 42.5q0 68 37 109t104 41q137 0 138 -139q0 -162 -203 -484q-8 -8 -27 -4z" />
<glyph unicode="#" horiz-adv-x="1468" d="M47 367l12 133q0 14 11 14h317v270h-340l12 134q0 14 11 14h317v360h217v-360h270v360h213v-360h340l-12 -135q0 -12 -10 -13h-318v-270h340l-12 -133q0 -14 -10 -14h-318v-367h-213v367h-270v-367h-217v367h-340zM604 514h270v270h-270v-270z" />
<glyph unicode="$" horiz-adv-x="1103" d="M96 164q0 76 40 118t93 42q49 0 82 -30t33 -83q0 -33 -8 -59q72 -18 133 -21l23 494q-168 76 -259.5 164t-91.5 231q0 152 107.5 263.5t281.5 125.5l13 254h106l-12 -254q201 -12 338 -131q0 -76 -40 -119t-91 -43q-49 0 -82 30t-33 83q0 33 8 57q-39 14 -106 19 l-21 -441q88 -43 140.5 -72.5t116 -82t93 -120t29.5 -153.5q0 -168 -112.5 -275.5t-305.5 -129.5l-12 -258h-108l12 256q-213 6 -367 135zM350 1116q0 -119 158 -201l16 388q-80 -14 -127 -64.5t-47 -122.5zM575 137q201 35 201 217q0 133 -180 224z" />
<glyph unicode="%" horiz-adv-x="1759" d="M59 1022q0 193 115 315.5t279 122.5q158 0 257 -107.5t99 -285.5q0 -184 -109.5 -309t-275.5 -125q-160 0 -262.5 105.5t-102.5 283.5zM238 0l1083 1436h199l-1086 -1436h-196zM262 1063q0 -147 45 -236.5t125 -89.5q78 0 126 78t48 209q0 152 -47 242t-127 90t-125 -80 t-45 -213zM946 365q0 193 115 315.5t278 122.5q158 0 257.5 -107.5t99.5 -285.5q0 -184 -109.5 -309.5t-275.5 -125.5q-160 0 -262.5 106t-102.5 284zM1149 406q0 -147 45 -236.5t125 -89.5q78 0 126 78t48 209q0 154 -47 242.5t-127 88.5t-125 -79.5t-45 -212.5z" />
<glyph unicode="&#x26;" horiz-adv-x="1730" d="M84 336q0 145 96 260t275 178q-74 160 -74 297q0 164 111.5 276.5t304.5 112.5q152 0 234.5 -77.5t82.5 -196.5q0 -129 -103.5 -231.5t-295.5 -168.5q82 -137 202.5 -267t245.5 -220q129 143 129 381q0 12 -7 20.5t-39 21.5t-103 34l6 32q0 12 14 13h451q12 0 12 -13 l6 -32q-102 -31 -126.5 -44.5t-26.5 -31.5q-10 -94 -77 -215t-169 -213q150 -90 256 -90q102 0 170 45l20 -31q6 -6 7 -14q0 -4 -7 -10q-74 -82 -147.5 -122t-185.5 -40q-125 0 -302 116q-207 -131 -514 -131q-213 0 -329.5 97.5t-116.5 263.5zM336 438q0 -152 96 -251 t248 -99q150 0 283 76q-135 100 -264.5 244.5t-209.5 298.5q-153 -85 -153 -269zM594 1151q0 -143 84 -301q231 92 231 309q0 94 -39 147.5t-112 53.5q-78 0 -121 -54.5t-43 -154.5z" />
<glyph unicode="'" horiz-adv-x="485" d="M104 965q74 182 74 305q0 68 -20.5 106.5t-53.5 42.5q0 68 37 109t105 41q137 0 137 -139q0 -162 -203 -484q-8 -8 -26 -4z" />
<glyph unicode="(" horiz-adv-x="786" d="M119 528q0 262 88 479.5t269 353.5t425 136q16 0 17 -12l6 -43q-164 0 -290 -125t-188.5 -325.5t-62.5 -440.5q0 -385 147.5 -650.5t393.5 -265.5l-6 -43q0 -12 -17 -12q-356 0 -569 276.5t-213 671.5z" />
<glyph unicode=")" horiz-adv-x="786" d="M-137 -365q164 0 290 125t188 326t62 440q0 250 -63.5 457t-188 333t-288.5 126l6 43q0 12 16 12q240 0 421 -132t271.5 -345t90.5 -469q0 -264 -88 -481t-269.5 -353.5t-425.5 -136.5q-16 0 -16 12z" />
<glyph unicode="*" horiz-adv-x="862" d="M59 1135l330 32l-219 176q-39 29 -4 58l147 110l133 -307l101 271q16 43 57 14l146 -109l-246 -217l284 -12q45 -2 29 -53l-55 -168l-283 166l68 -252q10 -41 2 -54.5t-39 -13.5h-176l74 324l-230 -152q-47 -33 -61 15z" />
<glyph unicode="+" d="M131 512v201h334v340h201v-340h335v-201h-335v-340h-201v340h-334z" />
<glyph unicode="," horiz-adv-x="528" d="M59 -334q154 154 203 330q-59 8 -94 46t-35 93q0 68 44 115t120 47q96 0 158 -78q-2 -166 -99.5 -340t-212.5 -248q-6 -6 -26 -6z" />
<glyph unicode="-" horiz-adv-x="628" d="M72 506l30 201q0 14 13 14h442l-31 -201q-4 -14 -10 -14h-444z" />
<glyph unicode="." horiz-adv-x="540" d="M113 145.5q0 65.5 46 112.5t111 47q68 0 113 -46t45 -113.5t-45 -113.5t-113 -46q-66 0 -111.5 47t-45.5 112.5z" />
<glyph unicode="/" horiz-adv-x="876" d="M-100 -420l907 1917h217l-907 -1917h-217z" />
<glyph unicode="0" d="M45 684q0 350 153.5 563t387.5 213q217 0 358 -202.5t141 -514.5q0 -342 -149.5 -555t-380.5 -213q-215 0 -362.5 198t-147.5 511zM309 739q0 -297 71 -479t187 -182q113 0 184.5 172t71.5 440q0 305 -70.5 485.5t-185.5 180.5q-117 0 -187.5 -173.5t-70.5 -443.5z" />
<glyph unicode="1" d="M150 1151q-2 27 10 29l569 297q39 0 39 -25q0 -14 -6 -176t-6 -289v-860q0 -14 8 -22.5t56 -23.5t149 -36l-6 -33q0 -12 -13 -12h-639q-14 0 -14 12l-6 33q100 20 148 35.5t57.5 24t9.5 22.5v1108l-338 -133z" />
<glyph unicode="2" d="M37 55l364 346q340 319 340 639q0 133 -62.5 217t-174.5 84q-59 0 -109 -20q16 -96 -26.5 -145.5t-120.5 -49.5q-59 0 -95 40t-36 120q217 174 510 174q180 0 286.5 -104.5t106.5 -274.5q0 -162 -108.5 -320.5t-360.5 -387.5l-195 -180l297 4q188 4 253 31.5t89 133.5 l45 -8q12 -4 13 -16l-31 -320q0 -18 -25 -18h-934q-14 0 -18 16z" />
<glyph unicode="3" d="M100 168q0 4 9 12l30 39q113 -113 293 -113q133 0 216 72t83 211q0 131 -97 225.5t-282 94.5l8 65q2 14 25 14q162 0 245 83t83 210q0 115 -60.5 193t-165.5 78q-68 0 -118 -27q8 -84 -30 -127t-103 -43q-57 0 -93.5 36t-36.5 109q215 160 492 160q190 0 286.5 -96 t96.5 -236q0 -129 -88 -232t-248 -138q180 -23 275.5 -122t95.5 -230q0 -199 -142.5 -315t-361.5 -116q-135 0 -244.5 48.5t-161.5 130.5q-6 10 -6 14z" />
<glyph unicode="4" d="M51 512q35 51 138.5 200.5t168 244t167 234.5t192.5 257q12 8 26 8l97 -20v-891h237q-8 -82 -8 -84l-8 -27h-221v-311q0 -20 23.5 -33.5t125.5 -44.5l-6 -33q0 -12 -10 -12h-514q-14 0 -15 12l-4 33q102 31 127 44t25 34v311h-514q-10 0 -15 17zM209 545h383v553 q-104 -135 -383 -553z" />
<glyph unicode="5" d="M84 133q0 76 45 119t107 43q53 0 88.5 -33t35.5 -88q0 -29 -10 -65q57 -27 125 -27q150 0 227.5 101.5t77.5 291.5q0 156 -61.5 243t-177.5 87q-180 0 -267 -184h-92l60 815h716l-26 -195q-4 -18 -21 -18h-577l-35 -422q143 166 342 166t293 -114t94 -306 q0 -252 -135 -412t-358 -160q-293 0 -451 158z" />
<glyph unicode="6" d="M76 618q0 358 195.5 600t504.5 242q123 0 195 -41q14 -6 14 -28l-12 -58q-84 27 -152 27q-197 0 -328 -140.5t-143 -377.5q135 160 330 159q193 0 289 -129t96 -323q0 -254 -138.5 -414t-369.5 -160q-219 0 -350 177t-131 466zM348 598q0 -256 70.5 -384t177.5 -128 q203 0 203 385t-211 385q-111 0 -175.5 -85t-64.5 -173z" />
<glyph unicode="7" d="M119 1081l24 336q0 6 7.5 12.5t13.5 6.5h874q14 0 19 -17l8 -39q-219 -702 -502 -1362q-6 -18 -26 -18h-258q352 627 616 1227l-430 -4q-154 -2 -205 -30t-82 -136l-47 8q-12 4 -12 16z" />
<glyph unicode="8" d="M80 352q0 127 81 228.5t224 144.5q-123 37 -191.5 128t-68.5 208q0 164 127 281.5t340 117.5q199 0 313.5 -103.5t114.5 -248.5q0 -111 -69.5 -197t-194.5 -118q137 -43 216 -152t79 -244q0 -182 -131.5 -302t-366.5 -120q-217 0 -345 108.5t-128 268.5zM338 375 q0 -127 59.5 -213t165.5 -86q109 0 174.5 73.5t65.5 188.5q0 123 -85 216t-239 118q-57 -18 -99 -102t-42 -195zM362 1128q0 -104 70 -184t199 -106q70 20 112.5 89.5t42.5 168.5q0 113 -56 191.5t-154.5 78.5t-156 -70t-57.5 -168z" />
<glyph unicode="9" d="M80 942q0 211 139 364.5t363 153.5q229 0 355 -174t126 -475q0 -240 -60.5 -423t-196.5 -298t-335 -115q-231 0 -387 150q0 74 41 119t104 45q55 0 89 -31t34 -84q0 -35 -12 -74q49 -23 106 -22q145 0 236.5 140t105.5 409q-127 -111 -294 -111q-193 0 -303.5 119 t-110.5 307zM340 1018q0 -174 65.5 -274.5t167.5 -100.5q113 0 165.5 60.5t52.5 144.5q0 256 -70 380t-178 124q-96 0 -149.5 -90t-53.5 -244z" />
<glyph unicode=":" horiz-adv-x="528" d="M115 137q0 61 44 105.5t107.5 44.5t106.5 -44t43 -106q0 -63 -43 -107t-106.5 -44t-107.5 44t-44 107zM115 913.5q0 63.5 44 107.5t107.5 44t106.5 -44t43 -107.5t-43 -107.5t-106.5 -44t-107.5 44t-44 107.5z" />
<glyph unicode=";" horiz-adv-x="534" d="M66 -334q152 147 204 330q-63 8 -99 46t-36 93q0 68 43 115t119 47q96 0 158 -78q-2 -166 -99.5 -340t-212.5 -248q-6 -6 -26 -6zM133 913.5q0 63.5 44 107.5t107.5 44t106.5 -44t43 -107.5t-43 -107.5t-106.5 -44t-107.5 44t-44 107.5z" />
<glyph unicode="&#x3c;" d="M154 465v119l788 403l23 -57q6 -16 -7 -27l-460 -379l460 -383q14 -14 7 -28l-23 -58z" />
<glyph unicode="=" d="M119 313v172h893v-172h-893zM119 678v170h893v-170h-893z" />
<glyph unicode="&#x3e;" d="M168 115q-6 16 6 26l461 379l-461 383q-14 14 -6 29l22 57l787 -409v-119l-787 -404z" />
<glyph unicode="?" horiz-adv-x="923" d="M94 1094v292q0 12 17 17q168 57 340 57q199 0 309 -100t110 -264q0 -98 -45 -187.5t-109.5 -155t-128 -124t-108.5 -116.5t-45 -110q-100 4 -100 97q0 53 44 123.5t98 132t98 153.5t44 183q0 115 -53 180t-159 65q-123 0 -180.5 -63.5t-67.5 -202.5l-52 8q-12 5 -12 15z M272 133q0 61 43 105.5t104.5 44.5t104.5 -44t43 -105.5t-43 -104.5t-104.5 -43t-104.5 44t-43 103z" />
<glyph unicode="@" horiz-adv-x="1779" d="M106 354q0 162 63.5 324t176.5 294t286 215t374 83q211 0 311 -99.5t100 -277.5q0 -166 -71.5 -334t-204.5 -282.5t-291 -114.5q-119 0 -191.5 64.5t-72.5 176.5q0 315 594 459q0 274 -211 275q-254 0 -432.5 -219.5t-178.5 -499.5q0 -229 134.5 -374.5t396.5 -145.5 q334 0 527.5 214t201.5 607l65 -4q23 0 23 -29q0 -446 -238.5 -713.5t-670.5 -267.5q-338 0 -514.5 184t-176.5 465zM821 473q0 -68 40 -103.5t102 -35.5q131 0 178 139q39 117 39 309q-182 -51 -270.5 -132t-88.5 -177z" />
<glyph unicode="A" horiz-adv-x="1310" d="M-55 45q82 23 116.5 56.5t69.5 111.5q63 147 225 572t262 667h111q250 -754 494 -1335q10 -20 31.5 -31.5t105.5 -40.5l-6 -33q-4 -12 -15 -12h-534q-6 0 -10 12l-7 33q152 33 152 57q0 12 -6 23q-86 205 -127 315h-457q-90 -270 -90 -317q0 -27 23.5 -41t107.5 -37 l-6 -33q-4 -12 -12 -12h-408q-10 0 -14 12zM381 535h389q-113 309 -192 561q-95 -258 -197 -561z" />
<glyph unicode="B" horiz-adv-x="1355" d="M68 45q102 31 125.5 45t23.5 39v1180q0 23 -23.5 37t-125.5 45l6 32q0 12 12 13h590q258 0 385 -90.5t127 -245.5q0 -309 -455 -324q272 -6 401.5 -115.5t129.5 -269.5q0 -174 -155 -282.5t-472 -108.5h-549q-14 0 -14 12zM487 123q66 -20 164 -21q172 0 244 69t72 208 q0 150 -86 231.5t-263 104.5q-61 6 -131 6v-598zM487 819q57 -4 86 -4q168 0 248 57.5t80 196.5q0 272 -299 272q-59 0 -115 -8v-514z" />
<glyph unicode="C" horiz-adv-x="1294" d="M80 645q0 152 51 295t144.5 260t242 188.5t326.5 71.5q199 0 334 -63v-346q0 -12 -15 -23l-45 -6q-14 145 -89 230t-210 85q-215 0 -338 -177t-123 -421q0 -252 128 -412.5t364 -160.5q227 0 342 147l33 -32q8 -16 8 -23q0 -10 -4 -16q-76 -125 -205 -196t-303 -71 q-203 0 -352.5 96.5t-219 246t-69.5 327.5z" />
<glyph unicode="D" horiz-adv-x="1548" d="M68 45q102 31 125.5 45t23.5 39v1180q0 23 -23.5 37t-125.5 45l6 32q0 12 12 13h598q369 0 573.5 -187.5t204.5 -527.5q0 -309 -215 -515t-616 -206h-543q-14 0 -14 12zM487 117q94 -14 168 -15q229 0 370.5 137.5t141.5 415.5q0 356 -145 517t-430 161q-35 0 -105 -4 v-1212z" />
<glyph unicode="E" horiz-adv-x="1173" d="M68 45q102 31 125.5 45t23.5 39v1180q0 23 -23.5 37t-125.5 45l6 32q0 12 12 13h936l22 -269q0 -12 -12 -16l-43 -8q-29 106 -65.5 137t-122.5 35l-314 6v-510q276 6 459 25v-150q-213 25 -426 25h-33v-596l347 6q102 2 154 34.5t77 143.5l43 -6q12 -4 12 -17l-22 -276 h-1010q-14 0 -14 12z" />
<glyph unicode="F" horiz-adv-x="1083" d="M68 45q102 31 125.5 45t23.5 37v1182q0 23 -23.5 37t-125.5 45l6 32q0 12 12 13h938l20 -269q0 -12 -12 -16l-43 -8q-29 106 -64.5 137t-123.5 35l-314 6v-526q272 4 461 24v-149q-236 25 -461 24v-567q0 -25 29 -38t158 -44l-6 -33q0 -12 -11 -12h-569q-14 0 -14 12z " />
<glyph unicode="G" horiz-adv-x="1425" d="M80 657q0 147 54 290t150.5 257.5t244 185t321.5 70.5q238 0 385 -71v-326q0 -12 -14 -23l-45 -6q-20 135 -109.5 219t-243.5 84q-217 0 -341 -174t-124 -452q0 -156 51.5 -287t164 -218t270.5 -87q129 0 200 31v411q0 18 -8 28.5t-56 25t-146 32.5l6 33q0 12 14 12h463 v-536q-242 -180 -559 -181q-338 0 -508 188.5t-170 493.5z" />
<glyph unicode="H" horiz-adv-x="1601" d="M68 45q102 31 125.5 45t23.5 39v1180q0 23 -23.5 37t-125.5 45l6 32q0 12 12 13h532q12 0 13 -13l6 -32q-102 -31 -126 -45.5t-24 -36.5v-492h627v492q0 23 -23.5 37t-125.5 45l6 32q0 12 12 13h533q12 0 12 -13l6 -32q-102 -31 -126 -45.5t-24 -36.5v-1180q0 -25 24 -39 t126 -45l-6 -33q0 -12 -10 -12h-533q-14 0 -14 12l-6 33q102 31 125.5 45t23.5 39v578h-627v-578q0 -25 24 -39t126 -45l-6 -33q0 -12 -10 -12h-533q-14 0 -14 12z" />
<glyph unicode="I" horiz-adv-x="704" d="M68 45q102 31 125.5 45t23.5 39v1180q0 23 -23.5 37t-125.5 45l6 32q0 12 12 13h532q12 0 13 -13l6 -32q-102 -31 -126 -45.5t-24 -36.5v-1180q0 -25 24 -39t126 -45l-6 -33q0 -12 -10 -12h-533q-14 0 -14 12z" />
<glyph unicode="J" horiz-adv-x="741" d="M-150 -340l13 47q78 -47 182 -47q98 0 162.5 62.5t64.5 183.5v1403q0 23 -23.5 37t-125.5 45l6 32q0 12 14 13h533q10 0 10 -13l6 -32q-102 -31 -125.5 -45.5t-23.5 -36.5v-1418q0 -176 -113 -273t-278 -97q-180 0 -297 110q-6 5 -7 15q0 6 2 14z" />
<glyph unicode="K" horiz-adv-x="1476" d="M68 45q102 31 125.5 45t23.5 39v1180q0 23 -23.5 37t-125.5 45l6 32q0 12 12 13h532q12 0 13 -13l8 -30q-102 -31 -127 -45.5t-25 -38.5v-527q268 0 566 537q8 14 4 26.5t-31 23.5t-80 24l6 30q0 12 13 13h487q14 0 14 -13l7 -30q-53 -10 -83 -21.5t-38.5 -18.5 t-22.5 -24q-174 -221 -341 -379.5t-236 -175.5q199 -37 639 -670q25 -37 114 -59l-6 -33q0 -12 -12 -12h-359q-23 0 -38 25q-217 377 -356.5 534.5t-246.5 157.5v-588q0 -25 24 -39t126 -45l-6 -33q0 -12 -10 -12h-533q-14 0 -14 12z" />
<glyph unicode="L" horiz-adv-x="1101" d="M68 45q102 31 125.5 45t23.5 39v1180q0 23 -23.5 37t-125.5 45l6 32q0 12 12 13h539q10 0 10 -13l6 -32q-106 -31 -130 -45.5t-24 -36.5v-1182l222 4q168 4 237.5 36t91.5 146l43 -6q12 -4 13 -16l-29 -291h-977q-14 0 -14 12z" />
<glyph unicode="M" horiz-adv-x="1910" d="M63 45q100 31 124 45t26 39q29 674 31 1178q0 25 -23.5 39t-126.5 45l6 32q0 12 11 13h456q254 -565 394 -967q150 340 391 967h434q14 0 14 -13l6 -32q-102 -31 -125.5 -45.5t-23.5 -38.5q8 -696 35 -1178q2 -16 8 -25.5t37.5 -23.5t103.5 -35l-6 -33q0 -12 -10 -12 h-533q-14 0 -14 12l-6 33q102 31 125.5 45t23.5 39l-28 1094q-238 -614 -471 -1149h-91q-197 569 -464 1149l-29 -1094q0 -25 23.5 -39t125.5 -45l-6 -33q0 -12 -12 -12h-385q-14 0 -14 12z" />
<glyph unicode="N" horiz-adv-x="1468" d="M68 45q102 31 125.5 44t23.5 36v1188q0 20 -23.5 33.5t-125.5 44.5l6 32q0 12 12 13h403q379 -532 650 -975v852q0 20 -23.5 33.5t-126.5 44.5l6 32q0 12 15 13h387q12 0 12 -13l6 -32q-102 -31 -125.5 -44.5t-23.5 -33.5v-1293q0 -20 -19 -20l-129 -10 q-326 524 -774 1169v-1034q0 -23 23.5 -36t126.5 -44l-7 -33q0 -12 -12 -12h-387q-14 0 -14 12z" />
<glyph unicode="O" horiz-adv-x="1574" d="M82 684q0 352 207 564t526 212q293 0 485.5 -202.5t192.5 -514.5q0 -342 -203 -555t-516 -213q-293 0 -492.5 197t-199.5 512zM377 739q0 -293 114.5 -472t299.5 -179q180 0 293.5 167t113.5 435q0 305 -112.5 480.5t-299 175.5t-298 -169.5t-111.5 -437.5z" />
<glyph unicode="P" horiz-adv-x="1241" d="M68 45q102 31 125.5 45t23.5 37v1182q0 23 -23.5 37t-125.5 45l6 32q0 12 12 13h584q248 0 389 -119t141 -301q0 -193 -130 -306.5t-357 -113.5q-113 0 -226 22v-491q0 -23 27 -37t143 -45l-6 -33q0 -12 -10 -12h-553q-14 0 -14 12zM487 707q45 -6 93 -7q154 0 239.5 78 t85.5 230q0 158 -82 245.5t-243 87.5q-47 0 -93 -4v-630z" />
<glyph unicode="Q" horiz-adv-x="1576" d="M82 684q0 352 207 564t526 212q295 0 487.5 -202.5t192.5 -514.5q0 -303 -160.5 -506.5t-421.5 -246.5q43 -135 148.5 -207t241.5 -72q106 0 210 43l9 -55q4 -16 -13 -27q-150 -88 -329 -88q-199 0 -371 110.5t-250 311.5q-213 66 -345 245t-132 433zM389 739 q0 -293 111.5 -472t290.5 -179q176 0 286.5 167t110.5 435q0 303 -109.5 478t-290 175t-290 -169t-109.5 -435z" />
<glyph unicode="R" horiz-adv-x="1429" d="M68 45q102 31 125.5 45t23.5 37v1182q0 23 -23.5 37t-125.5 45l6 32q0 12 12 13h629q242 0 372 -98.5t130 -262.5q0 -147 -105.5 -247.5t-280.5 -129.5q123 -20 242 -145t289 -438q12 -23 34.5 -36t90.5 -34l-6 -33q0 -12 -13 -12h-356q-27 0 -37 25q-147 334 -249.5 472 t-190.5 150q-74 8 -148 8v-528q0 -23 24 -37t128 -45l-6 -33q0 -12 -10 -12h-535q-14 0 -14 12zM487 745q45 -6 93 -6q164 0 253 76t89 217q0 313 -332 314q-53 0 -103 -7v-594z" />
<glyph unicode="S" horiz-adv-x="1124" d="M111 43v322q0 12 12 16l47 10q8 -150 99 -228.5t241 -78.5q141 0 221 62.5t80 164.5q0 90 -69.5 158t-169 115t-199 98t-169 138t-69.5 206q0 193 135.5 313.5t352.5 120.5q229 0 329 -63v-314q0 -12 -12 -16l-45 -8q-18 293 -289 293q-113 0 -176 -59.5t-63 -143.5 q0 -86 69.5 -150.5t170 -111.5t200.5 -100.5t170 -148.5t70 -226q0 -199 -144.5 -318t-388.5 -119q-294 0 -403 68z" />
<glyph unicode="T" horiz-adv-x="1206" d="M-12 1130l26 306h1178l29 -306q0 -12 -13 -16l-43 -6q-23 123 -91 159t-238 42l-86 2v-1182q0 -25 23.5 -39t125.5 -45l-6 -33q0 -12 -10 -12h-533q-14 0 -14 12l-6 33q102 31 125.5 45t23.5 39v1184l-106 -4q-170 -6 -238.5 -42t-91.5 -159l-43 6q-12 4 -12 16z" />
<glyph unicode="U" horiz-adv-x="1458" d="M55 1391l6 32q0 12 13 13h532q12 0 12 -13l7 -32q-102 -31 -126 -44.5t-24 -33.5v-860q0 -150 96.5 -233t227.5 -83q143 0 237 80t94 246v850q0 20 -23.5 33.5t-125.5 44.5l6 32q0 12 14 13h388q14 0 14 -13l6 -32q-102 -31 -125.5 -44.5t-23.5 -33.5v-897 q0 -209 -157 -325t-372 -116q-213 0 -369.5 116t-156.5 325v897q0 20 -24 33.5t-126 44.5z" />
<glyph unicode="V" horiz-adv-x="1310" d="M-53 1391l4 32q4 12 14 13h539q8 0 12 -13l6 -32q-70 -14 -104.5 -24.5t-41.5 -17t-7 -14.5q0 -12 8 -28q176 -422 350 -965q123 332 220 629t97 340q0 27 -24.5 43t-110.5 37l6 32q4 12 13 13h428q10 0 14 -13l6 -32q-98 -25 -134 -59t-77 -130q-49 -115 -201.5 -533.5 t-265.5 -674.5h-125q-223 684 -491 1323q-10 23 -34.5 37t-100.5 37z" />
<glyph unicode="W" horiz-adv-x="1896" d="M-12 1391l6 32q0 12 8 13h520q10 0 10 -13l7 -32q-133 -33 -133 -62q0 -8 6 -20q195 -643 272 -957q203 653 268 1000h131q139 -430 283 -1000q78 254 162 584t84 375q0 29 -20.5 44t-96.5 36l6 32q4 12 10 13h381q8 0 13 -13l6 -32q-78 -20 -107.5 -54t-62.5 -132.5 t-377 -1208.5h-166q-96 365 -252 862q-111 -420 -268 -862h-162q-197 702 -412 1321q-6 20 -27 34.5t-89 39.5z" />
<glyph unicode="X" horiz-adv-x="1441" d="M0 45q111 31 166 74q84 66 299 358l143 193q-266 385 -465 647q-14 23 -38.5 37t-96.5 37l4 32q4 12 15 13h577q6 0 10 -13l7 -32q-147 -33 -148 -58q0 -14 4 -20q211 -283 303 -416l123 166q143 190 144 254q0 20 -25 36.5t-109 37.5l7 32q4 12 12 13h471q10 0 14 -13 l6 -32q-117 -29 -182 -78q-10 -8 -22.5 -18.5t-21.5 -19.5t-24.5 -27.5t-24.5 -30t-28.5 -36t-30 -39t-34.5 -46.5l-37 -49l-176 -234q276 -395 458 -686q16 -29 42 -45t102 -37l-6 -33q-4 -12 -15 -12h-579q-6 0 -10 12l-7 33q145 25 146 55q0 20 -10 33q-115 180 -295 447 l-127 -170q-182 -244 -183 -291q0 -27 24 -42.5t110 -31.5l-7 -33q-4 -12 -12 -12h-453q-10 0 -14 12z" />
<glyph unicode="Y" horiz-adv-x="1312" d="M-92 1391l4 32q4 12 14 13h578q6 0 10 -13l6 -32q-66 -14 -99.5 -24.5t-40.5 -18t-7 -17.5q0 -12 14 -28q238 -301 350 -496l172 252q133 199 133 250q0 29 -23.5 45t-109.5 37l6 32q4 12 13 13h450q10 0 15 -13l6 -32q-94 -18 -142 -54q-72 -59 -184 -227l-272 -391 v-590q0 -25 23.5 -39t125.5 -45l-6 -33q0 -12 -10 -12h-533q-14 0 -14 12l-6 33q102 31 125.5 45t23.5 39v502q-201 336 -485 686q-20 29 -42.5 42.5t-94.5 31.5z" />
<glyph unicode="Z" horiz-adv-x="1318" d="M25 55q510 686 888 1268l-393 -4q-162 -2 -233.5 -47t-108.5 -189l-45 9q-12 4 -12 14l26 311q0 6 8.5 12.5t16.5 6.5h1077q12 0 17 -17l10 -39q-487 -752 -868 -1269l469 12q162 4 237.5 50t102.5 177l38 -8q14 -4 15 -14l-25 -310q0 -18 -24 -18h-1168q-14 0 -18 16z " />
<glyph unicode="[" horiz-adv-x="761" d="M158 -403v1880q0 16 18 16h610q16 0 17 -10l10 -90h-410v-1710h410l-10 -91q0 -12 -17 -12h-612q-16 1 -16 17z" />
<glyph unicode="\" horiz-adv-x="884" d="M-119 1497h217l908 -1917h-218z" />
<glyph unicode="]" horiz-adv-x="761" d="M-49 -317h407v1710h-407l8 90q0 10 16 10h611q18 0 18 -16v-1880q0 -16 -16 -17h-613q-16 0 -16 12z" />
<glyph unicode="^" horiz-adv-x="1091" d="M80 674l407 786h119l406 -786l-58 -23q-16 -10 -26 6l-381 459l-381 -459q-12 -14 -29 -6z" />
<glyph unicode="_" horiz-adv-x="1343" d="M8 -178h1327v-189h-1327v189z" />
<glyph unicode="`" horiz-adv-x="878" d="M185 1498.5q5 19.5 36 19.5h228l288 -322q14 -14 -2 -27l-37 -22l-489 313q-29 19 -24 38.5z" />
<glyph unicode="a" horiz-adv-x="1067" d="M68 227q0 68 34.5 128.5t80.5 100.5t121 78.5t126 58t128 45.5t97 34v59q0 104 -50 167t-150 63q-53 0 -101 -17q10 -31 11 -51q0 -59 -40 -93t-94 -34q-51 0 -89 36t-40 105q72 66 201 114t268 48q174 0 247 -82t73 -254v-573q0 -53 22.5 -69.5t122.5 -45.5l-8 -33 q-2 -12 -14 -12h-303q-23 0 -27 25q-16 94 -16 196q-88 -246 -330 -246q-123 0 -196.5 65.5t-73.5 186.5zM307 297q0 -68 40 -103.5t99 -35.5q135 0 179 131q31 90 30 301q-186 -68 -267 -132.5t-81 -160.5z" />
<glyph unicode="b" horiz-adv-x="1245" d="M14 1436l4 34q0 12 13 17l375 80q2 1 4 0q5 0 10 -2q8 -4 8 -11q-8 -133 -8 -350q0 -260 -14 -397q152 262 387 262q174 0 276 -131t102 -340q0 -283 -165.5 -453t-427.5 -170q-137 0 -227.5 22.5t-178.5 74.5v1243q0 57 -31 83t-127 38zM416 248q0 -94 45 -135t141 -41 q145 0 231.5 109.5t86.5 322.5q0 174 -62.5 278.5t-185.5 104.5q-115 0 -185.5 -101.5t-70.5 -287.5v-250z" />
<glyph unicode="c" horiz-adv-x="978" d="M70 471q0 240 152.5 419t395.5 179q111 0 200 -40t136 -103q-2 -80 -49 -124t-108 -44q-53 0 -89 31.5t-36 89.5q0 35 18 82q-37 10 -72 10q-137 0 -215.5 -111.5t-78.5 -286.5q0 -197 98 -315.5t246 -118.5q133 0 229 97l31 -37q8 -8 8 -15q0 -4 -6 -12 q-59 -88 -153.5 -142.5t-211.5 -54.5q-225 0 -360 143.5t-135 352.5z" />
<glyph unicode="d" horiz-adv-x="1255" d="M68 463q0 270 147 438t367 168q158 0 241 -96v342q0 57 -30.5 82.5t-126.5 38.5l4 34q0 12 12 17l371 80q23 0 28 -11q-10 -147 -10 -702v-608q0 -109 23.5 -141.5t115.5 -59.5l-8 -33q0 -12 -14 -12h-299q-23 0 -27 25q-16 98 -22 211q-33 -104 -137.5 -182.5 t-229.5 -78.5q-186 0 -295.5 132.5t-109.5 355.5zM319 559q0 -188 65 -295.5t183 -107.5q264 0 264 417q0 215 -61 307.5t-184 92.5t-195 -108.5t-72 -305.5z" />
<glyph unicode="e" horiz-adv-x="1024" d="M70 483q0 236 157.5 411t399.5 175q162 0 251 -88t89 -238q0 -80 -25 -168h-620q0 -53 4 -75q10 -162 98 -261.5t231 -99.5q131 0 238 72l29 -39q8 -8 8 -14t-6 -13q-129 -170 -373 -170q-227 0 -354 141.5t-127 366.5zM326 653l313 19q59 4 81.5 32.5t22.5 88.5 q0 176 -157 176q-109 0 -177.5 -92.5t-82.5 -223.5z" />
<glyph unicode="f" horiz-adv-x="749" d="M39 922l8 69q0 14 12 15q127 12 162 16v139q0 190 111.5 283.5t292.5 93.5q174 0 303 -90q10 -10 10 -22q0 -5 -2 -11l-14 -47q-88 47 -217 47q-236 0 -236 -250v-135l266 17l-12 -111q0 -14 -12 -14h-242v-799q0 -14 8 -22.5t51 -21.5t140 -34l-6 -33q0 -12 -11 -12 h-559q-14 0 -14 12l-6 33q102 31 125.5 44t23.5 34v799h-182z" />
<glyph unicode="g" horiz-adv-x="1163" d="M51 -236q0 74 52.5 145t150.5 118q-68 20 -117 75.5t-55 114.5q115 84 207 201q-150 82 -150 276q0 160 116 267.5t298 107.5q53 0 157.5 -14.5t141.5 -14.5q111 0 307 15l-12 -113q0 -14 -10 -14l-267 10q43 -33 74 -101.5t31 -136.5q0 -166 -112.5 -255t-295.5 -89 q-121 0 -205 23q-61 -35 -61 -94q0 -47 49 -66.5t144 -21.5q53 0 157 3q63 2 103 2q27 0 43 -1q137 -4 213.5 -71t76.5 -181q0 -174 -178 -301t-465 -127q-188 0 -290.5 70.5t-102.5 172.5zM256 -127q0 -76 84 -130t250 -54q317 0 317 170q0 133 -219 135q-285 6 -360 16 q-72 -51 -72 -137zM377 725q0 -121 56 -200t140 -79q76 0 123 66t47 176q0 127 -52 204t-138 77q-78 0 -127 -66.5t-49 -177.5z" />
<glyph unicode="h" horiz-adv-x="1318" d="M41 1436l4 34q0 12 12 17l371 80q2 1 4 0q5 0 10 -2q8 -4 9 -11q-8 -133 -9 -350q0 -246 -12 -393q55 90 172 174t240 84q150 0 220.5 -87t70.5 -280v-573q0 -25 23.5 -39t125.5 -45l-6 -33q0 -12 -10 -12h-510q-14 0 -15 12l-6 33q102 31 126 45t24 39v502 q0 145 -41 201.5t-135 56.5q-111 0 -187 -83t-76 -231v-450q0 -23 24 -36t126 -44l-6 -33q0 -12 -10 -12h-510q-14 0 -15 12l-6 33q102 31 126 44t24 34v1192q0 57 -31 83t-127 38z" />
<glyph unicode="i" horiz-adv-x="630" d="M49 45q102 31 126 44t24 34v696q0 59 -26 84t-101 39l6 31q0 14 12 16l338 78q18 4 18 -10v-934q0 -20 24 -33.5t126 -44.5l-6 -33q0 -12 -10 -12h-510q-14 0 -15 12zM172 1374q0 59 42 102.5t103 43.5q59 0 102.5 -43t43.5 -103q0 -61 -43 -104t-103 -43q-61 0 -103 43 t-42 104z" />
<glyph unicode="j" horiz-adv-x="612" d="M-182 -330l20 37q70 -45 166 -45q193 0 193 232v917q0 63 -26 90t-101 41l6 31q0 14 12 16l338 78q18 4 18 -10v-1213q0 -156 -89 -239.5t-251 -83.5q-186 0 -286 121q-5 7 -5 14t5 14zM170 1374q0 59 42 102.5t103 43.5q59 0 101.5 -43t42.5 -103q0 -61 -42 -104 t-102 -43q-61 0 -103 43t-42 104z" />
<glyph unicode="k" horiz-adv-x="1284" d="M41 1436l4 34q0 12 12 17l371 80q23 0 29 -11q-10 -147 -11 -702v-274q96 0 183.5 76.5t208.5 271.5q8 14 5 26.5t-31 24.5t-81 25l6 28q0 12 13 12h462q14 0 15 -12l6 -28q-53 -10 -84 -21.5t-39 -19t-23 -23.5q-272 -332 -417 -367q86 -12 184 -109t299 -360 q16 -23 37.5 -34t77.5 -25l-6 -33q0 -12 -13 -12h-331q-27 0 -39 25q-162 283 -256.5 387t-176.5 104v-393q0 -20 24 -33.5t126 -44.5l-6 -33q0 -12 -10 -12h-510q-14 0 -15 12l-6 33q102 31 126 44t24 34v1192q0 57 -31 83t-127 38z" />
<glyph unicode="l" horiz-adv-x="634" d="M41 1436l6 34q0 12 12 17l369 80q23 0 29 -11q-10 -147 -11 -702v-731q0 -20 24 -33.5t126 -44.5l-6 -33q0 -12 -10 -12h-510q-14 0 -15 12l-6 33q102 31 126 44t24 34v1192q0 57 -30 83t-128 38z" />
<glyph unicode="m" horiz-adv-x="1980" d="M49 45q102 31 126 44t24 34v573q0 150 -23.5 193t-107.5 53l4 31q0 14 12 16l295 80q3 1 6 1q9 0 12 -11q27 -117 27 -256q70 106 174 186t225 80q233 0 281 -258q88 123 181 190.5t220 67.5q133 0 212 -89t79 -278v-573q0 -25 23.5 -39t126.5 -45l-7 -33q0 -12 -10 -12 h-510q-14 0 -14 12l-6 33q102 31 125.5 45t23.5 39v502q0 145 -39 201.5t-141 56.5q-100 0 -173 -85t-73 -196v-479q0 -25 23.5 -39t126.5 -45l-6 -33q0 -12 -11 -12h-510q-14 0 -14 12l-6 33q102 31 125.5 45t23.5 39v502q0 145 -38.5 201.5t-135.5 56.5q-111 0 -182.5 -84 t-71.5 -205v-475q0 -23 24 -36t126 -44l-6 -33q0 -12 -10 -12h-510q-14 0 -15 12z" />
<glyph unicode="n" horiz-adv-x="1318" d="M49 45q102 31 126 44t24 34v573q0 150 -23.5 193t-107.5 53l4 31q0 14 12 16l295 80q3 1 6 1q9 0 12 -11q27 -117 27 -252q203 262 422 262q147 0 217 -87t70 -280v-573q0 -25 23.5 -39t125.5 -45l-6 -33q0 -12 -10 -12h-510q-14 0 -15 12l-6 33q102 31 126 45t24 39v502 q0 145 -41 201.5t-137 56.5q-109 0 -185 -83t-76 -231v-450q0 -23 24 -36t126 -44l-6 -33q0 -12 -10 -12h-510q-14 0 -15 12z" />
<glyph unicode="o" horiz-adv-x="1175" d="M72 485q0 254 160.5 419t385.5 165q215 0 350.5 -141.5t135.5 -374.5q0 -244 -153.5 -411t-383.5 -167q-215 0 -355 138.5t-140 371.5zM334 553q0 -207 69.5 -339t188.5 -132q117 0 182.5 109.5t65.5 295.5q0 213 -70 342t-186 129q-119 0 -184.5 -109.5t-65.5 -295.5z " />
<glyph unicode="p" horiz-adv-x="1271" d="M33 -408q102 31 125.5 44.5t23.5 33.5v1026q0 147 -23.5 190.5t-107.5 53.5l4 31q0 12 13 16l303 80q16 4 20 -10q18 -88 23 -248q33 104 137 182t229 78q186 0 297 -132t111 -355q0 -270 -148.5 -438.5t-367.5 -168.5q-162 0 -242 95v-398q0 -16 9.5 -24t52.5 -21.5 t139 -34.5l-6 -32q0 -12 -11 -13h-561q-14 0 -14 13zM422 471q0 -211 62.5 -305t185.5 -94t194.5 107.5t71.5 305.5q0 190 -63.5 297t-186.5 107q-264 0 -264 -418z" />
<glyph unicode="q" horiz-adv-x="1226" d="M63 446q0 285 166 455t428 170q240 0 406 -98v-1299q0 -23 23.5 -37t125.5 -45l-6 -32q0 -12 -14 -13h-561q-10 0 -10 13l-7 32q139 31 170 45.5t31 38.5v166q0 229 14 398q-72 -125 -161.5 -194t-225.5 -69q-172 0 -275.5 130t-103.5 339zM315 543q0 -178 62.5 -281.5 t187.5 -103.5q115 0 184.5 101t69.5 290v254q0 88 -45 129t-141 41q-145 0 -231.5 -108.5t-86.5 -321.5z" />
<glyph unicode="r" horiz-adv-x="933" d="M51 942l4 29q0 12 13 16l286 82q16 0 21 -10q33 -104 47 -303q53 143 154.5 228t203.5 85q86 0 127 -27q12 -8 13 -20v-274q0 -16 -13 -17l-47 -6q-12 143 -170 143q-111 0 -169 -86t-58 -235v-420q0 -16 9 -24.5t51 -22.5t139 -35l-7 -33q0 -12 -10 -12h-559 q-14 0 -14 12l-6 33q102 31 125.5 45t23.5 37v401q0 283 -47 361q-29 41 -117 53z" />
<glyph unicode="s" horiz-adv-x="903" d="M88 39v246q0 10 12 14l52 10q27 -233 258 -233q100 0 152 41t52 112q0 57 -52 101.5t-126 76t-147.5 69.5t-125.5 102.5t-52 152.5q0 147 104 242.5t295 95.5q160 0 250 -45q12 -4 12 -20v-244q0 -12 -12 -17l-51 -8q-14 123 -68.5 179.5t-155.5 56.5q-84 0 -129 -37 t-45 -98q0 -53 52.5 -95.5t127 -76t149.5 -73.5t127 -109.5t52 -164.5q0 -160 -122 -251t-318 -91q-160 0 -279 45q-12 5 -12 19z" />
<glyph unicode="t" horiz-adv-x="823" d="M-8 922l6 51q0 23 20 22q158 49 239 138.5t101 248.5q4 18 23 21l57 8v-379q352 12 363 12l-13 -108q0 -14 -12 -14h-338v-576q0 -215 178 -215q104 0 164 45l23 -31q6 -6 6 -14t-6 -16q-129 -139 -320 -140q-143 0 -218 73t-75 259v615h-198z" />
<glyph unicode="u" horiz-adv-x="1288" d="M35 999l6 33q0 12 10 12h375q14 0 14 -16q0 -8 -2 -50t-4 -112.5t-2 -150.5v-301q0 -143 37 -200.5t137 -57.5q109 0 183.5 80.5t74.5 214.5v469q0 23 -23.5 36t-125.5 43l6 33q0 12 10 12h373q14 0 14 -16q0 -8 -2 -50t-4 -112.5t-2 -150.5v-473q0 -113 20.5 -144.5 t106.5 -52.5l-6 -31q0 -14 -12 -14h-285q-16 0 -21 14q-23 109 -22 228q-61 -104 -176 -185.5t-238 -81.5q-154 0 -223.5 86t-69.5 281v573q0 25 -23.5 39t-125.5 45z" />
<glyph unicode="v" horiz-adv-x="1026" d="M-45 999l4 33q4 12 14 12h512q8 0 13 -12l6 -33q-147 -29 -148 -57q0 -4 4 -20q127 -309 232 -635q215 543 215 635q0 27 -23.5 44t-103.5 33l6 33q0 12 10 12h373q10 0 14 -12l7 -33q-76 -16 -111 -51t-80 -137q-45 -98 -158.5 -391t-171.5 -424h-127q-156 459 -352 930 q-18 40 -135 73z" />
<glyph unicode="w" horiz-adv-x="1638" d="M-49 999l4 33q4 12 14 12h516q8 0 13 -12l6 -33q-152 -29 -152 -57q0 -4 4 -20q129 -326 226 -631q43 109 92 252t100 297.5t68 203.5h92q152 -391 272 -753q209 537 209 629q0 18 -6 29.5t-36 24.5t-87 25l6 33q0 12 11 12h374q10 0 15 -12l6 -33q-82 -18 -115 -53 t-76 -135q-41 -90 -154.5 -389t-168.5 -426h-123q-125 369 -242 676q-227 -592 -264 -676h-121q-147 444 -348 930q-6 12 -12 20t-37 23.5t-86 29.5z" />
<glyph unicode="x" horiz-adv-x="1202" d="M12 45q80 23 137.5 70t172.5 172q25 29 38 43l146 162q-207 279 -338 430q-14 16 -23.5 24t-41 23.5t-85.5 29.5l5 33q4 12 14 12h538q8 0 13 -12l6 -33q-66 -12 -99.5 -23t-39.5 -17.5t-6 -16.5q0 -8 10 -18q129 -164 205 -262l71 81q139 152 139 193q0 20 -21.5 33.5 t-100.5 29.5l6 33q0 12 10 12h399q8 0 13 -12l6 -33q-90 -23 -146.5 -68.5t-179.5 -180.5l-143 -158q217 -297 336 -467q18 -29 44.5 -44t96.5 -36l-4 -33q-4 -12 -14 -12h-533q-8 0 -12 12l-6 33q147 29 147 57q0 12 -4 21q-94 143 -209 297l-121 -133q-129 -141 -129 -181 q0 -37 123 -61l-6 -33q0 -12 -10 -12h-385q-8 0 -13 12z" />
<glyph unicode="y" horiz-adv-x="1028" d="M-102 -319q-5 6 -5 12q0 8 7 16l24 33q82 -53 178 -53q106 0 191.5 63.5t150.5 257.5q-113 332 -354 916q-18 41 -135 73l4 33q4 12 14 12h512q8 0 13 -12l6 -33q-147 -29 -148 -57q0 -4 4 -20q127 -309 232 -635q215 543 215 633q0 27 -22.5 45t-104.5 34l6 33 q0 12 10 12h373q10 0 14 -12l7 -33q-80 -18 -113 -53t-78 -135q-49 -113 -209 -518.5t-211 -528.5q-53 -133 -130 -188t-193 -55q-158 0 -258 160z" />
<glyph unicode="z" horiz-adv-x="1081" d="M41 55q340 428 647 893l-229 -4q-152 -4 -213.5 -42t-79.5 -148l-43 8q-12 4 -12 14l24 250q0 6 7.5 12t15.5 6h827q12 0 16 -16l9 -39q-354 -524 -629 -895l301 8q156 2 216 38t79 153l43 -8q12 -4 12 -15l-22 -252q0 -6 -7.5 -12t-15.5 -6h-921q-12 0 -17 16z" />
<glyph unicode="{" horiz-adv-x="849" d="M31 504l8 63q0 14 12 15h45q113 0 155 64.5t42 187.5q0 35 -5 117.5t-5 131.5q0 186 127 300t405 114q16 0 16 -12l5 -49q-109 0 -175.5 -27t-94 -82t-34 -99t-6.5 -120q0 -68 7.5 -167t7.5 -140q0 -231 -211 -256q209 -31 209 -258q0 -39 -7.5 -139.5t-7.5 -167.5 q0 -59 3 -96.5t19.5 -88.5t48.5 -80.5t93.5 -51t149.5 -21.5l-7 -50q0 -12 -16 -12q-532 0 -532 424q0 47 6 130t6 120q0 121 -42 185.5t-155 64.5h-67z" />
<glyph unicode="|" horiz-adv-x="593" d="M178 -420v1917h238v-1917h-238z" />
<glyph unicode="}" horiz-adv-x="849" d="M12 1436l6 49q0 12 17 12q283 0 406.5 -109.5t123.5 -312.5q0 -47 -5 -131t-5 -121q0 -121 42 -185.5t155 -64.5h65l-6 -63q0 -12 -12 -12h-45q-113 0 -155 -64.5t-42 -187.5q0 -37 4 -120t4 -130q0 -188 -126 -302t-404 -114q-16 0 -17 12l-4 50q88 0 148.5 20.5 t91.5 48t47 78.5t19.5 86t3.5 96q0 68 -7.5 167.5t-7.5 137.5q0 229 211 259q-209 27 -209 258q0 39 7.5 138t7.5 167q0 59 -3.5 96t-19.5 88t-48 81t-93.5 51.5t-149.5 21.5z" />
<glyph unicode="~" horiz-adv-x="1040" d="M82 414q4 166 77.5 271.5t188.5 105.5q80 0 202 -75t175 -75q141 0 152 170l79 -10q-4 -168 -72.5 -269.5t-181.5 -101.5q-92 0 -206.5 72.5t-169.5 72.5q-154 0 -160 -180z" />
<glyph unicode="&#xa1;" horiz-adv-x="671" d="M190 919.5q0 61.5 43 105.5t104.5 44t104.5 -44t43 -105q0 -59 -43 -103.5t-104.5 -44.5t-104.5 43t-43 104.5zM195 -502l96 1141h92l96 -1141h-284z" />
<glyph unicode="&#xa2;" horiz-adv-x="950" d="M76 723q0 199 118.5 357.5t309.5 193.5l8 186h102l-6 -178q113 -2 194 -36t116 -85q0 -80 -37 -122t-93 -42q-45 0 -74.5 26t-29.5 75q0 35 18 78q-55 16 -98 14l-35 -768q78 -16 156 5.5t131 76.5l29 -35q8 -8 8 -14q0 -4 -6 -11q-49 -72 -138.5 -125t-187.5 -57 l-8 -215h-104l10 221q-180 25 -281.5 152t-101.5 303zM313 809q0 -111 41 -202t113 -140l31 698q-86 -39 -135.5 -133t-49.5 -223z" />
<glyph unicode="&#xa3;" horiz-adv-x="1167" d="M39 670l12 96q0 14 12 14h144q-10 82 -10 162q0 242 158.5 380t400.5 138q113 0 207 -34.5t135 -94.5q0 -84 -45 -130t-109 -46q-47 0 -80 29.5t-33 83.5q0 35 19 84q-35 10 -78 10q-145 0 -230 -103.5t-85 -291.5q0 -68 10 -187h326l-13 -96q0 -14 -12 -14h-289 q16 -180 17 -267q0 -137 -19 -286l228 6q162 4 232.5 40t96.5 148l43 -6q12 -4 13 -16l-29 -271q0 -6 -7 -12t-16 -6h-817q23 150 23 332q0 147 -23 338h-182z" />
<glyph unicode="&#xa4;" horiz-adv-x="1452" d="M0 0l334 389q-94 127 -94 311q0 190 102 340l-340 396h213l240 -281q131 102 301 102q150 0 262 -77l217 256h215l-317 -371q82 -119 81 -299q0 -205 -114 -358l350 -408h-213l-256 299q-119 -84 -272 -84q-143 0 -254 68l-240 -283h-215zM453 760q0 -166 74.5 -269.5 t201.5 -103.5q125 0 197.5 87t72.5 235q0 170 -76.5 272t-201.5 102q-129 0 -198.5 -86.5t-69.5 -236.5z" />
<glyph unicode="&#xa5;" horiz-adv-x="1312" d="M-63 1391l6 32q4 12 14 13h555q6 0 10 -13l6 -32q-63 -14 -96 -24.5t-40 -18t-7 -17.5q0 -8 14 -28q225 -297 338 -496l164 252q129 197 129 250q0 29 -22.5 45t-106.5 37l6 32q4 12 13 13h432q10 0 14 -13l6 -32q-88 -18 -135 -54q-68 -59 -178 -227l-256 -381 q184 4 280 8l-18 -98q0 -16 -12 -16h-254v-164q193 4 284 8l-18 -98q0 -14 -12 -15h-254v-225q0 -25 22.5 -39t120.5 -45l-6 -33q0 -12 -10 -12h-512q-14 0 -15 12l-6 33q98 31 121 45t23 39v225h-289l14 84q0 16 12 17q168 0 263 2v166h-289l14 84q0 16 12 16h209 q-178 295 -413 594q-16 20 -24.5 28.5t-34 21t-74.5 24.5z" />
<glyph unicode="&#xa6;" horiz-adv-x="593" d="M178 262h236v-682h-236v682zM178 838v657h236v-657h-236z" />
<glyph unicode="&#xa7;" horiz-adv-x="1333" d="M102 834q0 274 181.5 450t468.5 176q264 0 374 -133q0 -90 -46 -139t-111 -49q-55 0 -92 32.5t-37 88.5q0 45 20 88q-37 10 -98 10q-106 0 -162.5 -47t-56.5 -133q0 -68 37.5 -130.5t98 -115.5t134.5 -109.5t146.5 -123t133 -142.5t98.5 -182.5t38 -229.5 q0 -262 -189.5 -443t-480.5 -181q-270 0 -381 135q0 90 46 139t112 49q55 0 92 -32.5t37 -87.5q0 -45 -21 -89q35 -12 88 -12q115 0 177.5 55.5t62.5 149.5q0 68 -37 128t-96 110.5t-130 103.5t-142.5 116.5t-131 137.5t-96.5 179.5t-37 230.5zM266 963q0 -96 39 -186.5 t102.5 -162t139.5 -141.5t152.5 -136.5t140 -133t102.5 -145t39 -160.5q0 -74 -20 -138q98 102 98 265q0 131 -73 250.5t-175 212t-205.5 182.5t-176.5 199.5t-73 228.5q0 92 29 159q-119 -101 -119 -294z" />
<glyph unicode="&#xa8;" horiz-adv-x="1138" d="M217 1329q0 53 37 90t90 37t91 -37t38 -90t-38 -92t-91 -39t-90 39t-37 92zM670 1329q0 53 36.5 90t92.5 37q53 0 89 -37t36 -90q0 -55 -36 -93t-89 -38q-55 0 -92 38t-37 93z" />
<glyph unicode="&#xa9;" horiz-adv-x="1693" d="M78 666q0 362 229.5 578t583.5 216q315 0 519 -198.5t204 -507.5q0 -350 -219 -564.5t-564 -214.5q-324 0 -538.5 188t-214.5 503zM276 713q0 -283 152 -448t412 -165q252 0 411.5 167t159.5 438q0 295 -147.5 461.5t-401.5 166.5q-260 0 -423 -173t-163 -447zM418 678 q0 213 141 368.5t342 155.5q133 0 236 -43q14 -4 14 -20v-234q0 -12 -12 -16l-47 -6q-14 115 -60.5 170t-138.5 55q-125 0 -189.5 -96.5t-64.5 -249.5q0 -170 81 -276.5t224 -106.5q121 0 203 88l27 -35q8 -8 8 -12q0 -2 -6 -12q-49 -76 -139.5 -128.5t-186.5 -52.5 q-205 0 -318.5 128t-113.5 323z" />
<glyph unicode="&#xaa;" horiz-adv-x="940" d="M96 786q0 55 28 103.5t65.5 80t96 62.5t101.5 46.5t102.5 36t77.5 26.5v49q0 84 -40 133t-119 49q-47 0 -82 -12q8 -18 8 -41q0 -47 -32 -74.5t-75 -27.5q-41 0 -70.5 28.5t-31.5 83.5q57 53 160.5 92t214.5 39q139 0 197.5 -65.5t58.5 -204.5v-459q0 -41 17.5 -54 t98.5 -36l-6 -27q-2 -10 -12 -10h-242q-18 0 -22 21q-12 72 -12 155q-35 -96 -105 -146t-160 -50q-98 0 -157.5 53t-59.5 149zM109 0v178h714v-178h-714zM289 842q0 -53 31.5 -82t78.5 -29q111 0 144 105q25 74 24 239q-147 -53 -212.5 -104t-65.5 -129z" />
<glyph unicode="&#xab;" horiz-adv-x="1378" d="M102 465v119l633 403l23 -57q4 -14 -4 -27l-361 -379l361 -383q12 -14 4 -28l-23 -58zM621 465v119l630 403l23 -57q4 -14 -4 -27l-359 -379l359 -383q12 -14 4 -28l-23 -58z" />
<glyph unicode="&#xac;" d="M104 524v178h895v-702h-225v524h-670z" />
<glyph unicode="&#xad;" horiz-adv-x="628" d="M72 506l30 201q0 14 13 14h442l-31 -201q-4 -14 -10 -14h-444z" />
<glyph unicode="&#xae;" horiz-adv-x="946" d="M41 1022q0 207 127 331t321 124q182 0 299 -118t117 -304q0 -199 -124 -324t-316 -125q-180 0 -302 116t-122 300zM154 1051q0 -166 87 -261.5t234 -95.5q143 0 231.5 91.5t88.5 248.5q0 166 -87 260.5t-233 94.5q-147 0 -234 -92t-87 -246zM252 1272l6 24q0 4 6 4h205 q94 0 146.5 -36.5t52.5 -94.5q0 -109 -138 -129q47 -4 85 -53t98 -188h-117q-10 0 -14 8q-51 121 -75 161t-48 44q-25 6 -53 6v-160q0 -8 7 -13t42 -16l-2 -26q0 -4 -4 -4h-185q-6 0 -6 4l-4 26q47 14 47 29v387q0 11 -49 27zM406 1065q80 0 111.5 19.5t31.5 74.5 q0 49 -31 70.5t-112 19.5v-184z" />
<glyph unicode="&#xaf;" horiz-adv-x="901" d="M184 1257v146h533v-146h-533z" />
<glyph unicode="&#xb0;" horiz-adv-x="849" d="M59 1022q0 193 115 315.5t279 122.5q158 0 257 -107.5t99 -285.5q0 -184 -109.5 -309t-275.5 -125q-160 0 -262.5 105.5t-102.5 283.5zM262 1063q0 -147 45 -236.5t125 -89.5q78 0 126 78t48 209q0 152 -47 242t-127 90t-125 -80t-45 -213z" />
<glyph unicode="&#xb1;" d="M104 0v178h895v-178h-895zM117 672v202h336v338h200v-338h334v-202h-334v-340h-200v340h-336z" />
<glyph unicode="&#xb4;" horiz-adv-x="942" d="M193 1196l290 322h228q29 0 35 -19.5t-23 -38.5l-490 -313l-38 22q-14 13 -2 27z" />
<glyph unicode="&#xb6;" horiz-adv-x="1224" d="M63 1008q0 182 138.5 305t386.5 123h575q14 0 15 -13l6 -32q-72 -20 -103.5 -34t-39 -22t-7.5 -20v-1008q0 -162 -89 -247t-251 -85q-180 0 -291 121q-6 6 -6 15q0 10 6 16l25 31q66 -51 164 -52q174 0 174 232v276q-115 -20 -219 -20q-242 0 -363 115t-121 299z" />
<glyph unicode="&#xb7;" horiz-adv-x="528" d="M115 565q0 63 44 107.5t107.5 44.5t106.5 -44t43 -108q0 -61 -44 -106t-106 -45q-63 0 -107 45t-44 106z" />
<glyph unicode="&#xb8;" horiz-adv-x="831" d="M186 -426l17 43q57 -23 135 -23q57 0 95 24t38 65q0 90 -180 90q-29 0 -29 18l103 209h137l-74 -109q106 0 162.5 -47t56.5 -125q0 -88 -79 -146t-226 -58q-88 0 -145 30q-19 9 -11 29z" />
<glyph unicode="&#xba;" horiz-adv-x="1030" d="M102 993q0 203 129 335t310 132q172 0 280.5 -113.5t108.5 -299.5q0 -195 -123 -329t-307 -134q-172 0 -285 110.5t-113 298.5zM133 0v178h756v-178h-756zM313 1047q0 -166 56.5 -271.5t150.5 -105.5q92 0 144.5 87t52.5 236q0 172 -55.5 274.5t-149.5 102.5t-146.5 -88 t-52.5 -235z" />
<glyph unicode="&#xbb;" horiz-adv-x="1368" d="M104 115q-4 14 5 26l360 379l-360 383q-12 14 -5 29l23 57l633 -409v-119l-633 -404zM623 115q-4 14 4 26l358 379l-358 383q-12 14 -4 29l22 57l631 -409v-119l-631 -404z" />
<glyph unicode="&#xbc;" horiz-adv-x="1806" d="M123 1268q0 18 8 18l422 189q27 0 27 -17q0 -8 -4.5 -109.5t-4.5 -181.5v-530q0 -10 5.5 -15.5t32 -16.5t83.5 -30l-6 -26q0 -10 -8 -10h-438q-10 0 -11 10l-6 26q74 18 108 29.5t40 17t6 15.5v672l-238 -92zM305 0l1075 1436h195l-1075 -1436h-195zM967 307 q256 346 485 611q6 6 18 6l72 -13v-581h168q-4 -51 -4 -60l-8 -22h-156v-148q0 -18 21.5 -28.5t105.5 -34.5l-6 -27q0 -10 -8 -10h-416q-12 0 -12 10l-4 27q86 25 108.5 36t22.5 27v148h-365q-6 0 -10 10zM1085 330h269v344q-42 -49 -269 -344z" />
<glyph unicode="&#xbd;" horiz-adv-x="1941" d="M123 1268q0 18 8 18l422 189q27 0 27 -17q0 -8 -4.5 -109.5t-4.5 -181.5v-530q0 -10 5.5 -15.5t32 -16.5t83.5 -30l-6 -26q0 -10 -8 -10h-438q-10 0 -11 10l-6 26q74 18 108 29.5t40 17t6 15.5v672l-238 -92zM307 0l1075 1436h193l-1075 -1436h-193zM1081 49l267 217 q248 195 247 369q0 90 -41 143t-124 53q-47 0 -82 -16q14 -66 -19 -102.5t-86 -36.5q-43 0 -71.5 30.5t-28.5 90.5q63 49 165.5 87t215.5 38q131 0 209.5 -64.5t78.5 -177.5q0 -106 -78.5 -201.5t-263.5 -230.5l-155 -115l215 2q139 4 185 22.5t67 96.5l41 -6q8 -4 8 -10 l-21 -226q0 -12 -18 -12h-690q-12 0 -12 10z" />
<glyph unicode="&#xbe;" horiz-adv-x="1806" d="M123 641q0 2 2 4l4 4l23 29q86 -70 208 -70q88 0 146.5 44t58.5 130q0 82 -65.5 137.5t-196.5 55.5l6 55q2 8 19 8q115 0 170 50.5t55 130.5q0 66 -39 110.5t-113 44.5q-45 0 -84 -18q8 -55 -22.5 -86t-75.5 -31q-39 0 -64.5 28.5t-25.5 75.5q61 47 158.5 82t199.5 35 q135 0 204 -59.5t69 -153.5q0 -86 -62.5 -147.5t-179.5 -83.5q244 -27 244 -228q0 -133 -96.5 -201.5t-243.5 -68.5q-197 0 -295 111zM315 0l1076 1436h194l-1075 -1436h-195zM967 307q256 346 485 611q6 6 18 6l72 -13v-581h168q-4 -51 -4 -60l-8 -22h-156v-148 q0 -18 21.5 -28.5t105.5 -34.5l-6 -27q0 -10 -8 -10h-416q-12 0 -12 10l-4 27q86 25 108.5 36t22.5 27v148h-365q-6 0 -10 10zM1085 330h269v344q-42 -49 -269 -344z" />
<glyph unicode="&#xbf;" horiz-adv-x="923" d="M94 -41q0 98 45 187.5t108.5 155t128 123.5t109.5 116.5t45 109.5q45 -2 73 -26.5t28 -69.5q0 -53 -44 -124t-98.5 -132t-98.5 -153.5t-44 -182.5q0 -115 53.5 -180.5t159.5 -65.5q123 0 180.5 63.5t67.5 203.5l51 -9q12 -4 12 -14v-293q0 -12 -16 -16q-168 -57 -338 -58 q-201 0 -311.5 100.5t-110.5 264.5zM397 919.5q0 61.5 43 105.5t104.5 44t104.5 -44t43 -105q0 -59 -43 -103.5t-104.5 -44.5t-104.5 43t-43 104.5z" />
<glyph unicode="&#xc0;" horiz-adv-x="1310" d="M-55 45q82 23 116.5 56.5t69.5 111.5q63 147 225 572t262 667h111q250 -754 494 -1335q10 -20 31.5 -31.5t105.5 -40.5l-6 -33q-4 -12 -15 -12h-534q-6 0 -10 12l-7 33q152 33 152 57q0 12 -6 23q-86 205 -127 315h-457q-90 -270 -90 -317q0 -27 23.5 -41t107.5 -37 l-6 -33q-4 -12 -12 -12h-408q-10 0 -14 12zM245 1862.5q5 19.5 36 19.5h227l289 -321q18 -14 -2 -25l-37 -23l-490 312q-28 18 -23 37.5zM381 535h389q-113 309 -192 561q-95 -258 -197 -561z" />
<glyph unicode="&#xc1;" horiz-adv-x="1310" d="M-55 45q82 23 116.5 56.5t69.5 111.5q63 147 225 572t262 667h111q250 -754 494 -1335q10 -20 31.5 -31.5t105.5 -40.5l-6 -33q-4 -12 -15 -12h-534q-6 0 -10 12l-7 33q152 33 152 57q0 12 -6 23q-86 205 -127 315h-457q-90 -270 -90 -317q0 -27 23.5 -41t107.5 -37 l-6 -33q-4 -12 -12 -12h-408q-10 0 -14 12zM381 535h389q-113 309 -192 561q-95 -258 -197 -561zM469 1565l291 321h227q29 0 35 -19.5t-23 -37.5l-489 -313l-39 22q-14 13 -2 27z" />
<glyph unicode="&#xc2;" horiz-adv-x="1310" d="M-55 45q82 23 116.5 56.5t69.5 111.5q63 147 225 572t262 667h111q250 -754 494 -1335q10 -20 31.5 -31.5t105.5 -40.5l-6 -33q-4 -12 -15 -12h-534q-6 0 -10 12l-7 33q152 33 152 57q0 12 -6 23q-86 205 -127 315h-457q-90 -270 -90 -317q0 -27 23.5 -41t107.5 -37 l-6 -33q-4 -12 -12 -12h-408q-10 0 -14 12zM346 1565l248 307q20 25 49 24h45q33 0 51 -20l240 -311q14 -18 -2 -25l-49 -20l-269 182l-262 -182l-49 20q-16 7 -2 25zM381 535h389q-113 309 -192 561q-95 -258 -197 -561z" />
<glyph unicode="&#xc3;" horiz-adv-x="1310" d="M-55 45q82 23 116.5 56.5t69.5 111.5q63 147 225 572t262 667h111q250 -754 494 -1335q10 -20 31.5 -31.5t105.5 -40.5l-6 -33q-4 -12 -15 -12h-534q-6 0 -10 12l-7 33q152 33 152 57q0 12 -6 23q-86 205 -127 315h-457q-90 -270 -90 -317q0 -27 23.5 -41t107.5 -37 l-6 -33q-4 -12 -12 -12h-408q-10 0 -14 12zM346 1550q4 137 59.5 225.5t139.5 88.5q57 0 147 -62.5t129 -62.5q104 0 111 141l61 -8q-2 -139 -54 -224t-134 -85q-68 0 -152 60t-123 60q-115 0 -118 -149zM381 535h389q-113 309 -192 561q-95 -258 -197 -561z" />
<glyph unicode="&#xc4;" horiz-adv-x="1310" d="M-55 45q82 23 116.5 56.5t69.5 111.5q63 147 225 572t262 667h111q250 -754 494 -1335q10 -20 31.5 -31.5t105.5 -40.5l-6 -33q-4 -12 -15 -12h-534q-6 0 -10 12l-7 33q152 33 152 57q0 12 -6 23q-86 205 -127 315h-457q-90 -270 -90 -317q0 -27 23.5 -41t107.5 -37 l-6 -33q-4 -12 -12 -12h-408q-10 0 -14 12zM305 1691.5q0 53.5 37 90.5t90 37t91 -37t38 -90.5t-38 -92t-91 -38.5t-90 38.5t-37 92zM381 535h389q-113 309 -192 561q-95 -258 -197 -561zM758 1692q0 53 36.5 90t92.5 37q53 0 89 -37t36 -90q0 -55 -36 -93t-89 -38 q-55 0 -92 38t-37 93z" />
<glyph unicode="&#xc5;" horiz-adv-x="1310" d="M-55 45q82 23 116.5 56.5t69.5 111.5q63 147 225 572t262 667h111q250 -754 494 -1335q10 -20 31.5 -31.5t105.5 -40.5l-6 -33q-4 -12 -15 -12h-534q-6 0 -10 12l-7 33q152 33 152 57q0 12 -6 23q-86 205 -127 315h-457q-90 -270 -90 -317q0 -27 23.5 -41t107.5 -37 l-6 -33q-4 -12 -12 -12h-408q-10 0 -14 12zM381 535h389q-113 309 -192 561q-95 -258 -197 -561zM442 1690q0 92 64.5 153.5t165.5 61.5q106 0 168.5 -58.5t62.5 -156.5q0 -94 -64.5 -154.5t-166.5 -60.5q-98 0 -164 58.5t-66 156.5zM573 1689.5q0 -53.5 32 -88t75 -34.5 q45 0 75.5 34.5t30.5 88t-30.5 88t-75.5 34.5q-43 0 -75 -34.5t-32 -88z" />
<glyph unicode="&#xc6;" horiz-adv-x="1935" d="M-96 45q90 27 136 57.5t110 106.5q102 125 229 290t309 403.5t301 391.5q6 18 -2 31.5t-45 31t-106 34.5l6 32q0 12 14 13h934l22 -269q0 -12 -12 -16l-43 -8q-29 106 -65.5 137t-122.5 35l-314 6v-510q276 6 459 25v-150q-229 27 -459 25v-596l347 6q102 2 154 34.5 t77 143.5l43 -6q12 -4 12 -17l-22 -276h-1010q-14 0 -14 12l-6 33q102 31 125.5 45t23.5 37v313h-500q-211 -295 -215 -334q-4 -18 13.5 -28t93.5 -33l-6 -33q-4 -12 -13 -12h-434q-10 0 -14 12zM553 535h432v583q-209 -274 -432 -583z" />
<glyph unicode="&#xc7;" horiz-adv-x="1294" d="M80 645q0 152 51 295t144.5 260t242 188.5t326.5 71.5q199 0 334 -63v-346q0 -12 -15 -23l-45 -6q-14 145 -89 230t-210 85q-215 0 -338 -177t-123 -421q0 -252 128 -412.5t364 -160.5q227 0 342 147l33 -32q8 -16 8 -23q0 -10 -4 -16q-143 -240 -449 -265l-57 -86 q106 0 162.5 -47t56.5 -125q0 -88 -79 -146t-226 -58q-88 0 -145 30q-18 8 -11 29l17 43q57 -23 135 -23q57 0 95 24t38 65q0 90 -180 90q-29 0 -29 18l92 189q-182 16 -313 114.5t-193.5 240.5t-62.5 310z" />
<glyph unicode="&#xc8;" horiz-adv-x="1173" d="M68 45q102 31 125.5 45t23.5 39v1180q0 23 -23.5 37t-125.5 45l6 32q0 12 12 13h936l22 -269q0 -12 -12 -16l-43 -8q-29 106 -65.5 137t-122.5 35l-314 6v-510q276 6 459 25v-150q-229 27 -459 25v-596l347 6q102 2 154 34.5t77 143.5l43 -6q12 -4 12 -17l-22 -276h-1010 q-14 0 -14 12zM288 1862.5q5 19.5 36 19.5h227l289 -321q18 -14 -2 -25l-37 -23l-490 312q-28 18 -23 37.5z" />
<glyph unicode="&#xc9;" horiz-adv-x="1173" d="M68 45q102 31 125.5 45t23.5 39v1180q0 23 -23.5 37t-125.5 45l6 32q0 12 12 13h936l22 -269q0 -12 -12 -16l-43 -8q-29 106 -65.5 137t-122.5 35l-314 6v-510q276 6 459 25v-150q-229 27 -459 25v-596l347 6q102 2 154 34.5t77 143.5l43 -6q12 -4 12 -17l-22 -276h-1010 q-14 0 -14 12zM416 1565l291 321h227q29 0 35 -19.5t-23 -37.5l-489 -313l-39 22q-14 13 -2 27z" />
<glyph unicode="&#xca;" horiz-adv-x="1173" d="M68 45q102 31 125.5 45t23.5 39v1180q0 23 -23.5 37t-125.5 45l6 32q0 12 12 13h936l22 -269q0 -12 -12 -16l-43 -8q-29 106 -65.5 137t-122.5 35l-314 6v-510q276 6 459 25v-150q-229 27 -459 25v-596l347 6q102 2 154 34.5t77 143.5l43 -6q12 -4 12 -17l-22 -276h-1010 q-14 0 -14 12zM315 1565l248 307q20 25 49 24h45q33 0 52 -20l239 -311q14 -18 -2 -25l-49 -20l-268 182l-262 -182l-50 20q-16 7 -2 25z" />
<glyph unicode="&#xcb;" horiz-adv-x="1173" d="M68 45q102 31 125.5 45t23.5 39v1180q0 23 -23.5 37t-125.5 45l6 32q0 12 12 13h936l22 -269q0 -12 -12 -16l-43 -8q-29 106 -65.5 137t-122.5 35l-314 6v-510q276 6 459 25v-150q-229 27 -459 25v-596l347 6q102 2 154 34.5t77 143.5l43 -6q12 -4 12 -17l-22 -276h-1010 q-14 0 -14 12zM270 1691.5q0 53.5 37 90.5t90.5 37t91 -37t37.5 -90.5t-37.5 -92t-91 -38.5t-90.5 38.5t-37 92zM723 1692q0 53 37 90t92 37q53 0 89 -37t36 -90q0 -55 -36 -93t-89 -38q-55 0 -92 38t-37 93z" />
<glyph unicode="&#xcc;" horiz-adv-x="704" d="M56 1862.5q5 19.5 36 19.5h227l289 -321q18 -14 -2 -25l-37 -23l-489 312q-29 18 -24 37.5zM68 45q102 31 125.5 45t23.5 39v1180q0 23 -23.5 37t-125.5 45l6 32q0 12 12 13h532q12 0 13 -13l6 -32q-102 -31 -126 -45.5t-24 -36.5v-1180q0 -25 24 -39t126 -45l-6 -33 q0 -12 -10 -12h-533q-14 0 -14 12z" />
<glyph unicode="&#xcd;" horiz-adv-x="704" d="M68 45q102 31 125.5 45t23.5 39v1180q0 23 -23.5 37t-125.5 45l6 32q0 12 12 13h532q12 0 13 -13l6 -32q-102 -31 -126 -45.5t-24 -36.5v-1180q0 -25 24 -39t126 -45l-6 -33q0 -12 -10 -12h-533q-14 0 -14 12zM119 1565l291 321h227q29 0 35 -19.5t-23 -37.5l-489 -313 l-39 22q-14 13 -2 27z" />
<glyph unicode="&#xce;" horiz-adv-x="704" d="M37 1565l248 307q20 25 49 24h45q33 0 51 -20l240 -311q14 -18 -2 -25l-50 -20l-268 182l-262 -182l-49 20q-16 7 -2 25zM68 45q102 31 125.5 45t23.5 39v1180q0 23 -23.5 37t-125.5 45l6 32q0 12 12 13h532q12 0 13 -13l6 -32q-102 -31 -126 -45.5t-24 -36.5v-1180 q0 -25 24 -39t126 -45l-6 -33q0 -12 -10 -12h-533q-14 0 -14 12z" />
<glyph unicode="&#xcf;" horiz-adv-x="704" d="M0 1691.5q0 53.5 37 90.5t90 37t91 -37t38 -90.5t-38 -92t-91 -38.5t-90 38.5t-37 92zM68 45q102 31 125.5 45t23.5 39v1180q0 23 -23.5 37t-125.5 45l6 32q0 12 12 13h532q12 0 13 -13l6 -32q-102 -31 -126 -45.5t-24 -36.5v-1180q0 -25 24 -39t126 -45l-6 -33 q0 -12 -10 -12h-533q-14 0 -14 12zM453 1692q0 53 36.5 90t92.5 37q53 0 89 -37t36 -90q0 -55 -36 -93t-89 -38q-55 0 -92 38t-37 93z" />
<glyph unicode="&#xd0;" horiz-adv-x="1548" d="M57 662v178h160v469q0 23 -23.5 37t-125.5 45l6 32q0 12 12 13h598q369 0 573.5 -187.5t204.5 -527.5q0 -309 -215 -515t-616 -206h-543q-14 0 -14 12l-6 33q102 31 125.5 45t23.5 39v533h-160zM487 117q94 -14 168 -15q229 0 370.5 137.5t141.5 415.5q0 356 -145 517 t-430 161q-35 0 -105 -4v-485h369v-180h-369v-547z" />
<glyph unicode="&#xd1;" horiz-adv-x="1468" d="M68 45q102 31 125.5 44t23.5 36v1188q0 20 -23.5 33.5t-125.5 44.5l6 32q0 12 12 13h403q379 -532 650 -975v852q0 20 -23.5 33.5t-126.5 44.5l6 32q0 12 15 13h387q12 0 12 -13l6 -32q-102 -31 -125.5 -44.5t-23.5 -33.5v-1293q0 -20 -19 -20l-129 -10 q-326 524 -774 1169v-1034q0 -23 23.5 -36t126.5 -44l-7 -33q0 -12 -12 -12h-387q-14 0 -14 12zM446 1550q4 137 59.5 225.5t139.5 88.5q57 0 147.5 -62.5t129.5 -62.5q104 0 110 141l62 -8q-2 -139 -54.5 -224t-134.5 -85q-68 0 -151.5 60t-122.5 60q-115 0 -119 -149z" />
<glyph unicode="&#xd2;" horiz-adv-x="1574" d="M82 684q0 352 207 564t526 212q293 0 485.5 -202.5t192.5 -514.5q0 -342 -203 -555t-516 -213q-293 0 -492.5 197t-199.5 512zM377 739q0 -293 114.5 -472t299.5 -179q180 0 293.5 167t113.5 435q0 305 -112.5 480.5t-299 175.5t-298 -169.5t-111.5 -437.5zM490.5 1862.5 q5.5 19.5 35.5 19.5h228l288 -321q18 -14 -2 -25l-36 -23l-490 312q-29 18 -23.5 37.5z" />
<glyph unicode="&#xd3;" horiz-adv-x="1574" d="M82 684q0 352 207 564t526 212q293 0 485.5 -202.5t192.5 -514.5q0 -342 -203 -555t-516 -213q-293 0 -492.5 197t-199.5 512zM377 739q0 -293 114.5 -472t299.5 -179q180 0 293.5 167t113.5 435q0 305 -112.5 480.5t-299 175.5t-298 -169.5t-111.5 -437.5zM530 1565 l291 321h228q29 0 35 -19.5t-23 -37.5l-490 -313l-39 22q-14 13 -2 27z" />
<glyph unicode="&#xd4;" horiz-adv-x="1574" d="M82 684q0 352 207 564t526 212q293 0 485.5 -202.5t192.5 -514.5q0 -342 -203 -555t-516 -213q-293 0 -492.5 197t-199.5 512zM377 739q0 -293 114.5 -472t299.5 -179q180 0 293.5 167t113.5 435q0 305 -112.5 480.5t-299 175.5t-298 -169.5t-111.5 -437.5zM471 1565 l248 307q20 25 49 24h45q33 0 51 -20l240 -311q14 -18 -2 -25l-49 -20l-269 182l-262 -182l-49 20q-16 7 -2 25z" />
<glyph unicode="&#xd5;" horiz-adv-x="1574" d="M82 684q0 352 207 564t526 212q293 0 485.5 -202.5t192.5 -514.5q0 -342 -203 -555t-516 -213q-293 0 -492.5 197t-199.5 512zM377 739q0 -293 114.5 -472t299.5 -179q180 0 293.5 167t113.5 435q0 305 -112.5 480.5t-299 175.5t-298 -169.5t-111.5 -437.5zM463 1550 q4 137 59.5 225.5t139.5 88.5q57 0 147 -62.5t129 -62.5q104 0 111 141l61 -8q-2 -139 -54 -224t-134 -85q-68 0 -152 60t-123 60q-115 0 -119 -149z" />
<glyph unicode="&#xd6;" horiz-adv-x="1574" d="M82 684q0 352 207 564t526 212q293 0 485.5 -202.5t192.5 -514.5q0 -342 -203 -555t-516 -213q-293 0 -492.5 197t-199.5 512zM377 739q0 -293 114.5 -472t299.5 -179q180 0 293.5 167t113.5 435q0 305 -112.5 480.5t-299 175.5t-298 -169.5t-111.5 -437.5zM434 1691.5 q0 53.5 37 90.5t90 37t91 -37t38 -90.5t-38 -92t-91 -38.5t-90 38.5t-37 92zM887 1692q0 53 37 90t92 37q53 0 89 -37t36 -90q0 -55 -36 -93t-89 -38q-55 0 -92 38t-37 93z" />
<glyph unicode="&#xd7;" d="M184 852l142 141l239 -239l238 237l143 -143l-237 -238l239 -239l-141 -142l-242 240l-235 -236l-142 142l236 235z" />
<glyph unicode="&#xd8;" horiz-adv-x="1574" d="M41 0l199 219q-158 190 -158 465q0 352 207 564t526 212q242 0 420 -143l108 119h183l-195 -215q162 -201 162 -478q0 -342 -203 -555t-516 -213q-256 0 -438 148l-111 -123h-184zM377 739q0 -178 45 -319l670 739q-111 186 -306 187q-186 0 -297.5 -169.5t-111.5 -437.5 zM481 283q113 -195 310 -195q180 0 293.5 167t113.5 435q0 190 -47 332z" />
<glyph unicode="&#xd9;" horiz-adv-x="1458" d="M55 1391l6 32q0 12 13 13h532q12 0 12 -13l7 -32q-102 -31 -126 -44.5t-24 -33.5v-860q0 -150 96.5 -233t227.5 -83q143 0 237 80t94 246v850q0 20 -23.5 33.5t-125.5 44.5l6 32q0 12 14 13h388q14 0 14 -13l6 -32q-102 -31 -125.5 -44.5t-23.5 -33.5v-897 q0 -209 -157 -325t-372 -116q-213 0 -369.5 116t-156.5 325v897q0 20 -24 33.5t-126 44.5zM390 1862.5q5 19.5 36 19.5h227l289 -321q18 -14 -2 -25l-37 -23l-489 312q-29 18 -24 37.5z" />
<glyph unicode="&#xda;" horiz-adv-x="1458" d="M55 1391l6 32q0 12 13 13h532q12 0 12 -13l7 -32q-102 -31 -126 -44.5t-24 -33.5v-860q0 -150 96.5 -233t227.5 -83q143 0 237 80t94 246v850q0 20 -23.5 33.5t-125.5 44.5l6 32q0 12 14 13h388q14 0 14 -13l6 -32q-102 -31 -125.5 -44.5t-23.5 -33.5v-897 q0 -209 -157 -325t-372 -116q-213 0 -369.5 116t-156.5 325v897q0 20 -24 33.5t-126 44.5zM569 1565l291 321h227q29 0 35 -19.5t-22 -37.5l-490 -313l-39 22q-14 13 -2 27z" />
<glyph unicode="&#xdb;" horiz-adv-x="1458" d="M55 1391l6 32q0 12 13 13h532q12 0 12 -13l7 -32q-102 -31 -126 -44.5t-24 -33.5v-860q0 -150 96.5 -233t227.5 -83q143 0 237 80t94 246v850q0 20 -23.5 33.5t-125.5 44.5l6 32q0 12 14 13h388q14 0 14 -13l6 -32q-102 -31 -125.5 -44.5t-23.5 -33.5v-897 q0 -209 -157 -325t-372 -116q-213 0 -369.5 116t-156.5 325v897q0 20 -24 33.5t-126 44.5zM465 1565l248 307q20 25 49 24h45q33 0 51 -20l240 -311q14 -18 -2 -25l-49 -20l-269 182l-262 -182l-49 20q-16 7 -2 25z" />
<glyph unicode="&#xdc;" horiz-adv-x="1458" d="M55 1391l6 32q0 12 13 13h532q12 0 12 -13l7 -32q-102 -31 -126 -44.5t-24 -33.5v-860q0 -150 96.5 -233t227.5 -83q143 0 237 80t94 246v850q0 20 -23.5 33.5t-125.5 44.5l6 32q0 12 14 13h388q14 0 14 -13l6 -32q-102 -31 -125.5 -44.5t-23.5 -33.5v-897 q0 -209 -157 -325t-372 -116q-213 0 -369.5 116t-156.5 325v897q0 20 -24 33.5t-126 44.5zM403 1691.5q0 53.5 37 90.5t90.5 37t91 -37t37.5 -90.5t-37.5 -92t-91 -38.5t-90.5 38.5t-37 92zM856 1692q0 53 37 90t92 37q53 0 89 -37t36 -90q0 -55 -36 -93t-89 -38 q-55 0 -92 38t-37 93z" />
<glyph unicode="&#xdd;" horiz-adv-x="1312" d="M-92 1391l4 32q4 12 14 13h578q6 0 10 -13l6 -32q-66 -14 -99.5 -24.5t-40.5 -18t-7 -17.5q0 -12 14 -28q238 -301 350 -496l172 252q133 199 133 250q0 29 -23.5 45t-109.5 37l6 32q4 12 13 13h450q10 0 15 -13l6 -32q-94 -18 -142 -54q-72 -59 -184 -227l-272 -391 v-590q0 -25 23.5 -39t125.5 -45l-6 -33q0 -12 -10 -12h-533q-14 0 -14 12l-6 33q102 31 125.5 45t23.5 39v502q-201 336 -485 686q-20 29 -42.5 42.5t-94.5 31.5zM514 1565l291 321h227q29 0 35 -19.5t-23 -37.5l-489 -313l-39 22q-14 13 -2 27z" />
<glyph unicode="&#xde;" horiz-adv-x="1236" d="M61 45q102 31 126 45t24 39v1180q0 23 -23.5 37t-126.5 45l7 32q0 12 12 13h532q12 0 13 -13l6 -32q-102 -31 -126 -45.5t-24 -36.5v-164h178q248 0 388.5 -121t140.5 -299q0 -186 -122 -300t-357 -114q-102 0 -228 25v-207q0 -25 23.5 -39t126.5 -45l-6 -33 q0 -12 -11 -12h-532q-14 0 -14 12zM481 424q51 -6 92 -6q156 0 242 75.5t86 223.5q0 145 -70.5 234t-205.5 93l-144 5v-625z" />
<glyph unicode="&#xdf;" horiz-adv-x="1259" d="M33 45q100 31 123.5 44t23.5 34v829q0 229 153.5 368.5t405.5 139.5q154 0 239 -76.5t85 -195.5q0 -123 -109 -234q-156 0 -155 -129q0 -49 41 -96t98 -88t115.5 -87t99.5 -113.5t41 -147.5q0 -156 -97.5 -237t-232.5 -81q-106 0 -196 41t-138 117q-6 10 -6 12t6 15 l33 47q102 -113 240 -113q72 0 113.5 35t41.5 98q0 53 -38.5 99.5t-94 85.5t-112 81t-95 105.5t-38.5 140.5q0 119 78.5 202t195.5 83q10 47 10 80q0 115 -53 176t-152 61q-231 0 -231 -288v-1053h-377q-14 0 -14 12z" />
<glyph unicode="&#xe0;" horiz-adv-x="1067" d="M68 227q0 68 34.5 128.5t80.5 100.5t121 78.5t126 58t128 45.5t97 34v59q0 104 -50 167t-150 63q-53 0 -101 -17q10 -31 11 -51q0 -59 -40 -93t-94 -34q-51 0 -89 36t-40 105q72 66 201 114t268 48q174 0 247 -82t73 -254v-573q0 -53 22.5 -69.5t122.5 -45.5l-8 -33 q-2 -12 -14 -12h-303q-23 0 -27 25q-16 94 -16 196q-88 -246 -330 -246q-123 0 -196.5 65.5t-73.5 186.5zM165 1498.5q5 19.5 36 19.5h227l289 -322q14 -14 -2 -27l-37 -22l-490 313q-28 19 -23 38.5zM307 297q0 -68 40 -103.5t99 -35.5q135 0 179 131q31 90 30 301 q-186 -68 -267 -132.5t-81 -160.5z" />
<glyph unicode="&#xe1;" horiz-adv-x="1067" d="M68 227q0 68 34.5 128.5t80.5 100.5t121 78.5t126 58t128 45.5t97 34v59q0 104 -50 167t-150 63q-53 0 -101 -17q10 -31 11 -51q0 -59 -40 -93t-94 -34q-51 0 -89 36t-40 105q72 66 201 114t268 48q174 0 247 -82t73 -254v-573q0 -53 22.5 -69.5t122.5 -45.5l-8 -33 q-2 -12 -14 -12h-303q-23 0 -27 25q-16 94 -16 196q-88 -246 -330 -246q-123 0 -196.5 65.5t-73.5 186.5zM307 297q0 -68 40 -103.5t99 -35.5q135 0 179 131q31 90 30 301q-186 -68 -267 -132.5t-81 -160.5zM309 1196l291 322h227q29 0 35 -19.5t-22 -38.5l-490 -313l-39 22 q-14 13 -2 27z" />
<glyph unicode="&#xe2;" horiz-adv-x="1067" d="M68 227q0 68 34.5 128.5t80.5 100.5t121 78.5t126 58t128 45.5t97 34v59q0 104 -50 167t-150 63q-53 0 -101 -17q10 -31 11 -51q0 -59 -40 -93t-94 -34q-51 0 -89 36t-40 105q72 66 201 114t268 48q174 0 247 -82t73 -254v-573q0 -53 22.5 -69.5t122.5 -45.5l-8 -33 q-2 -12 -14 -12h-303q-23 0 -27 25q-16 94 -16 196q-88 -246 -330 -246q-123 0 -196.5 65.5t-73.5 186.5zM207 1200l248 307q20 25 49 25h45q33 0 51 -21l240 -311q12 -20 -2 -26l-50 -19l-268 182l-262 -182l-49 19q-14 6 -2 26zM307 297q0 -68 40 -103.5t99 -35.5 q135 0 179 131q31 90 30 301q-186 -68 -267 -132.5t-81 -160.5z" />
<glyph unicode="&#xe3;" horiz-adv-x="1067" d="M68 227q0 68 34.5 128.5t80.5 100.5t121 78.5t126 58t128 45.5t97 34v59q0 104 -50 167t-150 63q-53 0 -101 -17q10 -31 11 -51q0 -59 -40 -93t-94 -34q-51 0 -89 36t-40 105q72 66 201 114t268 48q174 0 247 -82t73 -254v-573q0 -53 22.5 -69.5t122.5 -45.5l-8 -33 q-2 -12 -14 -12h-303q-23 0 -27 25q-16 94 -16 196q-88 -246 -330 -246q-123 0 -196.5 65.5t-73.5 186.5zM195 1184q4 137 59 226t139 89q57 0 147.5 -62.5t129.5 -62.5q104 0 110 142l62 -9q-2 -139 -53.5 -224t-135.5 -85q-68 0 -151.5 60.5t-122.5 60.5q-115 0 -119 -152 zM307 297q0 -68 40 -103.5t99 -35.5q135 0 179 131q31 90 30 301q-186 -68 -267 -132.5t-81 -160.5z" />
<glyph unicode="&#xe4;" horiz-adv-x="1067" d="M68 227q0 68 34.5 128.5t80.5 100.5t121 78.5t126 58t128 45.5t97 34v59q0 104 -50 167t-150 63q-53 0 -101 -17q10 -31 11 -51q0 -59 -40 -93t-94 -34q-51 0 -89 36t-40 105q72 66 201 114t268 48q174 0 247 -82t73 -254v-573q0 -53 22.5 -69.5t122.5 -45.5l-8 -33 q-2 -12 -14 -12h-303q-23 0 -27 25q-16 94 -16 196q-88 -246 -330 -246q-123 0 -196.5 65.5t-73.5 186.5zM164 1329q0 53 37 90t90 37t91 -37t38 -90t-38 -92t-91 -39t-90 39t-37 92zM307 297q0 -68 40 -103.5t99 -35.5q135 0 179 131q31 90 30 301q-186 -68 -267 -132.5 t-81 -160.5zM616 1329q0 53 37 90t92 37q53 0 89 -37t36 -90q0 -55 -35.5 -93t-89.5 -38q-55 0 -92 38t-37 93z" />
<glyph unicode="&#xe5;" horiz-adv-x="1067" d="M68 227q0 68 34.5 128.5t80.5 100.5t121 78.5t126 58t128 45.5t97 34v59q0 104 -50 167t-150 63q-53 0 -101 -17q10 -31 11 -51q0 -59 -40 -93t-94 -34q-51 0 -89 36t-40 105q72 66 201 114t268 48q174 0 247 -82t73 -254v-573q0 -53 22.5 -69.5t122.5 -45.5l-8 -33 q-2 -12 -14 -12h-303q-23 0 -27 25q-16 94 -16 196q-88 -246 -330 -246q-123 0 -196.5 65.5t-73.5 186.5zM303 1391q0 92 64.5 154.5t164.5 62.5q106 0 169 -58.5t63 -158.5q0 -94 -64.5 -153.5t-167.5 -59.5q-98 0 -163.5 58.5t-65.5 154.5zM307 297q0 -68 40 -103.5 t99 -35.5q135 0 179 131q31 90 30 301q-186 -68 -267 -132.5t-81 -160.5zM434 1391q0 -51 32 -86t75 -35q45 0 75.5 34.5t30.5 86.5q0 55 -30.5 90t-75.5 35q-43 0 -75 -36t-32 -89z" />
<glyph unicode="&#xe6;" horiz-adv-x="1593" d="M68 227q0 168 158.5 272.5t428.5 147.5v84q0 104 -50 167t-150 63q-45 0 -101 -17q10 -31 11 -51q0 -59 -40 -93t-94 -34q-51 0 -89 36t-40 105q72 66 201 114t268 48q115 0 177.5 -38t89.5 -118q139 156 364 156q160 0 246 -88t86 -221q0 -106 -43 -195q-264 29 -498 29 q-18 0 -54 -1t-52 -1q0 -6 -1 -18.5t-1 -20.5q0 -186 93 -300t251 -114q129 0 233 72l29 -39q6 -6 6 -14q0 -6 -6 -13q-57 -78 -154.5 -124t-212.5 -46q-324 0 -409 310q-111 -309 -377 -310q-123 0 -196.5 65.5t-73.5 186.5zM307 299q0 -68 40 -103.5t99 -35.5 q133 0 179 129q31 82 30 282q-348 -55 -348 -272zM895 670q109 10 199 10q20 0 131 -4q51 0 71.5 27.5t20.5 89.5q0 76 -39 126t-119 50q-100 0 -172 -78t-92 -221z" />
<glyph unicode="&#xe7;" horiz-adv-x="978" d="M70 471q0 240 152.5 419t395.5 179q111 0 200 -40t136 -103q-2 -80 -49 -124t-108 -44q-53 0 -89 31.5t-36 89.5q0 35 18 82q-37 10 -72 10q-137 0 -215.5 -111.5t-78.5 -286.5q0 -197 98 -315.5t246 -118.5q133 0 229 97l31 -37q8 -8 8 -15q0 -4 -6 -12 q-113 -170 -309 -192l-60 -89q106 0 162.5 -47t56.5 -125q0 -88 -78.5 -146t-226.5 -58q-86 0 -145 30q-18 8 -11 29l17 43q57 -23 135 -23q57 0 95 24t38 65q0 90 -180 90q-29 0 -29 18l92 191q-193 25 -305 162t-112 327z" />
<glyph unicode="&#xe8;" horiz-adv-x="1024" d="M70 483q0 236 157.5 411t399.5 175q162 0 251 -88t89 -238q0 -80 -25 -168h-620q0 -53 4 -75q10 -162 98 -261.5t231 -99.5q131 0 238 72l29 -39q8 -8 8 -14t-6 -13q-129 -170 -373 -170q-227 0 -354 141.5t-127 366.5zM238.5 1498.5q5.5 19.5 35.5 19.5h228l289 -322 q14 -14 -3 -27l-36 -22l-490 313q-29 19 -23.5 38.5zM326 653l313 19q59 4 81.5 32.5t22.5 88.5q0 176 -157 176q-109 0 -177.5 -92.5t-82.5 -223.5z" />
<glyph unicode="&#xe9;" horiz-adv-x="1024" d="M70 483q0 236 157.5 411t399.5 175q162 0 251 -88t89 -238q0 -80 -25 -168h-620q0 -53 4 -75q10 -162 98 -261.5t231 -99.5q131 0 238 72l29 -39q8 -8 8 -14t-6 -13q-129 -170 -373 -170q-227 0 -354 141.5t-127 366.5zM326 653l313 19q59 4 81.5 32.5t22.5 88.5 q0 176 -157 176q-109 0 -177.5 -92.5t-82.5 -223.5zM389 1196l291 322h227q29 0 35 -19.5t-22 -38.5l-490 -313l-39 22q-14 13 -2 27z" />
<glyph unicode="&#xea;" horiz-adv-x="1024" d="M70 483q0 236 157.5 411t399.5 175q162 0 251 -88t89 -238q0 -80 -25 -168h-620q0 -53 4 -75q10 -162 98 -261.5t231 -99.5q131 0 238 72l29 -39q8 -8 8 -14t-6 -13q-129 -170 -373 -170q-227 0 -354 141.5t-127 366.5zM279 1200l247 307q20 25 49 25h46q33 0 51 -21 l239 -311q12 -20 -2 -26l-49 -19l-268 182l-262 -182l-49 19q-14 6 -2 26zM326 653l313 19q59 4 81.5 32.5t22.5 88.5q0 176 -157 176q-109 0 -177.5 -92.5t-82.5 -223.5z" />
<glyph unicode="&#xeb;" horiz-adv-x="1024" d="M70 483q0 236 157.5 411t399.5 175q162 0 251 -88t89 -238q0 -80 -25 -168h-620q0 -53 4 -75q10 -162 98 -261.5t231 -99.5q131 0 238 72l29 -39q8 -8 8 -14t-6 -13q-129 -170 -373 -170q-227 0 -354 141.5t-127 366.5zM211 1329q0 53 37 90t90 37t91 -37t38 -90t-38 -92 t-91 -39t-90 39t-37 92zM326 653l313 19q59 4 81.5 32.5t22.5 88.5q0 176 -157 176q-109 0 -177.5 -92.5t-82.5 -223.5zM664 1329q0 53 36.5 90t92.5 37q53 0 89 -37t36 -90q0 -55 -36 -93t-89 -38q-55 0 -92 38t-37 93z" />
<glyph unicode="&#xec;" horiz-adv-x="630" d="M-36 1498.5q5 19.5 36 19.5h227l289 -322q14 -14 -2 -27l-37 -22l-489 313q-29 19 -24 38.5zM49 45q102 31 126 44t24 34v696q0 59 -26 84t-101 39l6 31q0 14 12 16l338 78q18 4 18 -10v-934q0 -20 24 -33.5t126 -44.5l-6 -33q0 -12 -10 -12h-510q-14 0 -15 12z" />
<glyph unicode="&#xed;" horiz-adv-x="630" d="M49 45q102 31 126 44t24 34v696q0 59 -26 84t-101 39l6 31q0 14 12 16l338 78q18 4 18 -10v-934q0 -20 24 -33.5t126 -44.5l-6 -33q0 -12 -10 -12h-510q-14 0 -15 12zM109 1196l290 322h228q29 0 35 -19.5t-23 -38.5l-489 -313l-39 22q-14 13 -2 27z" />
<glyph unicode="&#xee;" horiz-adv-x="630" d="M-20 1200l247 307q20 25 49 25h46q33 0 51 -21l239 -311q12 -20 -2 -26l-49 -19l-268 182l-262 -182l-49 19q-14 6 -2 26zM49 45q102 31 126 44t24 34v696q0 59 -26 84t-101 39l6 31q0 14 12 16l338 78q18 4 18 -10v-934q0 -20 24 -33.5t126 -44.5l-6 -33q0 -12 -10 -12 h-510q-14 0 -15 12z" />
<glyph unicode="&#xef;" horiz-adv-x="630" d="M-47 1329q0 53 37 90t90 37t91 -37t38 -90t-38 -92t-91 -39t-90 39t-37 92zM49 45q102 31 126 44t24 34v696q0 59 -26 84t-101 39l6 31q0 14 12 16l338 78q18 4 18 -10v-934q0 -20 24 -33.5t126 -44.5l-6 -33q0 -12 -10 -12h-510q-14 0 -15 12zM406 1329q0 53 36.5 90 t92.5 37q53 0 88.5 -37t35.5 -90q0 -55 -35.5 -93t-88.5 -38q-55 0 -92 38t-37 93z" />
<glyph unicode="&#xf0;" horiz-adv-x="1122" d="M72 494q0 188 109.5 307t303.5 119q168 0 295 -111q-12 213 -118 362l-279 -161l-45 112q0 12 2 15l229 131q-115 92 -260 92q-68 0 -151 -27l-13 58q0 23 15 28q72 41 194 41q195 0 359 -108h2l223 129l41 -115q2 -2 1 -6t-3 -6l-158 -92q236 -246 236 -644 q0 -289 -131 -466t-351 -177q-225 0 -363 154t-138 365zM332 422q0 -154 53 -244t150 -90q109 0 178 124t69 380q0 84 -53 144.5t-166 60.5q-100 0 -165.5 -101.5t-65.5 -273.5z" />
<glyph unicode="&#xf1;" horiz-adv-x="1318" d="M49 45q102 31 126 44t24 34v573q0 150 -23.5 193t-107.5 53l4 31q0 14 12 16l295 80q14 4 18 -10q27 -117 27 -252q203 262 422 262q147 0 217 -87t70 -280v-573q0 -25 23.5 -39t125.5 -45l-6 -33q0 -12 -10 -12h-510q-14 0 -15 12l-6 33q102 31 126 45t24 39v502 q0 145 -41 201.5t-137 56.5q-109 0 -185 -83t-76 -231v-450q0 -23 24 -36t126 -44l-6 -33q0 -12 -10 -12h-510q-14 0 -15 12zM365 1184q4 137 59 226t139 89q57 0 147.5 -62.5t129.5 -62.5q104 0 110 142l62 -9q-2 -139 -53.5 -224t-135.5 -85q-68 0 -151.5 60.5 t-122.5 60.5q-115 0 -119 -152z" />
<glyph unicode="&#xf2;" horiz-adv-x="1175" d="M72 485q0 254 160.5 419t385.5 165q215 0 350.5 -141.5t135.5 -374.5q0 -244 -153.5 -411t-383.5 -167q-215 0 -355 138.5t-140 371.5zM288 1498.5q5 19.5 36 19.5h227l289 -322q14 -14 -2 -27l-37 -22l-490 313q-28 19 -23 38.5zM334 553q0 -207 69.5 -339t188.5 -132 q117 0 182.5 109.5t65.5 295.5q0 213 -70 342t-186 129q-119 0 -184.5 -109.5t-65.5 -295.5z" />
<glyph unicode="&#xf3;" horiz-adv-x="1175" d="M72 485q0 254 160.5 419t385.5 165q215 0 350.5 -141.5t135.5 -374.5q0 -244 -153.5 -411t-383.5 -167q-215 0 -355 138.5t-140 371.5zM334 553q0 -207 69.5 -339t188.5 -132q117 0 182.5 109.5t65.5 295.5q0 213 -70 342t-186 129q-119 0 -184.5 -109.5t-65.5 -295.5z M389 1196l291 322h227q29 0 35 -19.5t-22 -38.5l-490 -313l-39 22q-14 13 -2 27z" />
<glyph unicode="&#xf4;" horiz-adv-x="1175" d="M72 485q0 254 160.5 419t385.5 165q215 0 350.5 -141.5t135.5 -374.5q0 -244 -153.5 -411t-383.5 -167q-215 0 -355 138.5t-140 371.5zM283 1200l247 307q20 25 50 25h45q33 0 51 -21l239 -311q12 -20 -2 -26l-49 -19l-268 182l-262 -182l-49 19q-14 6 -2 26zM334 553 q0 -207 69.5 -339t188.5 -132q117 0 182.5 109.5t65.5 295.5q0 213 -70 342t-186 129q-119 0 -184.5 -109.5t-65.5 -295.5z" />
<glyph unicode="&#xf5;" horiz-adv-x="1175" d="M72 485q0 254 160.5 419t385.5 165q215 0 350.5 -141.5t135.5 -374.5q0 -244 -153.5 -411t-383.5 -167q-215 0 -355 138.5t-140 371.5zM264 1184q4 137 59.5 226t139.5 89q57 0 147 -62.5t129 -62.5q104 0 111 142l61 -9q-2 -139 -53 -224t-135 -85q-68 0 -152 60.5 t-122 60.5q-115 0 -119 -152zM334 553q0 -207 69.5 -339t188.5 -132q117 0 182.5 109.5t65.5 295.5q0 213 -70 342t-186 129q-119 0 -184.5 -109.5t-65.5 -295.5z" />
<glyph unicode="&#xf6;" horiz-adv-x="1175" d="M72 485q0 254 160.5 419t385.5 165q215 0 350.5 -141.5t135.5 -374.5q0 -244 -153.5 -411t-383.5 -167q-215 0 -355 138.5t-140 371.5zM244 1329q0 53 36.5 90t90 37t91.5 -37t38 -90t-38 -92t-91.5 -39t-90 39t-36.5 92zM334 553q0 -207 69.5 -339t188.5 -132 q117 0 182.5 109.5t65.5 295.5q0 213 -70 342t-186 129q-119 0 -184.5 -109.5t-65.5 -295.5zM696 1329q0 53 37 90t92 37q53 0 89 -37t36 -90q0 -55 -35.5 -93t-89.5 -38q-55 0 -92 38t-37 93z" />
<glyph unicode="&#xf7;" d="M119 524v178h895v-178h-895zM416 238q0 63 44 107t107.5 44t106.5 -44t43 -107q0 -61 -43 -105.5t-106.5 -44.5t-107.5 44.5t-44 105.5zM416 989q0 63 44 107.5t107.5 44.5t106.5 -44t43 -108q0 -61 -44 -106t-106 -45q-63 0 -107 45t-44 106z" />
<glyph unicode="&#xf8;" horiz-adv-x="1175" d="M27 0l145 160q-100 137 -100 325q0 254 160.5 419t385.5 165q168 0 297 -94l62 69h174l-147 -159q100 -141 100 -332q0 -244 -153.5 -411t-383.5 -167q-174 0 -303 95l-63 -70h-174zM332 553q0 -98 20 -195l424 465q-72 135 -192 135q-119 0 -185.5 -110.5t-66.5 -294.5z M399 219q72 -137 193 -137q117 0 184.5 110.5t67.5 294.5q0 115 -21 197z" />
<glyph unicode="&#xf9;" horiz-adv-x="1288" d="M35 999l6 33q0 12 10 12h375q14 0 14 -16q0 -8 -2 -50t-4 -112.5t-2 -150.5v-301q0 -143 37 -200.5t137 -57.5q109 0 183.5 80.5t74.5 214.5v469q0 23 -23.5 36t-125.5 43l6 33q0 12 10 12h373q14 0 14 -16q0 -8 -2 -50t-4 -112.5t-2 -150.5v-473q0 -113 20.5 -144.5 t106.5 -52.5l-6 -31q0 -14 -12 -14h-285q-16 0 -21 14q-23 109 -22 228q-61 -104 -176 -185.5t-238 -81.5q-154 0 -223.5 86t-69.5 281v573q0 25 -23.5 39t-125.5 45zM294 1498.5q5 19.5 36 19.5h227l289 -322q14 -14 -2 -27l-37 -22l-490 313q-28 19 -23 38.5z" />
<glyph unicode="&#xfa;" horiz-adv-x="1288" d="M35 999l6 33q0 12 10 12h375q14 0 14 -16q0 -8 -2 -50t-4 -112.5t-2 -150.5v-301q0 -143 37 -200.5t137 -57.5q109 0 183.5 80.5t74.5 214.5v469q0 23 -23.5 36t-125.5 43l6 33q0 12 10 12h373q14 0 14 -16q0 -8 -2 -50t-4 -112.5t-2 -150.5v-473q0 -113 20.5 -144.5 t106.5 -52.5l-6 -31q0 -14 -12 -14h-285q-16 0 -21 14q-23 109 -22 228q-61 -104 -176 -185.5t-238 -81.5q-154 0 -223.5 86t-69.5 281v573q0 25 -23.5 39t-125.5 45zM449 1196l290 322h228q29 0 35 -19.5t-23 -38.5l-490 -313l-38 22q-14 13 -2 27z" />
<glyph unicode="&#xfb;" horiz-adv-x="1288" d="M35 999l6 33q0 12 10 12h375q14 0 14 -16q0 -8 -2 -50t-4 -112.5t-2 -150.5v-301q0 -143 37 -200.5t137 -57.5q109 0 183.5 80.5t74.5 214.5v469q0 23 -23.5 36t-125.5 43l6 33q0 12 10 12h373q14 0 14 -16q0 -8 -2 -50t-4 -112.5t-2 -150.5v-473q0 -113 20.5 -144.5 t106.5 -52.5l-6 -31q0 -14 -12 -14h-285q-16 0 -21 14q-23 109 -22 228q-61 -104 -176 -185.5t-238 -81.5q-154 0 -223.5 86t-69.5 281v573q0 25 -23.5 39t-125.5 45zM317 1200l248 307q20 25 49 25h45q33 0 52 -21l239 -311q12 -20 -2 -26l-49 -19l-268 182l-262 -182 l-50 19q-14 6 -2 26z" />
<glyph unicode="&#xfc;" horiz-adv-x="1288" d="M35 999l6 33q0 12 10 12h375q14 0 14 -16q0 -8 -2 -50t-4 -112.5t-2 -150.5v-301q0 -143 37 -200.5t137 -57.5q109 0 183.5 80.5t74.5 214.5v469q0 23 -23.5 36t-125.5 43l6 33q0 12 10 12h373q14 0 14 -16q0 -8 -2 -50t-4 -112.5t-2 -150.5v-473q0 -113 20.5 -144.5 t106.5 -52.5l-6 -31q0 -14 -12 -14h-285q-16 0 -21 14q-23 109 -22 228q-61 -104 -176 -185.5t-238 -81.5q-154 0 -223.5 86t-69.5 281v573q0 25 -23.5 39t-125.5 45zM283 1329q0 53 36.5 90t90 37t91.5 -37t38 -90t-38 -92t-91.5 -39t-90 39t-36.5 92zM735 1329q0 53 37 90 t92 37q53 0 89 -37t36 -90q0 -55 -35.5 -93t-89.5 -38q-55 0 -92 38t-37 93z" />
<glyph unicode="&#xfd;" horiz-adv-x="1028" d="M-102 -319q-10 12 2 28l24 33q82 -53 178 -53q106 0 191.5 63.5t150.5 257.5q-113 332 -354 916q-18 41 -135 73l4 33q4 12 14 12h512q8 0 13 -12l6 -33q-147 -29 -148 -57q0 -4 4 -20q127 -309 232 -635q215 543 215 633q0 27 -22.5 45t-104.5 34l6 33q0 12 10 12h373 q10 0 14 -12l7 -33q-80 -18 -113 -53t-78 -135q-49 -113 -209 -518.5t-211 -528.5q-53 -133 -130 -188t-193 -55q-158 0 -258 160zM383 1196l291 322h227q29 0 35 -19.5t-23 -38.5l-489 -313l-39 22q-14 13 -2 27z" />
<glyph unicode="&#xfe;" horiz-adv-x="1273" d="M31 1436l4 34q0 12 12 17l371 80q18 4 18 -11v-342q0 -258 -16 -405q33 104 137.5 182t228.5 78q186 0 296 -132t110 -355q0 -270 -147.5 -438.5t-366.5 -168.5q-162 0 -242 95v-398q0 -16 9.5 -24t52.5 -21.5t139 -34.5l-6 -32q0 -12 -10 -13h-562q-14 0 -14 13l-6 32 q102 31 125.5 44.5t23.5 35.5v1643q0 57 -30.5 83t-126.5 38zM428 471q0 -211 61.5 -305t184.5 -94t194.5 107.5t71.5 305.5q0 190 -62.5 297t-185.5 107q-264 0 -264 -418z" />
<glyph unicode="&#xff;" horiz-adv-x="1028" d="M-102 -319q-10 12 2 28l24 33q82 -53 178 -53q106 0 191.5 63.5t150.5 257.5q-113 332 -354 916q-18 41 -135 73l4 33q4 12 14 12h512q8 0 13 -12l6 -33q-147 -29 -148 -57q0 -4 4 -20q127 -309 232 -635q215 543 215 633q0 27 -22.5 45t-104.5 34l6 33q0 12 10 12h373 q10 0 14 -12l7 -33q-80 -18 -113 -53t-78 -135q-49 -113 -209 -518.5t-211 -528.5q-53 -133 -130 -188t-193 -55q-158 0 -258 160zM217 1329q0 53 37 90t90 37t91 -37t38 -90t-38 -92t-91 -39t-90 39t-37 92zM670 1329q0 53 36.5 90t92.5 37q53 0 89 -37t36 -90 q0 -55 -36 -93t-89 -38q-55 0 -92 38t-37 93z" />
<glyph unicode="&#x100;" horiz-adv-x="1310" d="M-55 45q82 23 116.5 56.5t69.5 111.5q63 147 225 572t262 667h111q250 -754 494 -1335q10 -20 31.5 -31.5t105.5 -40.5l-6 -33q-4 -12 -15 -12h-534q-6 0 -10 12l-7 33q152 33 152 57q0 12 -6 23q-86 205 -127 315h-457q-90 -270 -90 -317q0 -27 23.5 -41t107.5 -37 l-6 -33q-4 -12 -12 -12h-408q-10 0 -14 12zM381 535h389q-113 309 -192 561q-95 -258 -197 -561zM391 1599v144h533v-144h-533z" />
<glyph unicode="&#x101;" horiz-adv-x="1067" d="M68 227q0 68 34.5 128.5t80.5 100.5t121 78.5t126 58t128 45.5t97 34v59q0 104 -50 167t-150 63q-53 0 -101 -17q10 -31 11 -51q0 -59 -40 -93t-94 -34q-51 0 -89 36t-40 105q72 66 201 114t268 48q174 0 247 -82t73 -254v-573q0 -53 22.5 -69.5t122.5 -45.5l-8 -33 q-2 -12 -14 -12h-303q-23 0 -27 25q-16 94 -16 196q-88 -246 -330 -246q-123 0 -196.5 65.5t-73.5 186.5zM274 1257v146h533v-146h-533zM307 297q0 -68 40 -103.5t99 -35.5q135 0 179 131q31 90 30 301q-186 -68 -267 -132.5t-81 -160.5z" />
<glyph unicode="&#x102;" horiz-adv-x="1310" d="M-55 45q82 23 116.5 56.5t69.5 111.5q63 147 225 572t262 667h111q250 -754 494 -1335q10 -20 31.5 -31.5t105.5 -40.5l-6 -33q-4 -12 -15 -12h-534q-6 0 -10 12l-7 33q152 33 152 57q0 12 -6 23q-86 205 -127 315h-457q-90 -270 -90 -317q0 -27 23.5 -41t107.5 -37 l-6 -33q-4 -12 -12 -12h-408q-10 0 -14 12zM381 535h389q-113 309 -192 561q-95 -258 -197 -561zM436 1851h82q0 -74 47 -112.5t115 -38.5q63 0 107 38t44 113h82q0 -152 -66.5 -227.5t-180.5 -75.5q-111 0 -170.5 75.5t-59.5 227.5z" />
<glyph unicode="&#x103;" horiz-adv-x="1067" d="M68 227q0 68 34.5 128.5t80.5 100.5t121 78.5t126 58t128 45.5t97 34v59q0 104 -50 167t-150 63q-53 0 -101 -17q10 -31 11 -51q0 -59 -40 -93t-94 -34q-51 0 -89 36t-40 105q72 66 201 114t268 48q174 0 247 -82t73 -254v-573q0 -53 22.5 -69.5t122.5 -45.5l-8 -33 q-2 -12 -14 -12h-303q-23 0 -27 25q-16 94 -16 196q-88 -246 -330 -246q-123 0 -196.5 65.5t-73.5 186.5zM274 1468h82q0 -76 47.5 -114.5t114.5 -38.5q63 0 107.5 38t44.5 115h82q0 -152 -67 -227.5t-181 -75.5q-230 0 -230 303zM307 297q0 -68 40 -103.5t99 -35.5 q135 0 179 131q31 90 30 301q-186 -68 -267 -132.5t-81 -160.5z" />
<glyph unicode="&#x104;" horiz-adv-x="1310" d="M-55 45q82 23 116.5 56.5t69.5 111.5q63 147 225 572t262 667h111q250 -754 494 -1335q10 -20 31.5 -31.5t105.5 -40.5l-6 -33q-4 -12 -15 -12h-110q-88 -45 -135 -113.5t-47 -138.5q0 -131 143 -131q59 0 121 16l10 -47q6 -29 -12 -35q-88 -31 -199 -30q-252 0 -252 182 q0 92 66.5 170t195.5 127h-315q-6 0 -10 12l-7 33q152 33 152 57q0 12 -6 23q-86 205 -127 315h-457q-90 -270 -90 -317q0 -27 23.5 -41t107.5 -37l-6 -33q-4 -12 -12 -12h-408q-10 0 -14 12zM381 535h389q-113 309 -192 561q-95 -258 -197 -561z" />
<glyph unicode="&#x105;" horiz-adv-x="1067" d="M68 227q0 68 34.5 128.5t80.5 100.5t121 78.5t126 58t128 45.5t97 34v59q0 104 -50 167t-150 63q-53 0 -101 -17q10 -31 11 -51q0 -59 -40 -93t-94 -34q-51 0 -89 36t-40 105q72 66 201 114t268 48q174 0 247 -82t73 -254v-573q0 -53 22.5 -69.5t122.5 -45.5l-8 -33 q-2 -12 -14 -12h-82q-88 -45 -135 -113.5t-47 -138.5q0 -131 143 -131q59 0 121 16l10 -47q6 -29 -12 -35q-88 -31 -199 -30q-252 0 -252 182q0 92 66.5 170t195.5 127h-112q-23 0 -27 25q-16 94 -16 196q-88 -246 -330 -246q-123 0 -196.5 65.5t-73.5 186.5zM307 297 q0 -68 40 -103.5t99 -35.5q135 0 179 131q31 90 30 301q-186 -68 -267 -132.5t-81 -160.5z" />
<glyph unicode="&#x106;" horiz-adv-x="1294" d="M80 645q0 152 51 295t144.5 260t242 188.5t326.5 71.5q199 0 334 -63v-346q0 -12 -15 -23l-45 -6q-14 145 -89 230t-210 85q-215 0 -338 -177t-123 -421q0 -252 128 -412.5t364 -160.5q227 0 342 147l33 -32q8 -16 8 -23q0 -10 -4 -16q-76 -125 -205 -196t-303 -71 q-203 0 -352.5 96.5t-219 246t-69.5 327.5zM565 1565l291 321h227q29 0 35 -19.5t-22 -37.5l-490 -313l-39 22q-14 13 -2 27z" />
<glyph unicode="&#x107;" horiz-adv-x="978" d="M70 471q0 240 152.5 419t395.5 179q111 0 200 -40t136 -103q-2 -80 -49 -124t-108 -44q-53 0 -89 31.5t-36 89.5q0 35 18 82q-37 10 -72 10q-137 0 -215.5 -111.5t-78.5 -286.5q0 -197 98 -315.5t246 -118.5q133 0 229 97l31 -37q8 -8 8 -15q0 -4 -6 -12 q-59 -88 -153.5 -142.5t-211.5 -54.5q-225 0 -360 143.5t-135 352.5zM385 1196l291 322h227q29 0 35 -19.5t-23 -38.5l-489 -313l-39 22q-14 13 -2 27z" />
<glyph unicode="&#x108;" horiz-adv-x="1294" d="M80 645q0 152 51 295t144.5 260t242 188.5t326.5 71.5q199 0 334 -63v-346q0 -12 -15 -23l-45 -6q-14 145 -89 230t-210 85q-215 0 -338 -177t-123 -421q0 -252 128 -412.5t364 -160.5q227 0 342 147l33 -32q8 -16 8 -23q0 -10 -4 -16q-76 -125 -205 -196t-303 -71 q-203 0 -352.5 96.5t-219 246t-69.5 327.5zM492 1565l247 307q20 25 49 24h46q33 0 51 -20l239 -311q14 -18 -2 -25l-49 -20l-268 182l-262 -182l-49 20q-16 7 -2 25z" />
<glyph unicode="&#x109;" horiz-adv-x="978" d="M70 471q0 240 152.5 419t395.5 179q111 0 200 -40t136 -103q-2 -80 -49 -124t-108 -44q-53 0 -89 31.5t-36 89.5q0 35 18 82q-37 10 -72 10q-137 0 -215.5 -111.5t-78.5 -286.5q0 -197 98 -315.5t246 -118.5q133 0 229 97l31 -37q8 -8 8 -15q0 -4 -6 -12 q-59 -88 -153.5 -142.5t-211.5 -54.5q-225 0 -360 143.5t-135 352.5zM279 1200l247 307q20 25 49 25h46q33 0 51 -21l239 -311q12 -20 -2 -26l-49 -19l-268 182l-262 -182l-49 19q-14 6 -2 26z" />
<glyph unicode="&#x10a;" horiz-adv-x="1294" d="M80 645q0 152 51 295t144.5 260t242 188.5t326.5 71.5q199 0 334 -63v-346q0 -12 -15 -23l-45 -6q-14 145 -89 230t-210 85q-215 0 -338 -177t-123 -421q0 -252 128 -412.5t364 -160.5q227 0 342 147l33 -32q8 -16 8 -23q0 -10 -4 -16q-76 -125 -205 -196t-303 -71 q-203 0 -352.5 96.5t-219 246t-69.5 327.5zM674 1738.5q0 59.5 42 102.5t103 43q59 0 102.5 -43t43.5 -102.5t-43 -102.5t-103 -43q-61 0 -103 43t-42 102.5z" />
<glyph unicode="&#x10b;" horiz-adv-x="978" d="M70 471q0 240 152.5 419t395.5 179q111 0 200 -40t136 -103q-2 -80 -49 -124t-108 -44q-53 0 -89 31.5t-36 89.5q0 35 18 82q-37 10 -72 10q-137 0 -215.5 -111.5t-78.5 -286.5q0 -197 98 -315.5t246 -118.5q133 0 229 97l31 -37q8 -8 8 -15q0 -4 -6 -12 q-59 -88 -153.5 -142.5t-211.5 -54.5q-225 0 -360 143.5t-135 352.5zM467 1374q0 59 42 102.5t103 43.5q59 0 102.5 -43t43.5 -103q0 -61 -43 -104t-103 -43q-61 0 -103 43t-42 104z" />
<glyph unicode="&#x10c;" horiz-adv-x="1294" d="M80 645q0 152 51 295t144.5 260t242 188.5t326.5 71.5q199 0 334 -63v-346q0 -12 -15 -23l-45 -6q-14 145 -89 230t-210 85q-215 0 -338 -177t-123 -421q0 -252 128 -412.5t364 -160.5q227 0 342 147l33 -32q8 -16 8 -23q0 -10 -4 -16q-76 -125 -205 -196t-303 -71 q-203 0 -352.5 96.5t-219 246t-69.5 327.5zM477 1853q-12 23 2 27l47 21l271 -185l262 185l49 -21q14 -4 2 -27l-248 -305q-18 -27 -49 -26h-45q-33 0 -51 22z" />
<glyph unicode="&#x10d;" horiz-adv-x="978" d="M70 471q0 240 152.5 419t395.5 179q111 0 200 -40t136 -103q-2 -80 -49 -124t-108 -44q-53 0 -89 31.5t-36 89.5q0 35 18 82q-37 10 -72 10q-137 0 -215.5 -111.5t-78.5 -286.5q0 -197 98 -315.5t246 -118.5q133 0 229 97l31 -37q8 -8 8 -15q0 -4 -6 -12 q-59 -88 -153.5 -142.5t-211.5 -54.5q-225 0 -360 143.5t-135 352.5zM268 1485q-12 23 2 26l47 21l271 -184l262 184l49 -21q14 -4 2 -26l-248 -305q-18 -27 -49 -27h-45q-33 0 -51 23z" />
<glyph unicode="&#x10e;" horiz-adv-x="1548" d="M68 45q102 31 125.5 45t23.5 39v1180q0 23 -23.5 37t-125.5 45l6 32q0 12 12 13h598q369 0 573.5 -187.5t204.5 -527.5q0 -309 -215 -515t-616 -206h-543q-14 0 -14 12zM342 1853q-12 23 2 27l47 21l271 -185l262 185l49 -21q14 -4 2 -27l-248 -305q-18 -27 -49 -26h-45 q-33 0 -51 22zM487 117q94 -14 168 -15q229 0 370.5 137.5t141.5 415.5q0 356 -145 517t-430 161q-35 0 -105 -4v-1212z" />
<glyph unicode="&#x10f;" horiz-adv-x="1255" d="M68 463q0 270 147 438t367 168q158 0 241 -96v342q0 57 -30.5 82.5t-126.5 38.5l4 34q0 12 12 17l371 80q23 0 28 -11q-10 -147 -10 -702v-608q0 -109 23.5 -141.5t115.5 -59.5l-8 -33q0 -12 -14 -12h-299q-23 0 -27 25q-16 98 -22 211q-33 -104 -137.5 -182.5 t-229.5 -78.5q-186 0 -295.5 132.5t-109.5 355.5zM319 559q0 -188 65 -295.5t183 -107.5q264 0 264 417q0 215 -61 307.5t-184 92.5t-195 -108.5t-72 -305.5zM1194 1202l12 357h160q47 0 27 -52l-138 -321h-47q-14 0 -14 16z" />
<glyph unicode="&#x110;" horiz-adv-x="1548" d="M57 662v178h160v469q0 23 -23.5 37t-125.5 45l6 32q0 12 12 13h598q369 0 573.5 -187.5t204.5 -527.5q0 -309 -215 -515t-616 -206h-543q-14 0 -14 12l-6 33q102 31 125.5 45t23.5 39v533h-160zM487 117q94 -14 168 -15q229 0 370.5 137.5t141.5 415.5q0 356 -145 517 t-430 161q-35 0 -105 -4v-485h369v-180h-369v-547z" />
<glyph unicode="&#x111;" horiz-adv-x="1255" d="M68 463q0 270 147 438t367 168q158 0 241 -96v231h-211v146h207q-6 37 -40 56t-113 30l4 34q0 12 12 17l371 80q23 0 28 -11q-2 -37 -6 -206h70v-146h-72q-2 -104 -2 -350v-608q0 -109 23.5 -141.5t115.5 -59.5l-8 -33q0 -12 -14 -12h-299q-23 0 -27 25q-16 98 -22 211 q-33 -104 -137.5 -182.5t-229.5 -78.5q-186 0 -295.5 132.5t-109.5 355.5zM319 559q0 -188 65 -295.5t183 -107.5q264 0 264 417q0 215 -61 307.5t-184 92.5t-195 -108.5t-72 -305.5z" />
<glyph unicode="&#x112;" horiz-adv-x="1173" d="M68 45q102 31 125.5 45t23.5 39v1180q0 23 -23.5 37t-125.5 45l6 32q0 12 12 13h936l22 -269q0 -12 -12 -16l-43 -8q-29 106 -65.5 137t-122.5 35l-314 6v-510q276 6 459 25v-150q-229 27 -459 25v-596l347 6q102 2 154 34.5t77 143.5l43 -6q12 -4 12 -17l-22 -276h-1010 q-14 0 -14 12zM352 1599v144h533v-144h-533z" />
<glyph unicode="&#x113;" horiz-adv-x="1024" d="M70 483q0 236 157.5 411t399.5 175q162 0 251 -88t89 -238q0 -80 -25 -168h-620q0 -53 4 -75q10 -162 98 -261.5t231 -99.5q131 0 238 72l29 -39q8 -8 8 -14t-6 -13q-129 -170 -373 -170q-227 0 -354 141.5t-127 366.5zM322 1257v146h532v-146h-532zM326 653l313 19 q59 4 81.5 32.5t22.5 88.5q0 176 -157 176q-109 0 -177.5 -92.5t-82.5 -223.5z" />
<glyph unicode="&#x114;" horiz-adv-x="1173" d="M68 45q102 31 125.5 45t23.5 39v1180q0 23 -23.5 37t-125.5 45l6 32q0 12 12 13h936l22 -269q0 -12 -12 -16l-43 -8q-29 106 -65.5 137t-122.5 35l-314 6v-510q276 6 459 25v-150q-229 27 -459 25v-596l347 6q102 2 154 34.5t77 143.5l43 -6q12 -4 12 -17l-22 -276h-1010 q-14 0 -14 12zM375 1851h82q0 -74 47 -112.5t114 -38.5q63 0 107.5 38t44.5 113h82q0 -152 -66.5 -227.5t-181.5 -75.5q-111 0 -170 75.5t-59 227.5z" />
<glyph unicode="&#x115;" horiz-adv-x="1024" d="M70 483q0 236 157.5 411t399.5 175q162 0 251 -88t89 -238q0 -80 -25 -168h-620q0 -53 4 -75q10 -162 98 -261.5t231 -99.5q131 0 238 72l29 -39q8 -8 8 -14t-6 -13q-129 -170 -373 -170q-227 0 -354 141.5t-127 366.5zM326 653l313 19q59 4 81.5 32.5t22.5 88.5 q0 176 -157 176q-109 0 -177.5 -92.5t-82.5 -223.5zM346 1468h82q0 -76 47 -114.5t115 -38.5q63 0 107 38t44 115h82q0 -152 -66.5 -227.5t-181.5 -75.5q-229 0 -229 303z" />
<glyph unicode="&#x116;" horiz-adv-x="1173" d="M68 45q102 31 125.5 45t23.5 39v1180q0 23 -23.5 37t-125.5 45l6 32q0 12 12 13h936l22 -269q0 -12 -12 -16l-43 -8q-29 106 -65.5 137t-122.5 35l-314 6v-510q276 6 459 25v-150q-229 27 -459 25v-596l347 6q102 2 154 34.5t77 143.5l43 -6q12 -4 12 -17l-22 -276h-1010 q-14 0 -14 12zM477 1738.5q0 59.5 42 102.5t104 43q59 0 102 -43t43 -102.5t-43 -102.5t-102 -43q-61 0 -103.5 43t-42.5 102.5z" />
<glyph unicode="&#x117;" horiz-adv-x="1024" d="M70 483q0 236 157.5 411t399.5 175q162 0 251 -88t89 -238q0 -80 -25 -168h-620q0 -53 4 -75q10 -162 98 -261.5t231 -99.5q131 0 238 72l29 -39q8 -8 8 -14t-6 -13q-129 -170 -373 -170q-227 0 -354 141.5t-127 366.5zM326 653l313 19q59 4 81.5 32.5t22.5 88.5 q0 176 -157 176q-109 0 -177.5 -92.5t-82.5 -223.5zM434 1374q0 59 42 102.5t104 43.5q59 0 102 -43t43 -103q0 -61 -43 -104t-102 -43q-61 0 -103.5 43t-42.5 104z" />
<glyph unicode="&#x118;" horiz-adv-x="1173" d="M68 45q102 31 125.5 45t23.5 39v1180q0 23 -23.5 37t-125.5 45l6 32q0 12 12 13h936l22 -269q0 -12 -12 -16l-43 -8q-29 106 -65.5 137t-122.5 35l-314 6v-510q276 6 459 25v-150q-229 27 -459 25v-596l347 6q102 2 154 34.5t77 143.5l43 -6q12 -4 12 -17l-22 -276h-64 q-88 -45 -135 -113.5t-47 -138.5q0 -131 143 -131q59 0 121 16l10 -47q6 -29 -12 -35q-88 -31 -199 -30q-252 0 -251 182q0 92 66.5 170t195.5 127h-838q-14 0 -14 12z" />
<glyph unicode="&#x119;" horiz-adv-x="1024" d="M70 483q0 236 157.5 411t399.5 175q162 0 251 -88t89 -238q0 -80 -25 -168h-620q0 -53 4 -75q10 -162 98 -261.5t231 -99.5q131 0 238 72l29 -39q8 -8 8 -14t-6 -13q-92 -119 -242 -153q-166 -94 -166 -244q0 -131 143 -131q59 0 121 16l11 -47q6 -29 -13 -35 q-88 -31 -198 -30q-252 0 -252 182q0 172 204 272q-219 6 -340.5 146.5t-121.5 361.5zM326 653l313 19q59 4 81.5 32.5t22.5 88.5q0 176 -157 176q-109 0 -177.5 -92.5t-82.5 -223.5z" />
<glyph unicode="&#x11a;" horiz-adv-x="1173" d="M68 45q102 31 125.5 45t23.5 39v1180q0 23 -23.5 37t-125.5 45l6 32q0 12 12 13h936l22 -269q0 -12 -12 -16l-43 -8q-29 106 -65.5 137t-122.5 35l-314 6v-510q276 6 459 25v-150q-229 27 -459 25v-596l347 6q102 2 154 34.5t77 143.5l43 -6q12 -4 12 -17l-22 -276h-1010 q-14 0 -14 12zM303 1853q-12 23 2 27l47 21l271 -185l262 185l49 -21q14 -4 2 -27l-248 -305q-18 -27 -49 -26h-45q-33 0 -51 22z" />
<glyph unicode="&#x11b;" horiz-adv-x="1024" d="M70 483q0 236 157.5 411t399.5 175q162 0 251 -88t89 -238q0 -80 -25 -168h-620q0 -53 4 -75q10 -162 98 -261.5t231 -99.5q131 0 238 72l29 -39q8 -8 8 -14t-6 -13q-129 -170 -373 -170q-227 0 -354 141.5t-127 366.5zM281 1485q-12 23 2 26l47 21l270 -184l262 184 l49 -21q14 -4 2 -26l-247 -305q-18 -27 -50 -27h-45q-33 0 -51 23zM326 653l313 19q59 4 81.5 32.5t22.5 88.5q0 176 -157 176q-109 0 -177.5 -92.5t-82.5 -223.5z" />
<glyph unicode="&#x11c;" horiz-adv-x="1425" d="M80 657q0 147 54 290t150.5 257.5t244 185t321.5 70.5q238 0 385 -71v-326q0 -12 -14 -23l-45 -6q-20 135 -109.5 219t-243.5 84q-217 0 -341 -174t-124 -452q0 -156 51.5 -287t164 -218t270.5 -87q129 0 200 31v411q0 18 -8 28.5t-56 25t-146 32.5l6 33q0 12 14 12h463 v-536q-242 -180 -559 -181q-338 0 -508 188.5t-170 493.5zM506 1565l248 307q20 25 49 24h45q33 0 51 -20l240 -311q14 -18 -2 -25l-50 -20l-268 182l-262 -182l-49 20q-16 7 -2 25z" />
<glyph unicode="&#x11d;" horiz-adv-x="1163" d="M51 -236q0 74 52.5 145t150.5 118q-68 20 -117 75.5t-55 114.5q115 84 207 201q-150 82 -150 276q0 160 116 267.5t298 107.5q53 0 157.5 -14.5t141.5 -14.5q111 0 307 15l-12 -113q0 -14 -10 -14l-267 10q43 -33 74 -101.5t31 -136.5q0 -166 -112.5 -255t-295.5 -89 q-121 0 -205 23q-61 -35 -61 -94q0 -47 49 -66.5t144 -21.5q53 0 157.5 3t145.5 1q137 -4 213.5 -71t76.5 -181q0 -174 -178 -301t-465 -127q-188 0 -290.5 70.5t-102.5 172.5zM256 -127q0 -76 84 -130t250 -54q317 0 317 170q0 133 -219 135q-285 6 -360 16 q-72 -51 -72 -137zM258 1200l248 307q20 25 49 25h45q33 0 51 -21l240 -311q12 -20 -2 -26l-49 -19l-269 182l-262 -182l-49 19q-14 6 -2 26zM377 725q0 -121 56 -200t140 -79q76 0 123 66t47 176q0 127 -52 204t-138 77q-78 0 -127 -66.5t-49 -177.5z" />
<glyph unicode="&#x11e;" horiz-adv-x="1425" d="M80 657q0 147 54 290t150.5 257.5t244 185t321.5 70.5q238 0 385 -71v-326q0 -12 -14 -23l-45 -6q-20 135 -109.5 219t-243.5 84q-217 0 -341 -174t-124 -452q0 -156 51.5 -287t164 -218t270.5 -87q129 0 200 31v411q0 18 -8 28.5t-56 25t-146 32.5l6 33q0 12 14 12h463 v-536q-242 -180 -559 -181q-338 0 -508 188.5t-170 493.5zM600 1851h82q0 -74 47 -112.5t115 -38.5q63 0 107 38t44 113h82q0 -152 -66.5 -227.5t-181.5 -75.5q-111 0 -170 75.5t-59 227.5z" />
<glyph unicode="&#x11f;" horiz-adv-x="1163" d="M51 -236q0 74 52.5 145t150.5 118q-68 20 -117 75.5t-55 114.5q115 84 207 201q-150 82 -150 276q0 160 116 267.5t298 107.5q53 0 157.5 -14.5t141.5 -14.5q111 0 307 15l-12 -113q0 -14 -10 -14l-267 10q43 -33 74 -101.5t31 -136.5q0 -166 -112.5 -255t-295.5 -89 q-121 0 -205 23q-61 -35 -61 -94q0 -47 49 -66.5t144 -21.5q53 0 157.5 3t145.5 1q137 -4 213.5 -71t76.5 -181q0 -174 -178 -301t-465 -127q-188 0 -290.5 70.5t-102.5 172.5zM256 -127q0 -76 84 -130t250 -54q317 0 317 170q0 133 -219 135q-285 6 -360 16 q-72 -51 -72 -137zM332 1468h82q0 -76 47 -114.5t114 -38.5q63 0 107.5 38t44.5 115h82q0 -152 -66.5 -227.5t-181.5 -75.5q-229 0 -229 303zM377 725q0 -121 56 -200t140 -79q76 0 123 66t47 176q0 127 -52 204t-138 77q-78 0 -127 -66.5t-49 -177.5z" />
<glyph unicode="&#x120;" horiz-adv-x="1425" d="M80 657q0 147 54 290t150.5 257.5t244 185t321.5 70.5q238 0 385 -71v-326q0 -12 -14 -23l-45 -6q-20 135 -109.5 219t-243.5 84q-217 0 -341 -174t-124 -452q0 -156 51.5 -287t164 -218t270.5 -87q129 0 200 31v411q0 18 -8 28.5t-56 25t-146 32.5l6 33q0 12 14 12h463 v-536q-242 -180 -559 -181q-338 0 -508 188.5t-170 493.5zM684 1738.5q0 59.5 42 102.5t103 43q59 0 102.5 -43t43.5 -102.5t-43 -102.5t-103 -43q-61 0 -103 43t-42 102.5z" />
<glyph unicode="&#x121;" horiz-adv-x="1163" d="M51 -236q0 74 52.5 145t150.5 118q-68 20 -117 75.5t-55 114.5q115 84 207 201q-150 82 -150 276q0 160 116 267.5t298 107.5q53 0 157.5 -14.5t141.5 -14.5q111 0 307 15l-12 -113q0 -14 -10 -14l-267 10q43 -33 74 -101.5t31 -136.5q0 -166 -112.5 -255t-295.5 -89 q-121 0 -205 23q-61 -35 -61 -94q0 -47 49 -66.5t144 -21.5q53 0 157.5 3t145.5 1q137 -4 213.5 -71t76.5 -181q0 -174 -178 -301t-465 -127q-188 0 -290.5 70.5t-102.5 172.5zM256 -127q0 -76 84 -130t250 -54q317 0 317 170q0 133 -219 135q-285 6 -360 16 q-72 -51 -72 -137zM377 725q0 -121 56 -200t140 -79q76 0 123 66t47 176q0 127 -52 204t-138 77q-78 0 -127 -66.5t-49 -177.5zM424 1374q0 59 42 102.5t103 43.5q59 0 102.5 -43t43.5 -103q0 -61 -43 -104t-103 -43q-61 0 -103 43t-42 104z" />
<glyph unicode="&#x122;" horiz-adv-x="1425" d="M80 657q0 147 54 290t150.5 257.5t244 185t321.5 70.5q238 0 385 -71v-326q0 -12 -14 -23l-45 -6q-20 135 -109.5 219t-243.5 84q-217 0 -341 -174t-124 -452q0 -156 51.5 -287t164 -218t270.5 -87q129 0 200 31v411q0 18 -8 28.5t-56 25t-146 32.5l6 33q0 12 14 12h463 v-536q-242 -180 -559 -181q-338 0 -508 188.5t-170 493.5zM575 -686q143 127 193 278q-125 16 -125 117q0 57 40 96t112 39q90 0 149 -65q-2 -139 -94 -284.5t-201 -209.5q-8 -4 -24 -4z" />
<glyph unicode="&#x123;" horiz-adv-x="1163" d="M51 -236q0 74 52.5 145t150.5 118q-68 20 -117 75.5t-55 114.5q115 84 207 201q-150 82 -150 276q0 160 116 267.5t298 107.5q53 0 157.5 -14.5t141.5 -14.5q111 0 307 15l-12 -113q0 -14 -10 -14l-267 10q43 -33 74 -101.5t31 -136.5q0 -166 -112.5 -255t-295.5 -89 q-121 0 -205 23q-61 -35 -61 -94q0 -47 49 -66.5t144 -21.5q53 0 157.5 3t145.5 1q137 -4 213.5 -71t76.5 -181q0 -174 -178 -301t-465 -127q-188 0 -290.5 70.5t-102.5 172.5zM256 -127q0 -76 84 -130t250 -54q317 0 317 170q0 133 -219 135q-285 6 -360 16 q-72 -51 -72 -137zM377 725q0 -121 56 -200t140 -79q76 0 123 66t47 176q0 127 -52 204t-138 77q-78 0 -127 -66.5t-49 -177.5zM463 1239q2 139 94 284.5t201 209.5q8 4 24 4l49 -33q-143 -127 -192 -279q125 -16 125 -116q0 -57 -40 -96t-112 -39q-90 -1 -149 65z" />
<glyph unicode="&#x124;" horiz-adv-x="1601" d="M68 45q102 31 125.5 45t23.5 39v1180q0 23 -23.5 37t-125.5 45l6 32q0 12 12 13h532q12 0 13 -13l6 -32q-102 -31 -126 -45.5t-24 -36.5v-492h627v492q0 23 -23.5 37t-125.5 45l6 32q0 12 12 13h533q12 0 12 -13l6 -32q-102 -31 -126 -45.5t-24 -36.5v-1180q0 -25 24 -39 t126 -45l-6 -33q0 -12 -10 -12h-533q-14 0 -14 12l-6 33q102 31 125.5 45t23.5 39v578h-627v-578q0 -25 24 -39t126 -45l-6 -33q0 -12 -10 -12h-533q-14 0 -14 12zM485 1565l248 307q20 25 49 24h45q33 0 52 -20l239 -311q14 -18 -2 -25l-49 -20l-268 182l-262 -182l-50 20 q-16 7 -2 25z" />
<glyph unicode="&#x125;" horiz-adv-x="1318" d="M41 1436l4 34q0 12 12 17l371 80q6 2 14.5 -2t8.5 -11q-8 -133 -9 -350q0 -246 -12 -393q55 90 172 174t240 84q150 0 220.5 -87t70.5 -280v-573q0 -25 23.5 -39t125.5 -45l-6 -33q0 -12 -10 -12h-510q-14 0 -15 12l-6 33q102 31 126 45t24 39v502q0 145 -41 201.5 t-135 56.5q-111 0 -187 -83t-76 -231v-450q0 -23 24 -36t126 -44l-6 -33q0 -12 -10 -12h-510q-14 0 -15 12l-6 33q102 31 126 44t24 34v1192q0 57 -31 83t-127 38zM98 1595l248 308q20 25 49 24h45q33 0 52 -20l239 -312q14 -18 -2 -24l-49 -21l-268 183l-262 -183l-50 21 q-16 6 -2 24z" />
<glyph unicode="&#x126;" horiz-adv-x="1601" d="M55 1038v121h162v150q0 23 -23.5 37t-125.5 45l6 32q0 12 12 13h532q12 0 13 -13l6 -32q-102 -31 -126 -45.5t-24 -36.5v-150h627v150q0 23 -23.5 37t-125.5 45l6 32q0 12 12 13h533q12 0 12 -13l6 -32q-102 -31 -126 -45.5t-24 -36.5v-150h164v-121h-164v-909 q0 -25 24 -39t126 -45l-6 -33q0 -12 -10 -12h-533q-14 0 -14 12l-6 33q102 31 125.5 45t23.5 39v578h-627v-578q0 -25 24 -39t126 -45l-6 -33q0 -12 -10 -12h-533q-14 0 -14 12l-6 33q102 31 125.5 45t23.5 39v909h-162zM487 817h627v221h-627v-221z" />
<glyph unicode="&#x127;" horiz-adv-x="1318" d="M41 1436l4 34q0 12 12 17l371 80q6 2 14.5 -2t8.5 -11q-4 -57 -9 -192h181v-145h-181v-13q0 -246 -12 -393q55 90 172 174t240 84q150 0 220.5 -87t70.5 -280v-573q0 -25 23.5 -39t125.5 -45l-6 -33q0 -12 -10 -12h-510q-14 0 -15 12l-6 33q102 31 126 45t24 39v502 q0 145 -41 201.5t-135 56.5q-111 0 -187 -83t-76 -231v-450q0 -23 24 -36t126 -44l-6 -33q0 -12 -10 -12h-510q-14 0 -15 12l-6 33q102 31 126 44t24 34v1094h-109v145h103q-21 58 -152 74z" />
<glyph unicode="&#x128;" horiz-adv-x="704" d="M29 1550q4 137 59 225.5t139 88.5q57 0 147.5 -62.5t129.5 -62.5q104 0 110 141l62 -8q-2 -139 -54.5 -224t-134.5 -85q-68 0 -151.5 60t-122.5 60q-115 0 -119 -149zM68 45q102 31 125.5 45t23.5 39v1180q0 23 -23.5 37t-125.5 45l6 32q0 12 12 13h532q12 0 13 -13 l6 -32q-102 -31 -126 -45.5t-24 -36.5v-1180q0 -25 24 -39t126 -45l-6 -33q0 -12 -10 -12h-533q-14 0 -14 12z" />
<glyph unicode="&#x129;" horiz-adv-x="630" d="M-37 1184q4 137 59.5 226t139.5 89q57 0 147 -62.5t129 -62.5q104 0 111 142l61 -9q-2 -139 -53 -224t-135 -85q-68 0 -152 60.5t-123 60.5q-115 0 -118 -152zM49 45q102 31 126 44t24 34v696q0 59 -26 84t-101 39l6 31q0 14 12 16l338 78q18 4 18 -10v-934 q0 -20 24 -33.5t126 -44.5l-6 -33q0 -12 -10 -12h-510q-14 0 -15 12z" />
<glyph unicode="&#x12a;" horiz-adv-x="704" d="M68 45q102 31 125.5 45t23.5 39v1180q0 23 -23.5 37t-125.5 45l6 32q0 12 12 13h532q12 0 13 -13l6 -32q-102 -31 -126 -45.5t-24 -36.5v-1180q0 -25 24 -39t126 -45l-6 -33q0 -12 -10 -12h-533q-14 0 -14 12zM86 1599v144h532v-144h-532z" />
<glyph unicode="&#x12b;" horiz-adv-x="630" d="M33 1257v146h532v-146h-532zM49 45q102 31 126 44t24 34v696q0 59 -26 84t-101 39l6 31q0 14 12 16l338 78q18 4 18 -10v-934q0 -20 24 -33.5t126 -44.5l-6 -33q0 -12 -10 -12h-510q-14 0 -15 12z" />
<glyph unicode="&#x12c;" horiz-adv-x="704" d="M68 45q102 31 125.5 45t23.5 39v1180q0 23 -23.5 37t-125.5 45l6 32q0 12 12 13h532q12 0 13 -13l6 -32q-102 -31 -126 -45.5t-24 -36.5v-1180q0 -25 24 -39t126 -45l-6 -33q0 -12 -10 -12h-533q-14 0 -14 12zM115 1851h82q0 -74 47 -112.5t114 -38.5q63 0 107.5 38 t44.5 113h82q0 -152 -66.5 -227.5t-181.5 -75.5q-111 0 -170 75.5t-59 227.5z" />
<glyph unicode="&#x12d;" horiz-adv-x="630" d="M49 45q102 31 126 44t24 34v696q0 59 -26 84t-101 39l6 31q0 14 12 16l338 78q18 4 18 -10v-934q0 -20 24 -33.5t126 -44.5l-6 -33q0 -12 -10 -12h-510q-14 0 -15 12zM70 1468h82q0 -76 47 -114.5t114 -38.5q63 0 107.5 38t44.5 115h82q0 -152 -66.5 -227.5t-181.5 -75.5 q-229 0 -229 303z" />
<glyph unicode="&#x12e;" horiz-adv-x="704" d="M68 45q102 31 125.5 45t23.5 39v1180q0 23 -23.5 37t-125.5 45l6 32q0 12 12 13h532q12 0 13 -13l6 -32q-102 -31 -126 -45.5t-24 -36.5v-1180q0 -25 24 -39t126 -45l-6 -33q0 -12 -10 -12h-121q-88 -45 -135.5 -113.5t-47.5 -138.5q0 -131 144 -131q59 0 121 16l10 -47 q6 -29 -12 -35q-88 -31 -199 -30q-252 0 -252 182q0 92 66.5 170t195.5 127h-303q-14 0 -14 12z" />
<glyph unicode="&#x12f;" horiz-adv-x="630" d="M49 45q102 31 126 44t24 34v696q0 59 -26 84t-101 39l6 31q0 14 12 16l338 78q18 4 18 -10v-934q0 -20 24 -33.5t126 -44.5l-6 -33q0 -12 -10 -12h-115q-88 -45 -135 -113.5t-47 -138.5q0 -131 143 -131q59 0 121 16l10 -47q6 -29 -12 -35q-88 -31 -199 -30 q-252 0 -252 182q0 92 66.5 170t195.5 127h-286q-14 0 -15 12zM172 1374q0 59 42 102.5t103 43.5q59 0 102.5 -43t43.5 -103q0 -61 -43 -104t-103 -43q-61 0 -103 43t-42 104z" />
<glyph unicode="&#x130;" horiz-adv-x="704" d="M68 45q102 31 125.5 45t23.5 39v1180q0 23 -23.5 37t-125.5 45l6 32q0 12 12 13h532q12 0 13 -13l6 -32q-102 -31 -126 -45.5t-24 -36.5v-1180q0 -25 24 -39t126 -45l-6 -33q0 -12 -10 -12h-533q-14 0 -14 12zM207 1738.5q0 59.5 42 102.5t103 43q59 0 102.5 -43 t43.5 -102.5t-43 -102.5t-103 -43q-61 0 -103 43t-42 102.5z" />
<glyph unicode="&#x131;" horiz-adv-x="630" d="M49 45q102 31 126 44t24 34v696q0 59 -26 84t-101 39l6 31q0 14 12 16l338 78q18 4 18 -10v-934q0 -20 24 -33.5t126 -44.5l-6 -33q0 -12 -10 -12h-510q-14 0 -15 12z" />
<glyph unicode="&#x132;" horiz-adv-x="1409" d="M68 45q102 31 125.5 45t23.5 39v1180q0 23 -23.5 37t-125.5 45l6 32q0 12 12 13h532q12 0 13 -13l6 -32q-102 -31 -126 -45.5t-24 -36.5v-1180q0 -25 24 -39t126 -45l-6 -33q0 -12 -10 -12h-533q-14 0 -14 12zM524 -340l13 47q78 -47 182 -47q98 0 162.5 62.5t64.5 183.5 v1403q0 23 -23.5 37t-125.5 45l6 32q0 12 14 13h533q10 0 10 -13l6 -32q-102 -31 -125.5 -45.5t-23.5 -36.5v-1418q0 -176 -113 -273t-279 -97q-180 0 -297 110q-10 9 -4 29z" />
<glyph unicode="&#x133;" horiz-adv-x="1261" d="M49 45q102 31 126 44t24 34v696q0 59 -26 84t-101 39l6 31q0 14 12 16l338 78q18 4 18 -10v-934q0 -20 24 -33.5t126 -44.5l-6 -33q0 -12 -10 -12h-510q-14 0 -15 12zM172 1374q0 59 42 102.5t103 43.5q59 0 102.5 -43t43.5 -103q0 -61 -43 -104t-103 -43q-61 0 -103 43 t-42 104zM471 -330l21 37q70 -45 165 -45q193 0 193 232v917q0 63 -25.5 90t-101.5 41l6 31q0 14 12 16l338 78q18 4 19 -10v-1213q0 -156 -89 -239.5t-251 -83.5q-186 0 -287 121q-10 14 0 28zM823 1374q0 59 42 102.5t104 43.5q59 0 101 -43t42 -103q0 -61 -42 -104 t-101 -43q-61 0 -103.5 43t-42.5 104z" />
<glyph unicode="&#x134;" horiz-adv-x="741" d="M-150 -340l13 47q78 -47 182 -47q98 0 162.5 62.5t64.5 183.5v1403q0 23 -23.5 37t-125.5 45l6 32q0 12 14 13h533q10 0 10 -13l6 -32q-102 -31 -125.5 -45.5t-23.5 -36.5v-1418q0 -176 -113 -273t-278 -97q-180 0 -297 110q-11 9 -5 29zM90 1565l248 307q20 25 49 24h45 q33 0 51 -20l240 -311q14 -18 -2 -25l-49 -20l-269 182l-262 -182l-49 20q-16 7 -2 25z" />
<glyph unicode="&#x135;" horiz-adv-x="612" d="M-182 -330l20 37q70 -45 166 -45q193 0 193 232v917q0 63 -26 90t-101 41l6 31q0 14 12 16l338 78q18 4 18 -10v-1213q0 -156 -89 -239.5t-251 -83.5q-186 0 -286 121q-10 14 0 28zM-27 1200l248 307q20 25 49 25h45q33 0 52 -21l239 -311q12 -20 -2 -26l-49 -19 l-268 182l-262 -182l-50 19q-14 6 -2 26z" />
<glyph unicode="&#x136;" horiz-adv-x="1476" d="M68 45q102 31 125.5 45t23.5 39v1180q0 23 -23.5 37t-125.5 45l6 32q0 12 12 13h532q12 0 13 -13l8 -30q-102 -31 -127 -45.5t-25 -38.5v-527q268 0 566 537q8 14 4 26.5t-31 23.5t-80 24l6 30q0 12 13 13h487q14 0 14 -13l7 -30q-53 -10 -83 -21.5t-38.5 -18.5 t-22.5 -24q-174 -221 -341 -379.5t-236 -175.5q199 -37 639 -670q25 -37 114 -59l-6 -33q0 -12 -12 -12h-359q-23 0 -38 25q-217 377 -356.5 534.5t-246.5 157.5v-588q0 -25 24 -39t126 -45l-6 -33q0 -12 -10 -12h-533q-14 0 -14 12zM596 -686q143 127 192 278 q-125 16 -124 117q0 57 39.5 96t111.5 39q90 0 150 -65q-2 -139 -94.5 -284.5t-200.5 -209.5q-8 -4 -25 -4z" />
<glyph unicode="&#x137;" horiz-adv-x="1284" d="M41 1436l4 34q0 12 12 17l371 80q23 0 29 -11q-10 -147 -11 -702v-274q96 0 183.5 76.5t208.5 271.5q8 14 5 26.5t-31 24.5t-81 25l6 28q0 12 13 12h462q14 0 15 -12l6 -28q-53 -10 -84 -21.5t-39 -19t-23 -23.5q-272 -332 -417 -367q86 -12 184 -109t299 -360 q16 -23 37.5 -34t77.5 -25l-6 -33q0 -12 -13 -12h-331q-27 0 -39 25q-162 283 -256.5 387t-176.5 104v-393q0 -20 24 -33.5t126 -44.5l-6 -33q0 -12 -10 -12h-510q-14 0 -15 12l-6 33q102 31 126 44t24 34v1192q0 57 -31 83t-127 38zM469 -686q143 127 193 278 q-125 16 -125 117q0 57 39.5 96t111.5 39q90 0 150 -65q-2 -139 -94.5 -284.5t-200.5 -209.5q-8 -4 -25 -4z" />
<glyph unicode="&#x139;" horiz-adv-x="1101" d="M68 45q102 31 125.5 45t23.5 39v1180q0 23 -23.5 37t-125.5 45l6 32q0 12 12 13h539q10 0 10 -13l6 -32q-106 -31 -130 -45.5t-24 -36.5v-1182l222 4q168 4 237.5 36t91.5 146l43 -6q12 -4 13 -16l-29 -291h-977q-14 0 -14 12zM233 1565l291 321h228q29 0 35 -19.5 t-23 -37.5l-490 -313l-38 22q-15 13 -3 27z" />
<glyph unicode="&#x13a;" horiz-adv-x="634" d="M41 1436l6 34q0 12 12 17l369 80q23 0 29 -11q-10 -147 -11 -702v-731q0 -20 24 -33.5t126 -44.5l-6 -33q0 -12 -10 -12h-510q-14 0 -15 12l-6 33q102 31 126 44t24 34v1192q0 57 -30 83t-128 38zM66 1604l290 321h228q29 0 35 -19.5t-23 -37.5l-490 -314l-38 23 q-14 13 -2 27z" />
<glyph unicode="&#x13b;" horiz-adv-x="1101" d="M68 45q102 31 125.5 45t23.5 39v1180q0 23 -23.5 37t-125.5 45l6 32q0 12 12 13h539q10 0 10 -13l6 -32q-106 -31 -130 -45.5t-24 -36.5v-1182l222 4q168 4 237.5 36t91.5 146l43 -6q12 -4 13 -16l-29 -291h-977q-14 0 -14 12zM385 -686q143 127 193 278 q-125 16 -125 117q0 57 39.5 96t111.5 39q90 0 150 -65q-2 -139 -94.5 -284.5t-200.5 -209.5q-8 -4 -25 -4z" />
<glyph unicode="&#x13c;" horiz-adv-x="634" d="M41 1436l6 34q0 12 12 17l369 80q23 0 29 -11q-10 -147 -11 -702v-731q0 -20 24 -33.5t126 -44.5l-6 -33q0 -12 -10 -12h-510q-14 0 -15 12l-6 33q102 31 126 44t24 34v1192q0 57 -30 83t-128 38zM119 -686q143 127 192 278q-125 16 -125 117q0 57 40 96t112 39 q90 0 149 -65q-2 -139 -94 -284.5t-200 -209.5q-8 -4 -25 -4z" />
<glyph unicode="&#x13d;" horiz-adv-x="1101" d="M68 45q102 31 125.5 45t23.5 39v1180q0 23 -23.5 37t-125.5 45l6 32q0 12 12 13h539q10 0 10 -13l6 -32q-106 -31 -130 -45.5t-24 -36.5v-1182l222 4q168 4 237.5 36t91.5 146l43 -6q12 -4 13 -16l-29 -291h-977q-14 0 -14 12zM748 1161l12 357h160q47 0 26 -52 l-137 -321h-47q-14 0 -14 16z" />
<glyph unicode="&#x13e;" horiz-adv-x="634" d="M41 1436l6 34q0 12 12 17l369 80q23 0 29 -11q-10 -147 -11 -702v-731q0 -20 24 -33.5t126 -44.5l-6 -33q0 -12 -10 -12h-510q-14 0 -15 12l-6 33q102 31 126 44t24 34v1192q0 57 -30 83t-128 38zM582 1202l12 357h160q47 0 26 -52l-137 -321h-47q-14 0 -14 16z" />
<glyph unicode="&#x141;" horiz-adv-x="1118" d="M72 377v162l151 125v645q0 23 -23.5 37t-125.5 45l6 32q0 12 12 13h535q12 0 12 -13l6 -32q-104 -31 -127.5 -45.5t-23.5 -36.5v-422l309 254v-164l-309 -254v-602l221 4q170 4 241.5 38t87.5 150l43 -6q12 -4 13 -16l-27 -273q0 -6 -7 -12t-15 -6h-957q-14 0 -14 12 l-6 33q102 31 125.5 45t23.5 39v373z" />
<glyph unicode="&#x142;" horiz-adv-x="669" d="M47 428v164l170 182v541q0 57 -30.5 82.5t-127.5 38.5l4 34q0 12 13 17l370 80q23 0 29 -11q-6 -80 -10 -518l153 168v-164l-153 -168v-751q0 -20 23.5 -33.5t125.5 -44.5l-6 -33q0 -12 -10 -12h-510q-14 0 -14 12l-6 33q102 31 125.5 44t23.5 34v489z" />
<glyph unicode="&#x143;" horiz-adv-x="1468" d="M68 45q102 31 125.5 44t23.5 36v1188q0 20 -23.5 33.5t-125.5 44.5l6 32q0 12 12 13h403q379 -532 650 -975v852q0 20 -23.5 33.5t-126.5 44.5l6 32q0 12 15 13h387q12 0 12 -13l6 -32q-102 -31 -125.5 -44.5t-23.5 -33.5v-1293q0 -20 -19 -20l-129 -10 q-326 524 -774 1169v-1034q0 -23 23.5 -36t126.5 -44l-7 -33q0 -12 -12 -12h-387q-14 0 -14 12zM635 1565l291 321h227q29 0 35 -19.5t-23 -37.5l-489 -313l-39 22q-14 13 -2 27z" />
<glyph unicode="&#x144;" horiz-adv-x="1318" d="M49 45q102 31 126 44t24 34v573q0 150 -23.5 193t-107.5 53l4 31q0 14 12 16l295 80q14 4 18 -10q27 -117 27 -252q203 262 422 262q147 0 217 -87t70 -280v-573q0 -25 23.5 -39t125.5 -45l-6 -33q0 -12 -10 -12h-510q-14 0 -15 12l-6 33q102 31 126 45t24 39v502 q0 145 -41 201.5t-137 56.5q-109 0 -185 -83t-76 -231v-450q0 -23 24 -36t126 -44l-6 -33q0 -12 -10 -12h-510q-14 0 -15 12zM520 1196l291 322h227q29 0 35 -19.5t-22 -38.5l-490 -313l-39 22q-14 13 -2 27z" />
<glyph unicode="&#x145;" horiz-adv-x="1468" d="M68 45q102 31 125.5 44t23.5 36v1188q0 20 -23.5 33.5t-125.5 44.5l6 32q0 12 12 13h403q379 -532 650 -975v852q0 20 -23.5 33.5t-126.5 44.5l6 32q0 12 15 13h387q12 0 12 -13l6 -32q-102 -31 -125.5 -44.5t-23.5 -33.5v-1293q0 -20 -19 -20l-129 -10 q-326 524 -774 1169v-1034q0 -23 23.5 -36t126.5 -44l-7 -33q0 -12 -12 -12h-387q-14 0 -14 12zM578 -686q143 127 192 278q-125 16 -125 117q0 57 40 96t112 39q90 0 149 -65q-2 -139 -94 -284.5t-201 -209.5q-8 -4 -24 -4z" />
<glyph unicode="&#x146;" horiz-adv-x="1318" d="M49 45q102 31 126 44t24 34v573q0 150 -23.5 193t-107.5 53l4 31q0 14 12 16l295 80q14 4 18 -10q27 -117 27 -252q203 262 422 262q147 0 217 -87t70 -280v-573q0 -25 23.5 -39t125.5 -45l-6 -33q0 -12 -10 -12h-510q-14 0 -15 12l-6 33q102 31 126 45t24 39v502 q0 145 -41 201.5t-137 56.5q-109 0 -185 -83t-76 -231v-450q0 -23 24 -36t126 -44l-6 -33q0 -12 -10 -12h-510q-14 0 -15 12zM465 -686q143 127 192 278q-125 16 -125 117q0 57 40 96t112 39q90 0 150 -65q-2 -139 -94.5 -284.5t-200.5 -209.5q-8 -4 -25 -4z" />
<glyph unicode="&#x147;" horiz-adv-x="1468" d="M68 45q102 31 125.5 44t23.5 36v1188q0 20 -23.5 33.5t-125.5 44.5l6 32q0 12 12 13h403q379 -532 650 -975v852q0 20 -23.5 33.5t-126.5 44.5l6 32q0 12 15 13h387q12 0 12 -13l6 -32q-102 -31 -125.5 -44.5t-23.5 -33.5v-1293q0 -20 -19 -20l-129 -10 q-326 524 -774 1169v-1034q0 -23 23.5 -36t126.5 -44l-7 -33q0 -12 -12 -12h-387q-14 0 -14 12zM440 1853q-12 23 2 27l47 21l271 -185l262 185l49 -21q14 -4 2 -27l-248 -305q-18 -27 -49 -26h-45q-33 0 -51 22z" />
<glyph unicode="&#x148;" horiz-adv-x="1318" d="M49 45q102 31 126 44t24 34v573q0 150 -23.5 193t-107.5 53l4 31q0 14 12 16l295 80q14 4 18 -10q27 -117 27 -252q203 262 422 262q147 0 217 -87t70 -280v-573q0 -25 23.5 -39t125.5 -45l-6 -33q0 -12 -10 -12h-510q-14 0 -15 12l-6 33q102 31 126 45t24 39v502 q0 145 -41 201.5t-137 56.5q-109 0 -185 -83t-76 -231v-450q0 -23 24 -36t126 -44l-6 -33q0 -12 -10 -12h-510q-14 0 -15 12zM340 1485q-12 23 2 26l47 21l270 -184l263 184l49 -21q14 -4 2 -26l-248 -305q-18 -27 -49 -27h-45q-33 0 -51 23z" />
<glyph unicode="&#x149;" horiz-adv-x="1318" d="M49 45q102 31 126 44t24 34v573q0 150 -23.5 193t-107.5 53l4 31q0 14 12 16l295 80q14 4 18 -10q27 -117 27 -252q203 262 422 262q147 0 217 -87t70 -280v-573q0 -25 23.5 -39t125.5 -45l-6 -33q0 -12 -10 -12h-510q-14 0 -15 12l-6 33q102 31 126 45t24 39v502 q0 145 -41 201.5t-137 56.5q-109 0 -185 -83t-76 -231v-450q0 -23 24 -36t126 -44l-6 -33q0 -12 -10 -12h-510q-14 0 -15 12zM203 1161l12 357h160q47 0 26 -52l-137 -321h-47q-14 0 -14 16z" />
<glyph unicode="&#x14a;" horiz-adv-x="1468" d="M68 45q102 31 125.5 44t23.5 36v1188q0 20 -23.5 33.5t-125.5 44.5l6 32q0 12 12 13h403q379 -532 650 -975v852q0 20 -23.5 33.5t-126.5 44.5l6 32q0 12 15 13h387q12 0 12 -13l6 -32q-102 -31 -125.5 -44.5t-23.5 -33.5v-1293q0 -143 -107.5 -318t-214.5 -222 q-18 -6 -26 -6l-58 41q217 162 236 510q-303 485 -752 1134v-1034q0 -23 23.5 -36t126.5 -44l-7 -33q0 -12 -12 -12h-387q-14 0 -14 12z" />
<glyph unicode="&#x14b;" horiz-adv-x="1292" d="M49 45q102 31 126 44t24 34v573q0 150 -23.5 193t-107.5 53l4 31q0 14 12 16l295 80q14 4 18 -10q27 -117 27 -252q203 262 422 262q147 0 217 -87t70 -280v-647q0 -139 -116 -308t-237 -208q-18 -6 -26 -6l-58 41q104 68 146.5 172t42.5 268v617q0 145 -41 201.5 t-137 56.5q-109 0 -185 -83t-76 -231v-450q0 -23 24 -36t126 -44l-6 -33q0 -12 -10 -12h-510q-14 0 -15 12z" />
<glyph unicode="&#x14c;" horiz-adv-x="1574" d="M82 684q0 352 207 564t526 212q293 0 485.5 -202.5t192.5 -514.5q0 -342 -203 -555t-516 -213q-293 0 -492.5 197t-199.5 512zM377 739q0 -293 114.5 -472t299.5 -179q180 0 293.5 167t113.5 435q0 305 -112.5 480.5t-299 175.5t-298 -169.5t-111.5 -437.5zM520 1599v144 h533v-144h-533z" />
<glyph unicode="&#x14d;" horiz-adv-x="1175" d="M72 485q0 254 160.5 419t385.5 165q215 0 350.5 -141.5t135.5 -374.5q0 -244 -153.5 -411t-383.5 -167q-215 0 -355 138.5t-140 371.5zM322 1257v146h532v-146h-532zM334 553q0 -207 69.5 -339t188.5 -132q117 0 182.5 109.5t65.5 295.5q0 213 -70 342t-186 129 q-119 0 -184.5 -109.5t-65.5 -295.5z" />
<glyph unicode="&#x14e;" horiz-adv-x="1574" d="M82 684q0 352 207 564t526 212q293 0 485.5 -202.5t192.5 -514.5q0 -342 -203 -555t-516 -213q-293 0 -492.5 197t-199.5 512zM377 739q0 -293 114.5 -472t299.5 -179q180 0 293.5 167t113.5 435q0 305 -112.5 480.5t-299 175.5t-298 -169.5t-111.5 -437.5zM549 1851h82 q0 -74 47 -112.5t115 -38.5q63 0 107 38t44 113h82q0 -152 -66.5 -227.5t-181.5 -75.5q-111 0 -170 75.5t-59 227.5z" />
<glyph unicode="&#x14f;" horiz-adv-x="1175" d="M72 485q0 254 160.5 419t385.5 165q215 0 350.5 -141.5t135.5 -374.5q0 -244 -153.5 -411t-383.5 -167q-215 0 -355 138.5t-140 371.5zM334 553q0 -207 69.5 -339t188.5 -132q117 0 182.5 109.5t65.5 295.5q0 213 -70 342t-186 129q-119 0 -184.5 -109.5t-65.5 -295.5z M377 1468h82q0 -76 47 -114.5t115 -38.5q63 0 107 38t44 115h82q0 -152 -66.5 -227.5t-181.5 -75.5q-229 0 -229 303z" />
<glyph unicode="&#x150;" horiz-adv-x="1574" d="M82 684q0 352 207 564t526 212q293 0 485.5 -202.5t192.5 -514.5q0 -342 -203 -555t-516 -213q-293 0 -492.5 197t-199.5 512zM377 739q0 -293 114.5 -472t299.5 -179q180 0 293.5 167t113.5 435q0 305 -112.5 480.5t-299 175.5t-298 -169.5t-111.5 -437.5zM436 1561 l254 321h197q25 0 30 -19.5t-20 -37.5l-422 -312l-37 23q-16 11 -2 25zM850 1561l256 321h194q25 0 30 -19.5t-19 -37.5l-420 -312l-39 23q-16 11 -2 25z" />
<glyph unicode="&#x151;" horiz-adv-x="1175" d="M72 485q0 254 160.5 419t385.5 165q215 0 350.5 -141.5t135.5 -374.5q0 -244 -153.5 -411t-383.5 -167q-215 0 -355 138.5t-140 371.5zM197 1196l254 322h196q25 0 30 -19.5t-20 -38.5l-421 -313l-37 22q-16 11 -2 27zM334 553q0 -207 69.5 -339t188.5 -132 q117 0 182.5 109.5t65.5 295.5q0 213 -70 342t-186 129q-119 0 -184.5 -109.5t-65.5 -295.5zM610 1196l256 322h195q25 0 30 -19.5t-20 -38.5l-420 -313l-39 22q-16 11 -2 27z" />
<glyph unicode="&#x152;" horiz-adv-x="2129" d="M82 684q0 352 207 564t526 212q33 0 95.5 -12t93.5 -12h981l22 -269q0 -12 -12 -16l-43 -8q-29 106 -65 137t-124 35l-549 18q246 -184 275 -520q236 6 420 23v-150q-215 25 -418 25q0 -195 -79 -352.5t-220 -256.5l604 19q53 2 83 8t62.5 23.5t52 53.5t34.5 93l43 -6 q12 -4 12 -17l-23 -276h-1091q-31 0 -94.5 -12.5t-100.5 -12.5q-293 0 -492.5 197t-199.5 512zM377 739q0 -293 114.5 -472t299.5 -179q180 0 293.5 167t113.5 435q0 305 -112.5 480.5t-299 175.5t-298 -169.5t-111.5 -437.5z" />
<glyph unicode="&#x153;" horiz-adv-x="1781" d="M72 485q0 254 160.5 419t385.5 165q246 0 377 -190q160 190 400 190q162 0 245.5 -90t83.5 -225q0 -96 -24 -179h-619q0 -53 2 -75q12 -168 102.5 -264.5t237.5 -96.5q127 0 228 72l28 -39q8 -8 8.5 -14t-6.5 -13q-57 -78 -154 -124t-208 -46q-246 0 -371 179 q-158 -178 -381 -179q-215 0 -355 138.5t-140 371.5zM332 553q0 -207 70.5 -339t189.5 -132q117 0 184.5 110.5t67.5 294.5q0 213 -71 342t-189.5 129t-185 -110.5t-66.5 -294.5zM1085 653l310 19q59 4 83.5 33.5t24.5 89.5q0 174 -153 174q-109 0 -180 -93.5t-85 -222.5z " />
<glyph unicode="&#x154;" horiz-adv-x="1429" d="M68 45q102 31 125.5 45t23.5 37v1182q0 23 -23.5 37t-125.5 45l6 32q0 12 12 13h629q242 0 372 -98.5t130 -262.5q0 -147 -105.5 -247.5t-280.5 -129.5q123 -20 242 -145t289 -438q12 -23 34.5 -36t90.5 -34l-6 -33q0 -12 -13 -12h-356q-27 0 -37 25q-147 334 -249.5 472 t-190.5 150q-74 8 -148 8v-528q0 -23 24 -37t128 -45l-6 -33q0 -12 -10 -12h-535q-14 0 -14 12zM410 1565l290 321h228q29 0 35 -19.5t-23 -37.5l-489 -313l-39 22q-14 13 -2 27zM487 745q45 -6 93 -6q164 0 253 76t89 217q0 313 -332 314q-53 0 -103 -7v-594z" />
<glyph unicode="&#x155;" horiz-adv-x="933" d="M51 942l4 29q0 12 13 16l286 82q16 0 21 -10q33 -104 47 -303q53 143 154.5 228t203.5 85q86 0 127 -27q12 -8 13 -20v-274q0 -16 -13 -17l-47 -6q-12 143 -170 143q-111 0 -169 -86t-58 -235v-420q0 -16 9 -24.5t51 -22.5t139 -35l-7 -33q0 -12 -10 -12h-559 q-14 0 -14 12l-6 33q102 31 125.5 45t23.5 37v401q0 283 -47 361q-29 41 -117 53zM371 1196l291 322h227q29 0 35 -19.5t-23 -38.5l-489 -313l-39 22q-14 13 -2 27z" />
<glyph unicode="&#x156;" horiz-adv-x="1429" d="M68 45q102 31 125.5 45t23.5 37v1182q0 23 -23.5 37t-125.5 45l6 32q0 12 12 13h629q242 0 372 -98.5t130 -262.5q0 -147 -105.5 -247.5t-280.5 -129.5q123 -20 242 -145t289 -438q12 -23 34.5 -36t90.5 -34l-6 -33q0 -12 -13 -12h-356q-27 0 -37 25q-147 334 -249.5 472 t-190.5 150q-74 8 -148 8v-528q0 -23 24 -37t128 -45l-6 -33q0 -12 -10 -12h-535q-14 0 -14 12zM487 745q45 -6 93 -6q164 0 253 76t89 217q0 313 -332 314q-53 0 -103 -7v-594zM530 -686q143 127 193 278q-125 16 -125 117q0 57 40 96t112 39q90 0 149 -65 q-2 -139 -94 -284.5t-201 -209.5q-8 -4 -24 -4z" />
<glyph unicode="&#x157;" horiz-adv-x="933" d="M51 942l4 29q0 12 13 16l286 82q16 0 21 -10q33 -104 47 -303q53 143 154.5 228t203.5 85q86 0 127 -27q12 -8 13 -20v-274q0 -16 -13 -17l-47 -6q-12 143 -170 143q-111 0 -169 -86t-58 -235v-420q0 -16 9 -24.5t51 -22.5t139 -35l-7 -33q0 -12 -10 -12h-559 q-14 0 -14 12l-6 33q102 31 125.5 45t23.5 37v401q0 283 -47 361q-29 41 -117 53zM125 -686q143 127 192 278q-125 16 -124 117q0 57 39.5 96t111.5 39q90 0 150 -65q-2 -139 -94.5 -284.5t-200.5 -209.5q-8 -4 -25 -4z" />
<glyph unicode="&#x158;" horiz-adv-x="1429" d="M68 45q102 31 125.5 45t23.5 37v1182q0 23 -23.5 37t-125.5 45l6 32q0 12 12 13h629q242 0 372 -98.5t130 -262.5q0 -147 -105.5 -247.5t-280.5 -129.5q123 -20 242 -145t289 -438q12 -23 34.5 -36t90.5 -34l-6 -33q0 -12 -13 -12h-356q-27 0 -37 25q-147 334 -249.5 472 t-190.5 150q-74 8 -148 8v-528q0 -23 24 -37t128 -45l-6 -33q0 -12 -10 -12h-535q-14 0 -14 12zM315 1853q-12 23 2 27l48 21l270 -185l262 185l49 -21q14 -4 2 -27l-248 -305q-18 -27 -49 -26h-45q-33 0 -51 22zM487 745q45 -6 93 -6q164 0 253 76t89 217q0 313 -332 314 q-53 0 -103 -7v-594z" />
<glyph unicode="&#x159;" horiz-adv-x="933" d="M51 942l4 29q0 12 13 16l286 82q16 0 21 -10q33 -104 47 -303q53 143 154.5 228t203.5 85q86 0 127 -27q12 -8 13 -20v-274q0 -16 -13 -17l-47 -6q-12 143 -170 143q-111 0 -169 -86t-58 -235v-420q0 -16 9 -24.5t51 -22.5t139 -35l-7 -33q0 -12 -10 -12h-559 q-14 0 -14 12l-6 33q102 31 125.5 45t23.5 37v401q0 283 -47 361q-29 41 -117 53zM219 1485q-12 23 2 26l47 21l271 -184l262 184l49 -21q14 -4 2 -26l-248 -305q-18 -27 -49 -27h-45q-33 0 -51 23z" />
<glyph unicode="&#x15a;" horiz-adv-x="1124" d="M111 43v322q0 12 12 16l47 10q8 -150 99 -228.5t241 -78.5q141 0 221 62.5t80 164.5q0 90 -69.5 158t-169 115t-199 98t-169 138t-69.5 206q0 193 135.5 313.5t352.5 120.5q229 0 329 -63v-314q0 -12 -12 -16l-45 -8q-18 293 -289 293q-113 0 -176 -59.5t-63 -143.5 q0 -86 69.5 -150.5t170 -111.5t200.5 -100.5t170 -148.5t70 -226q0 -199 -144.5 -318t-388.5 -119q-294 0 -403 68zM356 1565l291 321h227q29 0 35 -19.5t-22 -37.5l-490 -313l-39 22q-14 13 -2 27z" />
<glyph unicode="&#x15b;" horiz-adv-x="903" d="M88 39v246q0 10 12 14l52 10q27 -233 258 -233q100 0 152 41t52 112q0 57 -52 101.5t-126 76t-147.5 69.5t-125.5 102.5t-52 152.5q0 147 104 242.5t295 95.5q160 0 250 -45q12 -4 12 -20v-244q0 -12 -12 -17l-51 -8q-14 123 -68.5 179.5t-155.5 56.5q-84 0 -129 -37 t-45 -98q0 -53 52.5 -95.5t127 -76t149.5 -73.5t127 -109.5t52 -164.5q0 -160 -122 -251t-318 -91q-160 0 -279 45q-12 5 -12 19zM274 1196l291 322h228q29 0 35 -19.5t-23 -38.5l-490 -313l-39 22q-14 13 -2 27z" />
<glyph unicode="&#x15c;" horiz-adv-x="1124" d="M111 43v322q0 12 12 16l47 10q8 -150 99 -228.5t241 -78.5q141 0 221 62.5t80 164.5q0 90 -69.5 158t-169 115t-199 98t-169 138t-69.5 206q0 193 135.5 313.5t352.5 120.5q229 0 329 -63v-314q0 -12 -12 -16l-45 -8q-18 293 -289 293q-113 0 -176 -59.5t-63 -143.5 q0 -86 69.5 -150.5t170 -111.5t200.5 -100.5t170 -148.5t70 -226q0 -199 -144.5 -318t-388.5 -119q-294 0 -403 68zM305 1565l248 307q20 25 49 24h45q33 0 51 -20l240 -311q14 -18 -2 -25l-49 -20l-269 182l-262 -182l-49 20q-16 7 -2 25z" />
<glyph unicode="&#x15d;" horiz-adv-x="903" d="M88 39v246q0 10 12 14l52 10q27 -233 258 -233q100 0 152 41t52 112q0 57 -52 101.5t-126 76t-147.5 69.5t-125.5 102.5t-52 152.5q0 147 104 242.5t295 95.5q160 0 250 -45q12 -4 12 -20v-244q0 -12 -12 -17l-51 -8q-14 123 -68.5 179.5t-155.5 56.5q-84 0 -129 -37 t-45 -98q0 -53 52.5 -95.5t127 -76t149.5 -73.5t127 -109.5t52 -164.5q0 -160 -122 -251t-318 -91q-160 0 -279 45q-12 5 -12 19zM168 1200l248 307q20 25 49 25h45q33 0 51 -21l240 -311q12 -20 -2 -26l-49 -19l-269 182l-262 -182l-49 19q-14 6 -2 26z" />
<glyph unicode="&#x15e;" horiz-adv-x="1124" d="M111 43v322q0 12 12 16l47 10q8 -150 99 -228.5t241 -78.5q141 0 221 62.5t80 164.5q0 90 -69.5 158t-169 115t-199 98t-169 138t-69.5 206q0 193 135.5 313.5t352.5 120.5q229 0 329 -63v-314q0 -12 -12 -16l-45 -8q-18 293 -289 293q-113 0 -176 -59.5t-63 -143.5 q0 -86 69.5 -150.5t170 -111.5t200.5 -100.5t170 -148.5t70 -226q0 -174 -114 -289t-312 -139l-62 -93q106 0 162.5 -47t56.5 -125q0 -88 -78.5 -146t-226.5 -58q-88 0 -145 30q-18 8 -11 29l17 43q57 -23 135 -23q57 0 95 24t38 65q0 90 -180 90q-29 0 -29 18l90 184 q-274 7 -372 68z" />
<glyph unicode="&#x15f;" horiz-adv-x="903" d="M88 39v246q0 10 12 14l52 10q27 -233 258 -233q100 0 152 41t52 112q0 57 -52 101.5t-126 76t-147.5 69.5t-125.5 102.5t-52 152.5q0 147 104 242.5t295 95.5q160 0 250 -45q12 -4 12 -20v-244q0 -12 -12 -17l-51 -8q-14 123 -68.5 179.5t-155.5 56.5q-84 0 -129 -37 t-45 -98q0 -53 52.5 -95.5t127 -76t149.5 -73.5t127 -109.5t52 -164.5q0 -135 -88 -221t-237 -110l-64 -95q106 0 162.5 -47t56.5 -125q0 -88 -78.5 -146t-226.5 -58q-86 0 -145 30q-18 8 -11 29l17 43q57 -23 135 -23q57 0 95 24t38 65q0 90 -180 90q-29 0 -29 18l90 184 q-156 6 -254 45q-12 5 -12 19z" />
<glyph unicode="&#x160;" horiz-adv-x="1124" d="M111 43v322q0 12 12 16l47 10q8 -150 99 -228.5t241 -78.5q141 0 221 62.5t80 164.5q0 90 -69.5 158t-169 115t-199 98t-169 138t-69.5 206q0 193 135.5 313.5t352.5 120.5q229 0 329 -63v-314q0 -12 -12 -16l-45 -8q-18 293 -289 293q-113 0 -176 -59.5t-63 -143.5 q0 -86 69.5 -150.5t170 -111.5t200.5 -100.5t170 -148.5t70 -226q0 -199 -144.5 -318t-388.5 -119q-294 0 -403 68zM262 1853q-12 23 2 27l47 21l271 -185l262 185l49 -21q14 -4 2 -27l-248 -305q-18 -27 -49 -26h-45q-33 0 -51 22z" />
<glyph unicode="&#x161;" horiz-adv-x="903" d="M88 39v246q0 10 12 14l52 10q27 -233 258 -233q100 0 152 41t52 112q0 57 -52 101.5t-126 76t-147.5 69.5t-125.5 102.5t-52 152.5q0 147 104 242.5t295 95.5q160 0 250 -45q12 -4 12 -20v-244q0 -12 -12 -17l-51 -8q-14 123 -68.5 179.5t-155.5 56.5q-84 0 -129 -37 t-45 -98q0 -53 52.5 -95.5t127 -76t149.5 -73.5t127 -109.5t52 -164.5q0 -160 -122 -251t-318 -91q-160 0 -279 45q-12 5 -12 19zM162 1485q-12 23 2 26l47 21l270 -184l262 184l50 -21q14 -4 2 -26l-248 -305q-18 -27 -49 -27h-45q-33 0 -52 23z" />
<glyph unicode="&#x162;" horiz-adv-x="1206" d="M-12 1130l26 306h1178l29 -306q0 -12 -13 -16l-43 -6q-23 123 -91 159t-238 42l-86 2v-1182q0 -25 23.5 -39t125.5 -45l-6 -33q0 -12 -10 -12h-533q-14 0 -14 12l-6 33q102 31 125.5 45t23.5 39v1184l-106 -4q-170 -6 -238.5 -42t-91.5 -159l-43 6q-12 4 -12 16z M385 -686q143 127 193 278q-125 16 -125 117q0 57 39.5 96t111.5 39q90 0 150 -65q-2 -139 -94.5 -284.5t-200.5 -209.5q-8 -4 -25 -4z" />
<glyph unicode="&#x163;" horiz-adv-x="823" d="M-8 922l6 51q0 23 20 22q158 49 239 138.5t101 248.5q4 18 23 21l57 8v-379q352 12 363 12l-13 -108q0 -14 -12 -14h-338v-576q0 -215 178 -215q104 0 164 45l23 -31q6 -6 6 -14t-6 -16q-129 -139 -320 -140q-143 0 -218 73t-75 259v615h-198zM225 -686q143 127 193 278 q-125 16 -125 117q0 57 40 96t111 39q90 0 150 -65q-2 -139 -94 -284.5t-201 -209.5q-8 -4 -25 -4z" />
<glyph unicode="&#x164;" horiz-adv-x="1206" d="M-12 1130l26 306h1178l29 -306q0 -12 -13 -16l-43 -6q-23 123 -91 159t-238 42l-86 2v-1182q0 -25 23.5 -39t125.5 -45l-6 -33q0 -12 -10 -12h-533q-14 0 -14 12l-6 33q102 31 125.5 45t23.5 39v1184l-106 -4q-170 -6 -238.5 -42t-91.5 -159l-43 6q-12 4 -12 16z M289 1853q-12 23 2 27l47 21l270 -185l262 185l50 -21q14 -4 2 -27l-248 -305q-18 -27 -49 -26h-45q-33 0 -52 22z" />
<glyph unicode="&#x165;" horiz-adv-x="823" d="M-8 922l6 51q0 23 20 22q158 49 239 138.5t101 248.5q4 18 23 21l57 8v-379q352 12 363 12l-13 -108q0 -14 -12 -14h-338v-576q0 -215 178 -215q104 0 164 45l23 -31q6 -6 6 -14t-6 -16q-129 -139 -320 -140q-143 0 -218 73t-75 259v615h-198zM621 1202l12 357h160 q47 0 26 -52l-137 -321h-47q-14 0 -14 16z" />
<glyph unicode="&#x166;" horiz-adv-x="1206" d="M-12 1130l26 306h1178l29 -306q0 -12 -13 -16l-43 -6q-23 123 -91 159t-238 42l-86 2v-635h256l-23 -131q0 -10 -10 -10h-223v-406q0 -25 23.5 -39t125.5 -45l-6 -33q0 -12 -10 -12h-533q-14 0 -14 12l-6 33q102 31 125.5 45t23.5 39v406h-252l21 129q0 12 8 12h223v637 l-106 -4q-170 -6 -238.5 -42t-91.5 -159l-43 6q-12 4 -12 16z" />
<glyph unicode="&#x167;" horiz-adv-x="823" d="M-8 922l6 51q0 23 20 22q158 49 239 138.5t101 248.5q4 18 23 21l57 8v-379q352 12 363 12l-13 -108q0 -14 -12 -14h-338v-277h260l-18 -110q0 -10 -8 -11h-234v-178q0 -215 178 -215q104 0 164 45l23 -31q6 -6 6 -14t-6 -16q-129 -139 -320 -140q-143 0 -218 73t-75 259 v217h-157l18 111q0 10 6 10h133v277h-198z" />
<glyph unicode="&#x168;" horiz-adv-x="1458" d="M55 1391l6 32q0 12 13 13h532q12 0 12 -13l7 -32q-102 -31 -126 -44.5t-24 -33.5v-860q0 -150 96.5 -233t227.5 -83q143 0 237 80t94 246v850q0 20 -23.5 33.5t-125.5 44.5l6 32q0 12 14 13h388q14 0 14 -13l6 -32q-102 -31 -125.5 -44.5t-23.5 -33.5v-897 q0 -209 -157 -325t-372 -116q-213 0 -369.5 116t-156.5 325v897q0 20 -24 33.5t-126 44.5zM457 1550q4 137 59 225.5t139 88.5q57 0 147.5 -62.5t129.5 -62.5q104 0 110 141l62 -8q-2 -139 -54.5 -224t-134.5 -85q-68 0 -151.5 60t-122.5 60q-115 0 -119 -149z" />
<glyph unicode="&#x169;" horiz-adv-x="1288" d="M35 999l6 33q0 12 10 12h375q14 0 14 -16q0 -8 -2 -50t-4 -112.5t-2 -150.5v-301q0 -143 37 -200.5t137 -57.5q109 0 183.5 80.5t74.5 214.5v469q0 23 -23.5 36t-125.5 43l6 33q0 12 10 12h373q14 0 14 -16q0 -8 -2 -50t-4 -112.5t-2 -150.5v-473q0 -113 20.5 -144.5 t106.5 -52.5l-6 -31q0 -14 -12 -14h-285q-16 0 -21 14q-23 109 -22 228q-61 -104 -176 -185.5t-238 -81.5q-154 0 -223.5 86t-69.5 281v573q0 25 -23.5 39t-125.5 45zM344 1184q4 137 59.5 226t139.5 89q57 0 147 -62.5t129 -62.5q104 0 111 142l61 -9q-2 -139 -53 -224 t-135 -85q-68 0 -152 60.5t-123 60.5q-115 0 -118 -152z" />
<glyph unicode="&#x16a;" horiz-adv-x="1458" d="M55 1391l6 32q0 12 13 13h532q12 0 12 -13l7 -32q-102 -31 -126 -44.5t-24 -33.5v-860q0 -150 96.5 -233t227.5 -83q143 0 237 80t94 246v850q0 20 -23.5 33.5t-125.5 44.5l6 32q0 12 14 13h388q14 0 14 -13l6 -32q-102 -31 -125.5 -44.5t-23.5 -33.5v-897 q0 -209 -157 -325t-372 -116q-213 0 -369.5 116t-156.5 325v897q0 20 -24 33.5t-126 44.5zM465 1599v144h532v-144h-532z" />
<glyph unicode="&#x16b;" horiz-adv-x="1288" d="M35 999l6 33q0 12 10 12h375q14 0 14 -16q0 -8 -2 -50t-4 -112.5t-2 -150.5v-301q0 -143 37 -200.5t137 -57.5q109 0 183.5 80.5t74.5 214.5v469q0 23 -23.5 36t-125.5 43l6 33q0 12 10 12h373q14 0 14 -16q0 -8 -2 -50t-4 -112.5t-2 -150.5v-473q0 -113 20.5 -144.5 t106.5 -52.5l-6 -31q0 -14 -12 -14h-285q-16 0 -21 14q-23 109 -22 228q-61 -104 -176 -185.5t-238 -81.5q-154 0 -223.5 86t-69.5 281v573q0 25 -23.5 39t-125.5 45zM369 1257v146h532v-146h-532z" />
<glyph unicode="&#x16c;" horiz-adv-x="1458" d="M55 1391l6 32q0 12 13 13h532q12 0 12 -13l7 -32q-102 -31 -126 -44.5t-24 -33.5v-860q0 -150 96.5 -233t227.5 -83q143 0 237 80t94 246v850q0 20 -23.5 33.5t-125.5 44.5l6 32q0 12 14 13h388q14 0 14 -13l6 -32q-102 -31 -125.5 -44.5t-23.5 -33.5v-897 q0 -209 -157 -325t-372 -116q-213 0 -369.5 116t-156.5 325v897q0 20 -24 33.5t-126 44.5zM543 1851h82q0 -74 47 -112.5t114 -38.5q63 0 107.5 38t44.5 113h82q0 -152 -66.5 -227.5t-181.5 -75.5q-111 0 -170 75.5t-59 227.5z" />
<glyph unicode="&#x16d;" horiz-adv-x="1288" d="M35 999l6 33q0 12 10 12h375q14 0 14 -16q0 -8 -2 -50t-4 -112.5t-2 -150.5v-301q0 -143 37 -200.5t137 -57.5q109 0 183.5 80.5t74.5 214.5v469q0 23 -23.5 36t-125.5 43l6 33q0 12 10 12h373q14 0 14 -16q0 -8 -2 -50t-4 -112.5t-2 -150.5v-473q0 -113 20.5 -144.5 t106.5 -52.5l-6 -31q0 -14 -12 -14h-285q-16 0 -21 14q-23 109 -22 228q-61 -104 -176 -185.5t-238 -81.5q-154 0 -223.5 86t-69.5 281v573q0 25 -23.5 39t-125.5 45zM397 1468h82q0 -76 47 -114.5t115 -38.5q63 0 107.5 38t44.5 115h81q0 -152 -66.5 -227.5t-180.5 -75.5 q-230 0 -230 303z" />
<glyph unicode="&#x16e;" horiz-adv-x="1458" d="M55 1391l6 32q0 12 13 13h532q12 0 12 -13l7 -32q-102 -31 -126 -44.5t-24 -33.5v-860q0 -150 96.5 -233t227.5 -83q143 0 237 80t94 246v850q0 20 -23.5 33.5t-125.5 44.5l6 32q0 12 14 13h388q14 0 14 -13l6 -32q-102 -31 -125.5 -44.5t-23.5 -33.5v-897 q0 -209 -157 -325t-372 -116q-213 0 -369.5 116t-156.5 325v897q0 20 -24 33.5t-126 44.5zM555 1690q0 92 64.5 153.5t164.5 61.5q106 0 169 -58.5t63 -156.5q0 -94 -64.5 -154.5t-167.5 -60.5q-98 0 -163.5 58.5t-65.5 156.5zM686 1689.5q0 -53.5 32 -88t75 -34.5 q45 0 75.5 34.5t30.5 88t-30.5 88t-75.5 34.5q-43 0 -75 -34.5t-32 -88z" />
<glyph unicode="&#x16f;" horiz-adv-x="1288" d="M35 999l6 33q0 12 10 12h375q14 0 14 -16q0 -8 -2 -50t-4 -112.5t-2 -150.5v-301q0 -143 37 -200.5t137 -57.5q109 0 183.5 80.5t74.5 214.5v469q0 23 -23.5 36t-125.5 43l6 33q0 12 10 12h373q14 0 14 -16q0 -8 -2 -50t-4 -112.5t-2 -150.5v-473q0 -113 20.5 -144.5 t106.5 -52.5l-6 -31q0 -14 -12 -14h-285q-16 0 -21 14q-23 109 -22 228q-61 -104 -176 -185.5t-238 -81.5q-154 0 -223.5 86t-69.5 281v573q0 25 -23.5 39t-125.5 45zM406 1391q0 92 64.5 154.5t164.5 62.5q106 0 168.5 -58.5t62.5 -158.5q0 -94 -64.5 -153.5t-166.5 -59.5 q-98 0 -163.5 58.5t-65.5 154.5zM537 1391q0 -51 31.5 -86t74.5 -35q45 0 76 34.5t31 86.5q0 55 -31 90t-76 35q-43 0 -74.5 -36t-31.5 -89z" />
<glyph unicode="&#x170;" horiz-adv-x="1458" d="M55 1391l6 32q0 12 13 13h532q12 0 12 -13l7 -32q-102 -31 -126 -44.5t-24 -33.5v-860q0 -150 96.5 -233t227.5 -83q143 0 237 80t94 246v850q0 20 -23.5 33.5t-125.5 44.5l6 32q0 12 14 13h388q14 0 14 -13l6 -32q-102 -31 -125.5 -44.5t-23.5 -33.5v-897 q0 -209 -157 -325t-372 -116q-213 0 -369.5 116t-156.5 325v897q0 20 -24 33.5t-126 44.5zM408 1561l254 321h196q25 0 30 -19.5t-20 -37.5l-422 -312l-36 23q-16 11 -2 25zM821 1561l256 321h195q25 0 30 -19.5t-20 -37.5l-420 -312l-39 23q-16 11 -2 25z" />
<glyph unicode="&#x171;" horiz-adv-x="1288" d="M35 999l6 33q0 12 10 12h375q14 0 14 -16q0 -8 -2 -50t-4 -112.5t-2 -150.5v-301q0 -143 37 -200.5t137 -57.5q109 0 183.5 80.5t74.5 214.5v469q0 23 -23.5 36t-125.5 43l6 33q0 12 10 12h373q14 0 14 -16q0 -8 -2 -50t-4 -112.5t-2 -150.5v-473q0 -113 20.5 -144.5 t106.5 -52.5l-6 -31q0 -14 -12 -14h-285q-16 0 -21 14q-23 109 -22 228q-61 -104 -176 -185.5t-238 -81.5q-154 0 -223.5 86t-69.5 281v573q0 25 -23.5 39t-125.5 45zM285 1196l254 322h196q25 0 30 -19.5t-20 -38.5l-421 -313l-37 22q-16 11 -2 27zM698 1196l256 322h195 q25 0 30 -19.5t-20 -38.5l-420 -313l-39 22q-16 11 -2 27z" />
<glyph unicode="&#x172;" horiz-adv-x="1458" d="M55 1391l6 32q0 12 13 13h532q12 0 12 -13l7 -32q-102 -31 -126 -44.5t-24 -33.5v-860q0 -150 96.5 -233t227.5 -83q143 0 237 80t94 246v850q0 20 -23.5 33.5t-125.5 44.5l6 32q0 12 14 13h388q14 0 14 -13l6 -32q-102 -31 -125.5 -44.5t-23.5 -33.5v-897 q0 -170 -105.5 -278.5t-269.5 -145.5q-168 -92 -168 -244q0 -131 143 -131q59 0 121 16l10 -47q6 -29 -12 -35q-88 -31 -199 -30q-252 0 -252 182q0 172 205 272h-2q-213 0 -369.5 116t-156.5 325v897q0 20 -24 33.5t-126 44.5z" />
<glyph unicode="&#x173;" horiz-adv-x="1288" d="M35 999l6 33q0 12 10 12h375q14 0 14 -16q0 -8 -2 -50t-4 -112.5t-2 -150.5v-301q0 -143 37 -200.5t137 -57.5q109 0 183.5 80.5t74.5 214.5v469q0 23 -23.5 36t-125.5 43l6 33q0 12 10 12h373q14 0 14 -16q0 -8 -2 -50t-4 -112.5t-2 -150.5v-473q0 -113 20.5 -144.5 t106.5 -52.5l-6 -31q0 -14 -12 -14h-2q-88 -45 -135.5 -113.5t-47.5 -138.5q0 -131 144 -131q59 0 120 16l11 -47q6 -29 -13 -35q-88 -31 -198 -30q-252 0 -252 182q0 92 66.5 170t195.5 127h-174q-16 0 -21 14q-23 109 -22 228q-61 -104 -176 -185.5t-238 -81.5 q-154 0 -223.5 86t-69.5 281v573q0 25 -23.5 39t-125.5 45z" />
<glyph unicode="&#x174;" horiz-adv-x="1896" d="M-12 1391l6 32q0 12 8 13h520q10 0 10 -13l7 -32q-133 -33 -133 -62q0 -8 6 -20q195 -643 272 -957q203 653 268 1000h131q139 -430 283 -1000q78 254 162 584t84 375q0 29 -20.5 44t-96.5 36l6 32q4 12 10 13h381q8 0 13 -13l6 -32q-78 -20 -107.5 -54t-62.5 -132.5 t-377 -1208.5h-166q-96 365 -252 862q-111 -420 -268 -862h-162q-197 702 -412 1321q-6 20 -27 34.5t-89 39.5zM729 1565l248 307q20 25 49 24h45q33 0 51 -20l240 -311q14 -18 -2 -25l-49 -20l-269 182l-262 -182l-49 20q-16 7 -2 25z" />
<glyph unicode="&#x175;" horiz-adv-x="1638" d="M-49 999l4 33q4 12 14 12h516q8 0 13 -12l6 -33q-152 -29 -152 -57q0 -4 4 -20q129 -326 226 -631q43 109 92 252t100 297.5t68 203.5h92q152 -391 272 -753q209 537 209 629q0 18 -6 29.5t-36 24.5t-87 25l6 33q0 12 11 12h374q10 0 15 -12l6 -33q-82 -18 -115 -53 t-76 -135q-41 -90 -154.5 -389t-168.5 -426h-123q-125 369 -242 676q-227 -592 -264 -676h-121q-147 444 -348 930q-6 12 -12 20t-37 23.5t-86 29.5zM545 1200l248 307q20 25 49 25h45q33 0 51 -21l240 -311q12 -20 -2 -26l-50 -19l-268 182l-262 -182l-49 19q-14 6 -2 26z " />
<glyph unicode="&#x176;" horiz-adv-x="1312" d="M-92 1391l4 32q4 12 14 13h578q6 0 10 -13l6 -32q-66 -14 -99.5 -24.5t-40.5 -18t-7 -17.5q0 -12 14 -28q238 -301 350 -496l172 252q133 199 133 250q0 29 -23.5 45t-109.5 37l6 32q4 12 13 13h450q10 0 15 -13l6 -32q-94 -18 -142 -54q-72 -59 -184 -227l-272 -391 v-590q0 -25 23.5 -39t125.5 -45l-6 -33q0 -12 -10 -12h-533q-14 0 -14 12l-6 33q102 31 125.5 45t23.5 39v502q-201 336 -485 686q-20 29 -42.5 42.5t-94.5 31.5zM418 1565l248 307q20 25 49 24h45q33 0 51 -20l240 -311q14 -18 -2 -25l-50 -20l-268 182l-262 -182l-49 20 q-16 7 -2 25z" />
<glyph unicode="&#x177;" horiz-adv-x="1028" d="M-102 -319q-10 12 2 28l24 33q82 -53 178 -53q106 0 191.5 63.5t150.5 257.5q-113 332 -354 916q-18 41 -135 73l4 33q4 12 14 12h512q8 0 13 -12l6 -33q-147 -29 -148 -57q0 -4 4 -20q127 -309 232 -635q215 543 215 633q0 27 -22.5 45t-104.5 34l6 33q0 12 10 12h373 q10 0 14 -12l7 -33q-80 -18 -113 -53t-78 -135q-49 -113 -209 -518.5t-211 -528.5q-53 -133 -130 -188t-193 -55q-158 0 -258 160zM236 1200l247 307q20 25 49 25h46q33 0 51 -21l239 -311q12 -20 -2 -26l-49 -19l-268 182l-262 -182l-49 19q-14 6 -2 26z" />
<glyph unicode="&#x178;" horiz-adv-x="1312" d="M-92 1391l4 32q4 12 14 13h578q6 0 10 -13l6 -32q-66 -14 -99.5 -24.5t-40.5 -18t-7 -17.5q0 -12 14 -28q238 -301 350 -496l172 252q133 199 133 250q0 29 -23.5 45t-109.5 37l6 32q4 12 13 13h450q10 0 15 -13l6 -32q-94 -18 -142 -54q-72 -59 -184 -227l-272 -391 v-590q0 -25 23.5 -39t125.5 -45l-6 -33q0 -12 -10 -12h-533q-14 0 -14 12l-6 33q102 31 125.5 45t23.5 39v502q-201 336 -485 686q-20 29 -42.5 42.5t-94.5 31.5zM354 1691.5q0 53.5 37 90.5t90.5 37t91 -37t37.5 -90.5t-37.5 -92t-91 -38.5t-90.5 38.5t-37 92zM807 1692 q0 53 37 90t92 37q53 0 89 -37t36 -90q0 -55 -36 -93t-89 -38q-55 0 -92 38t-37 93z" />
<glyph unicode="&#x179;" horiz-adv-x="1318" d="M25 55q510 686 888 1268l-393 -4q-162 -2 -233.5 -47t-108.5 -189l-45 9q-12 4 -12 14l26 311q0 6 8.5 12.5t16.5 6.5h1077q12 0 17 -17l10 -39q-487 -752 -868 -1269l469 12q162 4 237.5 50t102.5 177l38 -8q14 -4 15 -14l-25 -310q0 -18 -24 -18h-1168q-14 0 -18 16z M528 1565l291 321h228q29 0 34.5 -19.5t-22.5 -37.5l-490 -313l-39 22q-14 13 -2 27z" />
<glyph unicode="&#x17a;" horiz-adv-x="1081" d="M41 55q340 428 647 893l-229 -4q-152 -4 -213.5 -42t-79.5 -148l-43 8q-12 4 -12 14l24 250q0 6 7.5 12t15.5 6h827q12 0 16 -16l9 -39q-354 -524 -629 -895l301 8q156 2 216 38t79 153l43 -8q12 -4 12 -15l-22 -252q0 -6 -7.5 -12t-15.5 -6h-921q-12 0 -17 16zM397 1196 l291 322h227q29 0 35 -19.5t-22 -38.5l-490 -313l-39 22q-14 13 -2 27z" />
<glyph unicode="&#x17b;" horiz-adv-x="1318" d="M25 55q510 686 888 1268l-393 -4q-162 -2 -233.5 -47t-108.5 -189l-45 9q-12 4 -12 14l26 311q0 6 8.5 12.5t16.5 6.5h1077q12 0 17 -17l10 -39q-487 -752 -868 -1269l469 12q162 4 237.5 50t102.5 177l38 -8q14 -4 15 -14l-25 -310q0 -18 -24 -18h-1168q-14 0 -18 16z M565 1738.5q0 59.5 42 102.5t104 43q59 0 102 -43t43 -102.5t-43 -102.5t-102 -43q-61 0 -103.5 43t-42.5 102.5z" />
<glyph unicode="&#x17c;" horiz-adv-x="1081" d="M41 55q340 428 647 893l-229 -4q-152 -4 -213.5 -42t-79.5 -148l-43 8q-12 4 -12 14l24 250q0 6 7.5 12t15.5 6h827q12 0 16 -16l9 -39q-354 -524 -629 -895l301 8q156 2 216 38t79 153l43 -8q12 -4 12 -15l-22 -252q0 -6 -7.5 -12t-15.5 -6h-921q-12 0 -17 16zM418 1374 q0 59 42 102.5t103 43.5q59 0 102.5 -43t43.5 -103q0 -61 -43 -104t-103 -43q-61 0 -103 43t-42 104z" />
<glyph unicode="&#x17d;" horiz-adv-x="1318" d="M25 55q510 686 888 1268l-393 -4q-162 -2 -233.5 -47t-108.5 -189l-45 9q-12 4 -12 14l26 311q0 6 8.5 12.5t16.5 6.5h1077q12 0 17 -17l10 -39q-487 -752 -868 -1269l469 12q162 4 237.5 50t102.5 177l38 -8q14 -4 15 -14l-25 -310q0 -18 -24 -18h-1168q-14 0 -18 16z M387 1853q-12 23 2 27l47 21l271 -185l262 185l49 -21q14 -4 2 -27l-248 -305q-18 -27 -49 -26h-45q-33 0 -51 22z" />
<glyph unicode="&#x17e;" horiz-adv-x="1081" d="M41 55q340 428 647 893l-229 -4q-152 -4 -213.5 -42t-79.5 -148l-43 8q-12 4 -12 14l24 250q0 6 7.5 12t15.5 6h827q12 0 16 -16l9 -39q-354 -524 -629 -895l301 8q156 2 216 38t79 153l43 -8q12 -4 12 -15l-22 -252q0 -6 -7.5 -12t-15.5 -6h-921q-12 0 -17 16zM266 1485 q-12 23 2 26l47 21l271 -184l262 184l49 -21q14 -4 2 -26l-248 -305q-18 -27 -49 -27h-45q-33 0 -51 23z" />
<glyph unicode="&#x17f;" horiz-adv-x="679" d="M51 45q102 31 126 44t24 34v1038q0 190 110.5 283.5t288.5 93.5q176 0 305 -90q14 -14 8 -33l-14 -47q-88 47 -219 47q-233 0 -234 -250v-1042q0 -14 8.5 -22.5t51.5 -21.5t139 -34l-6 -33q0 -12 -10 -12h-557q-14 0 -15 12z" />
<glyph unicode="&#x192;" horiz-adv-x="749" d="M-160 -342q-10 14 2 27l27 30q66 -45 160 -45q193 0 192 234v1030h-182l12 96q0 14 12 14h158v134q0 184 97.5 272t246.5 88q92 0 169 -27.5t108 -64.5q12 -12 8 -33l-10 -47q-84 33 -185 33q-92 0 -139 -50.5t-47 -174.5v-130h266l-12 -96q0 -14 -12 -14h-242v-1094 q0 -154 -82 -236.5t-242 -82.5q-192 0 -305 137z" />
<glyph unicode="&#x1f5;" horiz-adv-x="1163" d="M51 -236q0 74 52.5 145t150.5 118q-68 20 -117 75.5t-55 114.5q115 84 207 201q-150 82 -150 276q0 160 116 267.5t298 107.5q53 0 157.5 -14.5t141.5 -14.5q111 0 307 15l-12 -113q0 -14 -10 -14l-267 10q43 -33 74 -101.5t31 -136.5q0 -166 -112.5 -255t-295.5 -89 q-121 0 -205 23q-61 -35 -61 -94q0 -47 49 -66.5t144 -21.5q53 0 157.5 3t145.5 1q137 -4 213.5 -71t76.5 -181q0 -174 -178 -301t-465 -127q-188 0 -290.5 70.5t-102.5 172.5zM256 -127q0 -76 84 -130t250 -54q317 0 317 170q0 133 -219 135q-285 6 -360 16 q-72 -51 -72 -137zM377 725q0 -121 56 -200t140 -79q76 0 123 66t47 176q0 127 -52 204t-138 77q-78 0 -127 -66.5t-49 -177.5zM430 1196l291 322h227q29 0 35 -19.5t-22 -38.5l-490 -313l-39 22q-14 13 -2 27z" />
<glyph unicode="&#x1fc;" horiz-adv-x="1933" d="M-96 45q94 27 138 58.5t124 125.5q51 63 821 1065q2 4 2 15q0 47 -155 82l6 32q0 12 14 13h934q16 -186 22 -269q0 -12 -12 -16l-43 -8q-27 106 -62.5 136t-123.5 34l-316 8v-510q270 4 461 25v-150q-207 25 -461 25v-596l316 4q53 0 78.5 2t60.5 11t54.5 27.5t38 52.5 t30.5 85l43 -6q12 -4 12 -17l-22 -274h-1010q-14 0 -14 12l-6 33q102 31 125.5 44t23.5 36v313h-498q-217 -299 -217 -338q0 -14 20.5 -26.5t88.5 -28.5l-6 -33q-4 -12 -13 -12h-434q-10 0 -14 12zM553 535h430v583q-332 -442 -430 -583zM1133 1565l290 321h228 q29 0 35 -19.5t-23 -37.5l-489 -313l-39 22q-14 13 -2 27z" />
<glyph unicode="&#x1fd;" horiz-adv-x="1593" d="M68 227q0 166 157.5 271.5t429.5 148.5v82q0 104 -50 168t-150 64q-47 0 -103 -17q10 -31 10 -53q0 -59 -39.5 -93t-93.5 -34q-45 0 -85 38t-42 103q72 66 201 114t266 48q117 0 179.5 -37t89.5 -117q137 154 364 154q160 0 246 -88t86 -221q0 -98 -43 -195 q-266 29 -500 29h-104q-2 -14 -2 -41q0 -186 92 -300t252 -114q127 0 231 72l29 -39q8 -8 8 -14q0 -4 -6 -13q-127 -168 -369 -168q-322 0 -409 310q-111 -309 -375 -310q-123 0 -196.5 65.5t-73.5 186.5zM305 297q0 -68 40 -103.5t99 -35.5q113 0 162 88t49 325 q-350 -59 -350 -274zM678 1196l278 322h232q29 0 35 -19.5t-23 -38.5l-483 -313l-37 22q-16 13 -2 27zM895 670q131 8 197 8q20 0 62 -1t71 -1q51 0 71.5 26.5t20.5 90.5q0 76 -39 126t-119 50q-100 0 -172 -79t-92 -220z" />
<glyph unicode="&#x1fe;" horiz-adv-x="1517" d="M41 0l192 221q-152 188 -151 463q0 352 198.5 564t503.5 212q233 0 404 -141l104 117h183l-191 -219q152 -195 152 -474q0 -342 -194.5 -555t-496.5 -213q-240 0 -415 146l-105 -121h-184zM373 739q0 -166 43 -307l631 723q-102 190 -289 191q-176 0 -280.5 -168.5 t-104.5 -438.5zM471 283q106 -195 291 -195q174 0 278.5 167t104.5 435q0 172 -43 314zM561 1565l291 321h227q29 0 35 -19.5t-22 -37.5l-490 -313l-39 22q-14 13 -2 27z" />
<glyph unicode="&#x1ff;" horiz-adv-x="1175" d="M27 0l145 160q-100 137 -100 325q0 254 160.5 419t385.5 165q168 0 297 -94l62 69h174l-147 -159q100 -141 100 -332q0 -244 -153.5 -411t-383.5 -167q-174 0 -303 95l-63 -70h-174zM332 553q0 -98 20 -195l424 465q-72 135 -192 135q-119 0 -185.5 -110.5t-66.5 -294.5z M356 1196l279 322h231q29 0 35 -19.5t-22 -38.5l-484 -313l-37 22q-16 13 -2 27zM399 219q72 -137 193 -137q117 0 184.5 110.5t67.5 294.5q0 115 -21 197z" />
<glyph unicode="&#x218;" horiz-adv-x="1124" d="M111 43v322q0 12 12 16l47 10q8 -150 99 -228.5t241 -78.5q141 0 221 62.5t80 164.5q0 90 -69.5 158t-169 115t-199 98t-169 138t-69.5 206q0 193 135.5 313.5t352.5 120.5q229 0 329 -63v-314q0 -12 -12 -16l-45 -8q-18 293 -289 293q-113 0 -176 -59.5t-63 -143.5 q0 -86 69.5 -150.5t170 -111.5t200.5 -100.5t170 -148.5t70 -226q0 -199 -144.5 -318t-388.5 -119q-294 0 -403 68zM326 -686q143 127 192 278q-125 16 -125 117q0 57 40 96t112 39q90 0 149 -65q-2 -139 -94 -284.5t-201 -209.5q-8 -4 -24 -4z" />
<glyph unicode="&#x219;" horiz-adv-x="903" d="M88 39v246q0 10 12 14l52 10q27 -233 258 -233q100 0 152 41t52 112q0 57 -52 101.5t-126 76t-147.5 69.5t-125.5 102.5t-52 152.5q0 147 104 242.5t295 95.5q160 0 250 -45q12 -4 12 -20v-244q0 -12 -12 -17l-51 -8q-14 123 -68.5 179.5t-155.5 56.5q-84 0 -129 -37 t-45 -98q0 -53 52.5 -95.5t127 -76t149.5 -73.5t127 -109.5t52 -164.5q0 -160 -122 -251t-318 -91q-160 0 -279 45q-12 5 -12 19zM244 -686q143 127 192 278q-125 16 -125 117q0 57 40 96t112 39q90 0 149 -65q-2 -139 -94 -284.5t-201 -209.5q-8 -4 -24 -4z" />
<glyph unicode="&#x237;" horiz-adv-x="612" d="M-180 -330l20 37q70 -45 166 -45q193 0 193 232v917q0 63 -26 90t-101 41l6 31q0 14 12 16l336 78q18 4 18 -10v-1213q0 -156 -89 -239.5t-249 -83.5q-186 0 -286 121q-10 14 0 28z" />
<glyph unicode="&#x2c6;" horiz-adv-x="1013" d="M190 1200l248 307q20 25 49 25h45q33 0 52 -21l239 -311q12 -20 -2 -26l-49 -19l-268 182l-262 -182l-49 19q-15 6 -3 26z" />
<glyph unicode="&#x2c7;" horiz-adv-x="1015" d="M193 1485q-12 23 2 26l47 21l270 -184l262 184l49 -21q14 -4 2 -26l-247 -305q-18 -27 -50 -27h-45q-33 0 -51 23z" />
<glyph unicode="&#x2d8;" horiz-adv-x="845" d="M184 1468h82q0 -76 47 -114.5t115 -38.5q63 0 107.5 38t44.5 115h82q0 -152 -67 -227.5t-181 -75.5q-230 0 -230 303z" />
<glyph unicode="&#x2d9;" horiz-adv-x="659" d="M184 1374q0 59 42 102.5t104 43.5q59 0 102 -43t43 -103q0 -61 -43 -104t-102 -43q-61 0 -103.5 43t-42.5 104z" />
<glyph unicode="&#x2da;" horiz-adv-x="817" d="M178 1391q0 92 64.5 154.5t165.5 62.5q106 0 168.5 -58.5t62.5 -158.5q0 -94 -64.5 -153.5t-166.5 -59.5q-98 0 -164 58.5t-66 154.5zM309 1391q0 -51 32 -86t75 -35q45 0 75.5 34.5t30.5 86.5q0 55 -30.5 90t-75.5 35q-43 0 -75 -36t-32 -89z" />
<glyph unicode="&#x2db;" horiz-adv-x="833" d="M184 -297q0 92 66.5 170t195.5 127h109q-88 -45 -135 -113.5t-47 -138.5q0 -131 143 -131q59 0 121 16l10 -47q6 -29 -12 -35q-88 -31 -199 -30q-252 0 -252 182z" />
<glyph unicode="&#x2dc;" horiz-adv-x="1015" d="M184 1184q4 137 59.5 226t139.5 89q57 0 147.5 -62.5t128.5 -62.5q104 0 111 142l61 -9q-2 -139 -53 -224t-135 -85q-68 0 -151.5 60.5t-122.5 60.5q-115 0 -119 -152z" />
<glyph unicode="&#x2dd;" horiz-adv-x="1269" d="M190 1196l254 322h197q25 0 30 -19.5t-20 -38.5l-422 -313l-36 22q-17 11 -3 27zM604 1196l256 322h195q25 0 30 -19.5t-20 -38.5l-420 -313l-39 22q-16 11 -2 27z" />
<glyph unicode="&#x1e80;" horiz-adv-x="1896" d="M-16 1391l6 32q0 12 10 13h510q8 0 8 -13l6 -32q-133 -33 -133 -62q0 -4 4 -20q180 -582 279 -965q205 645 274 1006h125q168 -520 289 -1006q76 246 163 584t87 383q0 27 -21.5 43t-97.5 37l6 32q0 12 8 13h387q10 0 11 -13l6 -32q-78 -20 -110 -54t-64 -133 q-57 -170 -195.5 -621.5t-181.5 -586.5h-156q-106 389 -262 878q-104 -401 -276 -878h-154q-156 569 -410 1321q-6 14 -13 22.5t-32.5 22t-72.5 29.5zM595 1862.5q5 19.5 36 19.5h227l289 -321q18 -14 -2 -25l-37 -23l-490 312q-28 18 -23 37.5z" />
<glyph unicode="&#x1e81;" horiz-adv-x="1638" d="M-49 999l4 33q4 12 14 12h516q8 0 13 -12l6 -33q-152 -29 -152 -57q0 -4 4 -20q129 -326 226 -631q43 109 89 244t104.5 314t64.5 195h94q152 -391 272 -753q209 537 209 629q0 18 -6 29.5t-36 24.5t-87 25l6 33q0 12 11 12h374q10 0 15 -12l6 -33q-82 -18 -115 -53 t-76 -135q-41 -90 -154.5 -389t-168.5 -426h-123q-125 369 -242 676q-227 -592 -264 -676h-121q-147 444 -348 930q-6 12 -12 20t-37 23.5t-86 29.5zM472 1498.5q5 19.5 36 19.5h231l279 -322q12 -14 -2 -27l-37 -22l-483 313q-29 19 -24 38.5z" />
<glyph unicode="&#x1e82;" horiz-adv-x="1896" d="M-16 1391l6 32q0 12 10 13h510q8 0 8 -13l6 -32q-133 -33 -133 -62q0 -4 4 -20q180 -582 279 -965q205 645 274 1006h125q168 -520 289 -1006q76 246 163 584t87 383q0 27 -21.5 43t-97.5 37l6 32q0 12 8 13h387q10 0 11 -13l6 -32q-78 -20 -110 -54t-64 -133 q-57 -170 -195.5 -621.5t-181.5 -586.5h-156q-106 389 -262 878q-104 -401 -276 -878h-154q-156 569 -410 1321q-6 14 -13 22.5t-32.5 22t-72.5 29.5zM846 1565l291 321h227q29 0 35 -19.5t-23 -37.5l-489 -313l-39 22q-14 13 -2 27z" />
<glyph unicode="&#x1e83;" horiz-adv-x="1638" d="M-49 999l4 33q4 12 14 12h516q8 0 13 -12l6 -33q-152 -29 -152 -57q0 -4 4 -20q129 -326 226 -631q43 109 89 244t104.5 314t64.5 195h94q152 -391 272 -753q209 537 209 629q0 18 -6 29.5t-36 24.5t-87 25l6 33q0 12 11 12h374q10 0 15 -12l6 -33q-82 -18 -115 -53 t-76 -135q-41 -90 -154.5 -389t-168.5 -426h-123q-125 369 -242 676q-227 -592 -264 -676h-121q-147 444 -348 930q-6 12 -12 20t-37 23.5t-86 29.5zM735 1196l279 322h231q29 0 35 -19.5t-23 -38.5l-483 -313l-37 22q-16 13 -2 27z" />
<glyph unicode="&#x1e84;" horiz-adv-x="1896" d="M-16 1391l6 32q0 12 10 13h510q8 0 8 -13l6 -32q-133 -33 -133 -62q0 -4 4 -20q180 -582 279 -965q205 645 274 1006h125q168 -520 289 -1006q76 246 163 584t87 383q0 27 -21.5 43t-97.5 37l6 32q0 12 8 13h387q10 0 11 -13l6 -32q-78 -20 -110 -54t-64 -133 q-57 -170 -195.5 -621.5t-181.5 -586.5h-156q-106 389 -262 878q-104 -401 -276 -878h-154q-156 569 -410 1321q-6 14 -13 22.5t-32.5 22t-72.5 29.5zM618 1696q0 57 41 98t98.5 41t98.5 -41t41 -98q0 -59 -41 -100.5t-98.5 -41.5t-98.5 41.5t-41 100.5zM1110 1696 q0 57 41 98t100 41q57 0 97.5 -41t40.5 -98q0 -59 -40 -100.5t-98 -41.5q-59 0 -100 41.5t-41 100.5z" />
<glyph unicode="&#x1e85;" horiz-adv-x="1638" d="M-49 999l4 33q4 12 14 12h516q8 0 13 -12l6 -33q-152 -29 -152 -57q0 -4 4 -20q129 -326 226 -631q43 109 89 244t104.5 314t64.5 195h94q152 -391 272 -753q209 537 209 629q0 18 -6 29.5t-36 24.5t-87 25l6 33q0 12 11 12h374q10 0 15 -12l6 -33q-82 -18 -115 -53 t-76 -135q-41 -90 -154.5 -389t-168.5 -426h-123q-125 369 -242 676q-227 -592 -264 -676h-121q-147 444 -348 930q-6 12 -12 20t-37 23.5t-86 29.5zM502 1329q0 59 41 100t98 41t98 -40.5t41 -100.5q0 -57 -41 -99t-98 -42t-98 42t-41 99zM993 1329q0 59 41 100t101 41 q57 0 97 -40.5t40 -100.5q0 -57 -40 -99t-97 -42q-59 0 -100.5 42t-41.5 99z" />
<glyph unicode="&#x1ef2;" horiz-adv-x="1312" d="M-92 1391l4 32q4 12 14 13h578q6 0 10 -13l6 -32q-66 -14 -99.5 -24.5t-40.5 -18t-7 -17.5q0 -12 14 -28q238 -301 350 -496l172 252q133 199 133 250q0 29 -23.5 45t-109.5 37l6 32q4 12 13 13h450q10 0 15 -13l6 -32q-94 -18 -142 -54q-72 -59 -184 -227l-272 -391 v-590q0 -25 23.5 -39t125.5 -45l-6 -33q0 -12 -10 -12h-533q-14 0 -14 12l-6 33q102 31 125.5 45t23.5 39v502q-201 336 -485 686q-20 29 -42.5 42.5t-94.5 31.5zM314 1862.5q5 19.5 36 19.5h228l288 -321q18 -14 -2 -25l-37 -23l-489 312q-29 18 -24 37.5z" />
<glyph unicode="&#x1ef3;" horiz-adv-x="1028" d="M-102 -319q-10 12 2 28l24 33q82 -53 178 -53q106 0 191.5 63.5t150.5 257.5q-113 332 -354 916q-18 41 -135 73l4 33q4 12 14 12h512q8 0 13 -12l6 -33q-147 -29 -148 -57q0 -4 4 -20q127 -309 232 -635q215 543 215 633q0 27 -22.5 45t-104.5 34l6 33q0 12 10 12h373 q10 0 14 -12l7 -33q-80 -18 -113 -53t-78 -135q-49 -113 -209 -518.5t-211 -528.5q-53 -133 -130 -188t-193 -55q-158 0 -258 160zM185 1498.5q5 19.5 36 19.5h232l278 -322q12 -14 -2 -27l-37 -22l-483 313q-29 19 -24 38.5z" />
<glyph unicode="&#x2000;" horiz-adv-x="962" />
<glyph unicode="&#x2001;" horiz-adv-x="1927" />
<glyph unicode="&#x2002;" horiz-adv-x="962" />
<glyph unicode="&#x2003;" horiz-adv-x="1927" />
<glyph unicode="&#x2004;" horiz-adv-x="641" />
<glyph unicode="&#x2005;" horiz-adv-x="481" />
<glyph unicode="&#x2006;" horiz-adv-x="319" />
<glyph unicode="&#x2007;" horiz-adv-x="319" />
<glyph unicode="&#x2008;" horiz-adv-x="239" />
<glyph unicode="&#x2009;" horiz-adv-x="385" />
<glyph unicode="&#x200a;" horiz-adv-x="106" />
<glyph unicode="&#x2010;" horiz-adv-x="628" d="M72 506l30 201q0 14 13 14h442l-31 -201q-4 -14 -10 -14h-444z" />
<glyph unicode="&#x2011;" horiz-adv-x="628" d="M72 506l30 201q0 14 13 14h442l-31 -201q-4 -14 -10 -14h-444z" />
<glyph unicode="&#x2012;" horiz-adv-x="628" d="M72 506l30 201q0 14 13 14h442l-31 -201q-4 -14 -10 -14h-444z" />
<glyph unicode="&#x2013;" d="M66 522l26 168q0 14 10 15h963l-29 -168q0 -14 -12 -15h-958z" />
<glyph unicode="&#x2014;" horiz-adv-x="1699" d="M76 522l26 168q0 14 11 15h1511l-27 -168q0 -14 -12 -15h-1509z" />
<glyph unicode="&#x2018;" horiz-adv-x="514" d="M72 1063q0 154 94 319.5t205 239.5q8 4 24 4l51 -39q-150 -147 -196 -315q59 -8 91 -44t32 -89q0 -63 -41 -107.5t-113 -44.5q-84 0 -147 76z" />
<glyph unicode="&#x2019;" horiz-adv-x="514" d="M68 971q150 147 196 317q-123 16 -123 131q0 63 41 107.5t113 44.5q84 0 147 -76q0 -154 -94 -319.5t-205 -239.5q-8 -4 -24 -4z" />
<glyph unicode="&#x201a;" horiz-adv-x="514" d="M68 -317q150 150 196 317q-59 8 -91 44t-32 87q0 66 41 110t113 44q84 0 147 -76q0 -154 -94 -319.5t-205 -239.5q-8 -4 -24 -4z" />
<glyph unicode="&#x201c;" horiz-adv-x="933" d="M72 1059q0 154 94 319.5t205 239.5q8 4 24 4l51 -39q-150 -147 -196 -315q59 -8 91 -44t32 -89q0 -63 -41 -107.5t-113 -44.5q-84 0 -147 76zM492 1059q0 154 94 319.5t205 239.5q12 4 24 4l51 -39q-145 -143 -196 -315q59 -8 91 -44t32 -89q0 -63 -40 -107.5t-114 -44.5 q-84 0 -147 76z" />
<glyph unicode="&#x201d;" horiz-adv-x="933" d="M68 971q150 147 196 317q-123 16 -123 131q0 63 41 107.5t113 44.5q84 0 147 -76q0 -154 -94 -319.5t-205 -239.5q-8 -4 -24 -4zM489 971q147 143 195 317q-121 16 -121 131q0 63 40 107.5t112 44.5q86 0 147 -76q0 -154 -93 -319.5t-204 -239.5q-12 -4 -26 -4z" />
<glyph unicode="&#x201e;" horiz-adv-x="933" d="M68 -317q150 150 196 317q-59 8 -91 44t-32 87q0 66 41 110t113 44q84 0 147 -76q0 -154 -94 -319.5t-205 -239.5q-8 -4 -24 -4zM489 -317q147 147 195 317q-57 8 -89 43t-32 88q0 66 40 110t112 44q86 0 147 -76q0 -154 -93 -319.5t-204 -239.5q-12 -4 -26 -4z" />
<glyph unicode="&#x2020;" horiz-adv-x="1105" d="M6 750l21 157q0 14 12 15h395l-26 514h286l-24 -514h428l-21 -158q0 -14 -12 -14h-406l-53 -1203h-110l-54 1203h-436z" />
<glyph unicode="&#x2021;" horiz-adv-x="1105" d="M6 750l21 157q0 14 12 15h395l-26 514h286l-24 -514h428l-21 -158q0 -14 -12 -14h-406l-14 -394h387l-16 -141q0 -12 -12 -12h-369l-29 -656h-110l-29 656h-395l18 139q0 14 10 14h359l-17 394h-436z" />
<glyph unicode="&#x2022;" horiz-adv-x="802" d="M96 592q0 152 83 243t218 91q145 0 224 -90.5t79 -243.5q0 -162 -81.5 -248t-221.5 -86q-137 0 -219 86t-82 248z" />
<glyph unicode="&#x2026;" horiz-adv-x="2140" d="M229 145.5q0 65.5 46.5 112.5t111.5 47q68 0 113 -46t45 -113.5t-45 -113.5t-113 -46q-66 0 -112 47t-46 112.5zM913 145.5q0 65.5 46.5 112.5t111.5 47q68 0 113 -46t45 -113.5t-45 -113.5t-113 -46q-66 0 -112 47t-46 112.5zM1597 145.5q0 65.5 46.5 112.5t111.5 47 q68 0 113 -46t45 -113.5t-45 -113.5t-113 -46q-66 0 -112 47t-46 112.5z" />
<glyph unicode="&#x202f;" horiz-adv-x="385" />
<glyph unicode="&#x2030;" horiz-adv-x="2584" d="M59 1022q0 193 115 315.5t279 122.5q158 0 257 -107.5t99 -285.5q0 -184 -109.5 -309t-275.5 -125q-160 0 -262.5 105.5t-102.5 283.5zM238 0l1083 1436h199l-1086 -1436h-196zM262 1063q0 -147 45 -236.5t125 -89.5q78 0 126 78t48 209q0 152 -47 242t-127 90t-125 -80 t-45 -213zM946 365q0 193 115 315.5t278 122.5q158 0 257.5 -107.5t99.5 -285.5q0 -184 -109.5 -309.5t-275.5 -125.5q-160 0 -262.5 106t-102.5 284zM1149 406q0 -147 45 -236.5t125 -89.5q78 0 126 78t48 209q0 154 -47 242.5t-127 88.5t-125 -79.5t-45 -212.5zM1769 365 q0 193 115 315.5t279 122.5q158 0 257 -107.5t99 -285.5q0 -184 -109.5 -309.5t-275.5 -125.5q-160 0 -262.5 106t-102.5 284zM1972 406q0 -147 45 -236.5t125 -89.5q78 0 126 78t48 209q0 154 -47 242.5t-127 88.5t-125 -79.5t-45 -212.5z" />
<glyph unicode="&#x2032;" horiz-adv-x="397" />
<glyph unicode="&#x2033;" horiz-adv-x="663" />
<glyph unicode="&#x2039;" horiz-adv-x="862" d="M102 465v119l633 403l23 -57q4 -14 -4 -27l-361 -379l361 -383q12 -14 4 -28l-23 -58z" />
<glyph unicode="&#x203a;" horiz-adv-x="862" d="M104 115q-4 14 5 26l360 379l-360 383q-12 14 -5 29l23 57l633 -409v-119l-633 -404z" />
<glyph unicode="&#x2044;" horiz-adv-x="686" d="M-336 0l1167 1436h224l-1168 -1436h-223z" />
<glyph unicode="&#x205f;" horiz-adv-x="481" />
<glyph unicode="&#x20ac;" horiz-adv-x="1042" d="M2 524l14 86q4 14 21 15h61v45q0 84 13 168h-109l16 84q4 14 19 14h92q55 229 196.5 376.5t350.5 147.5q111 0 196.5 -34.5t126.5 -94.5q0 -84 -46 -131t-105 -47q-47 0 -80 29.5t-33 83.5q0 37 19 86q-35 10 -78 10q-133 0 -221 -117t-119 -309h438l-14 -84 q-4 -14 -21 -14h-413q-2 -27 -2 -82q0 -70 6 -131h395l-16 -86q-4 -14 -19 -15h-348q35 -182 126 -286.5t234.5 -104.5t231.5 94l31 -37q8 -8 8 -14q0 -4 -6 -12q-51 -80 -154.5 -134.5t-212.5 -54.5q-209 0 -336 155t-158 394h-104z" />
<glyph unicode="&#x2113;" horiz-adv-x="577" />
<glyph unicode="&#x2122;" horiz-adv-x="2205" d="M113 1282l10 143q0 10 12 11h705q12 0 12 -11l10 -143q0 -10 -6 -10l-35 -4q-20 59 -52 74.5t-118 17.5h-76v-629q0 -8 4.5 -12t24 -11.5t62.5 -19.5l-2 -37q0 -8 -9 -8h-336q-6 0 -6 8l-4 37q43 12 63.5 19.5t24.5 11.5t4 12v629h-77q-86 -2 -118 -17.5t-52 -74.5l-35 4 q-6 0 -6 10zM958 688q43 12 62.5 19.5t24 11.5t4.5 12v619q0 8 -4.5 12t-24 11t-62.5 18l5 39q0 6 8 6h301q94 -205 217 -510q45 104 205 510h307q8 0 8 -6l4 -39q-43 -10 -63.5 -17.5t-24.5 -11.5t-4 -12v-619q0 -8 4 -12t24.5 -11.5t63.5 -19.5l-4 -37q0 -8 -8 -8h-330 q-6 0 -6 8l-2 37q43 12 62.5 19.5t23.5 11.5t4 12v574q-37 -92 -124 -293t-134 -318q0 -12 -8 -12h-66q-10 0 -14 12q-72 203 -256 611v-574q0 -6 4 -11t23.5 -12.5t62.5 -19.5l-4 -37q0 -8 -6 -8h-260q-8 0 -8 8z" />
<glyph unicode="&#x212e;" horiz-adv-x="1470" d="M92 719q0 307 181.5 524t484.5 217q299 0 458.5 -192.5t159.5 -522.5h-1020q4 -369 94.5 -527.5t319.5 -158.5q184 0 311 94.5t176 262.5l80 -33q-55 -182 -201.5 -295t-371.5 -113q-307 0 -489.5 193t-182.5 551zM356 821h758q-2 295 -90 429t-285 134 q-184 0 -276.5 -135t-106.5 -428z" />
<glyph unicode="&#x2190;" horiz-adv-x="1820" d="M78 586v67l842 480l24 -58q10 -18 -6 -28l-406 -340q635 4 1215 18l-21 -190q-4 -14 -10 -15q-729 18 -1192 19l414 -355q16 -10 6 -26l-24 -56z" />
<glyph unicode="&#x2191;" horiz-adv-x="1574" d="M274 610l484 842h67l480 -842l-58 -22q-18 -10 -28 6l-340 403q4 -635 18 -1214l-190 20q-14 4 -15 11q18 727 19 1192l-353 -412q-10 -16 -26 -6z" />
<glyph unicode="&#x2192;" horiz-adv-x="1820" d="M78 510l20 190q4 14 11 15q727 -18 1191 -19l-411 355q-16 10 -6 26l22 56l842 -484v-67l-842 -480l-22 58q-10 18 6 28l403 340q-634 -4 -1214 -18z" />
<glyph unicode="&#x2193;" horiz-adv-x="1574" d="M274 625l58 24q18 10 28 -6l340 -405q-4 635 -18 1214l190 -20q14 -4 15 -11q-18 -729 -19 -1192l355 414q10 16 26 6l56 -24l-484 -842h-67z" />
<glyph unicode="&#x2196;" horiz-adv-x="1681" d="M223 1186l49 47l934 -256l-24 -57q-4 -18 -25 -17l-524 47q471 -467 870 -848l-149 -120q-14 -4 -17 -2q-504 528 -831 856l41 -541q6 -23 -15 -23l-55 -24z" />
<glyph unicode="&#x2197;" horiz-adv-x="1681" d="M182 127q510 485 873 846l-527 -45q-14 -2 -24 16l-23 57l932 256l49 -49l-254 -936l-55 25q-20 0 -14 22l41 541q-328 -328 -832 -856q-2 -2 -16 2z" />
<glyph unicode="&#x2198;" horiz-adv-x="1673" d="M225 1106q-2 2 2 16l121 150q485 -510 846 -873l-45 527q-2 14 16 24l58 23l256 -932l-47 -49l-938 254l24 55q0 20 23 14l540 -41q-328 328 -856 832z" />
<glyph unicode="&#x2199;" horiz-adv-x="1673" d="M201 12l256 934l57 -22q18 -10 16 -25l-45 -526q412 416 846 870l121 -149q6 -12 2 -17q-508 -481 -856 -829l541 41q23 6 22 -15l25 -55l-936 -254z" />
<glyph unicode="&#x2202;" horiz-adv-x="1122" d="M72 494q0 188 109.5 307t303.5 119q168 0 295 -111q-12 242 -144 396.5t-327 154.5q-68 0 -151 -27l-13 58q0 23 15 28q72 41 194 41q309 0 505 -241.5t196 -600.5q0 -289 -131 -466t-351 -177q-225 0 -363 154t-138 365zM332 422q0 -154 53 -244t150 -90q109 0 178 124 t69 380q0 84 -53 144.5t-166 60.5q-100 0 -165.5 -101.5t-65.5 -273.5z" />
<glyph unicode="&#x220f;" horiz-adv-x="1370" d="M55 45q102 31 126 44t24 34v1190q0 20 -23.5 33.5t-126.5 44.5l6 32q0 12 13 13h1218q12 0 13 -13l4 -32q-102 -31 -126 -44.5t-24 -33.5v-1190q0 -20 23.5 -33.5t126.5 -44.5l-4 -33q0 -12 -13 -12h-524q-14 0 -14 12l-6 33q102 31 125.5 44t23.5 34v1202h-430v-1202 q0 -20 23.5 -33.5t125.5 -44.5l-6 -33q0 -12 -10 -12h-526q-12 0 -13 12z" />
<glyph unicode="&#x2211;" horiz-adv-x="1275" d="M41 55q223 319 444 666q-231 367 -401 659l8 39q4 16 17 17h983q8 0 15 -6.5t7 -12.5l25 -311q0 -10 -13 -14l-43 -9q-41 143 -103 188.5t-210 47.5l-356 4q207 -342 377 -602q-217 -346 -402 -610l436 12q147 4 211 47t101 176l43 -8q12 -4 12 -14l-23 -306 q0 -18 -22 -18h-1081q-12 0 -17 16z" />
<glyph unicode="&#x2212;" d="M123 524v178h895v-178h-895z" />
<glyph unicode="&#x221a;" d="M86 694v176h403v-575l641 1141h226l-848 -1436h-225v694h-197z" />
<glyph unicode="&#x221e;" horiz-adv-x="1523" d="M66 756q0 201 109.5 334t281.5 133q115 0 201.5 -71t125.5 -185q35 119 119 188.5t201 69.5q154 0 251 -120t97 -314q0 -201 -109.5 -334t-281.5 -133q-115 0 -202 69.5t-128 184.5q-33 -117 -117 -185.5t-200 -68.5q-154 0 -251 118.5t-97 313.5zM158 778 q0 -94 78.5 -152.5t209.5 -58.5q104 0 166 45t70 101q-8 125 -84 197.5t-195 72.5q-104 0 -174.5 -53.5t-70.5 -151.5zM836 834q10 -123 84.5 -197t193.5 -74q104 0 175 53.5t71 151.5q0 94 -78 152.5t-211 58.5q-104 0 -165.5 -45t-69.5 -100z" />
<glyph unicode="&#x222b;" horiz-adv-x="694" d="M-160 -342q-10 14 2 27l27 30q66 -45 160 -45q193 0 192 234v1274q0 184 97.5 272t246.5 88q92 0 169 -27.5t108 -64.5q12 -12 8 -33l-10 -47q-84 33 -185 33q-92 0 -139 -50.5t-47 -174.5v-1334q0 -154 -82 -236.5t-242 -82.5q-192 0 -305 137z" />
<glyph unicode="&#x2248;" d="M127 233q4 147 78 242.5t188 95.5q80 0 203 -66.5t176 -66.5q139 0 150 152l79 -8q-4 -152 -72.5 -243t-180.5 -91q-92 0 -206 65.5t-169 65.5q-156 0 -162 -162zM127 639q4 147 78 241.5t188 94.5q80 0 203 -66.5t176 -66.5q139 0 150 151l79 -8q-4 -152 -72.5 -242 t-180.5 -90q-92 0 -206 64.5t-169 64.5q-156 0 -162 -159z" />
<glyph unicode="&#x2260;" d="M109 346v172h288l140 193h-428v170h553l143 198h170l-144 -198h170v-170h-294l-140 -193h434v-172h-559l-143 -199h-172l145 199h-163z" />
<glyph unicode="&#x2264;" d="M127 0v178h893v-178h-893zM147 690v119l787 403l22 -57q10 -14 -6 -27l-458 -378l458 -383q14 -12 6 -29l-22 -57z" />
<glyph unicode="&#x2265;" d="M111 0v178h895v-178h-895zM158 340q-10 14 6 27l459 378l-459 383q-14 12 -6 29l22 57l787 -409v-119l-787 -403z" />
<glyph unicode="&#x25ca;" horiz-adv-x="1026" d="M49 475q27 59 114 262t157.5 361.5t144.5 312.5q10 20 27 21h86q23 0 26 -19q219 -561 373 -903q-33 -74 -115 -266.5t-153.5 -355t-145.5 -314.5q-8 -23 -31 -23h-83q-20 0 -29 21q-185 491 -371 903zM260 489l260 -636l256 634l-260 635z" />
<glyph unicode="&#xe000;" horiz-adv-x="1045" d="M0 1045h1045v-1045h-1045v1045z" />
<glyph unicode="&#xfb05;" horiz-adv-x="1507" d="M51 45q102 31 126 44t24 34v985q0 195 142 312.5t364 117.5q211 0 314 -103.5t103 -254.5v-148q346 12 361 12l-12 -108q0 -14 -13 -14h-336v-576q0 -215 174 -215q106 0 166 45l23 -31q6 -6 6 -14t-8 -16q-129 -139 -318 -140q-141 0 -214.5 73t-73.5 259v615h-199l6 51 q0 23 21 22q113 16 175 73.5t62 150.5q0 94 -55 157.5t-162 63.5q-125 0 -203 -73t-78 -204v-1040q0 -14 8.5 -22.5t51.5 -21.5t139 -34l-6 -33q0 -12 -10 -12h-557q-14 0 -15 12z" />
<glyph unicode="&#xfb06;" horiz-adv-x="1677" d="M88 39v246q0 10 12 14l52 10q27 -233 258 -233q100 0 152 41t52 112q0 57 -52 101.5t-126 76t-147.5 69.5t-125.5 102.5t-52 152.5q0 147 104 242.5t289 95.5q49 0 90 -8q23 72 85 121t139 75.5t155 51t145.5 63.5t95.5 96q10 18 23 21l57 8v-465q346 12 361 12l-13 -108 q0 -14 -12 -14h-336v-562q0 -225 174 -225q98 0 164 45l25 -30q6 -6 6 -14.5t-4 -12.5q-76 -82 -144.5 -115t-177.5 -33q-141 0 -214.5 73t-73.5 259v944q-39 -45 -191.5 -96t-183.5 -111q102 -35 102 -120q0 -49 -34.5 -87t-86.5 -38q-45 0 -76.5 28.5t-31.5 77.5 q0 25 6 53q-31 12 -74 13q-78 0 -123 -38t-45 -97q0 -53 52.5 -95.5t127 -76t149.5 -73.5t127 -109.5t52 -164.5q0 -160 -122 -251t-318 -91q-160 0 -279 45q-12 5 -12 19z" />
<glyph horiz-adv-x="1220" d="M63 446q0 285 166 455t428 170q240 0 406 -98v-1010q0 -176 -152.5 -308t-427.5 -132q-412 0 -411 233q0 90 64.5 149.5t164.5 59.5q31 0 47 -2q-49 -66 -49 -149.5t61.5 -136t171.5 -52.5q252 0 281 254q6 47 10 182.5t8 178.5q-150 -262 -389 -263q-172 0 -275.5 130 t-103.5 339zM315 543q0 -178 62.5 -281.5t187.5 -103.5q117 0 186.5 101t69.5 290v254q0 170 -188 170q-145 0 -231.5 -108.5t-86.5 -321.5z" />
<glyph horiz-adv-x="1263" d="M51 45q102 31 126 44t24 34v696q0 59 -25.5 84t-101.5 39l6 31q0 14 12 16l336 78q18 4 18 -10v-934q0 -20 24 -33.5t126 -44.5l-6 -33q0 -12 -10 -12h-508q-14 0 -15 12zM92 1196l279 322h231q29 0 35 -19.5t-23 -38.5l-483 -313l-37 22q-16 13 -2 27zM473 -330l23 37 q66 -45 166 -45q190 0 190 232v917q0 63 -25.5 90t-101.5 41l6 31q0 14 12 16l336 78q18 4 19 -10v-1213q0 -156 -88 -239.5t-248 -83.5q-186 0 -287 121q-12 14 -2 28zM754 1196l278 322h232q29 0 35 -19.5t-23 -38.5l-483 -313l-37 22q-16 13 -2 27z" />
<glyph horiz-adv-x="1245" d="M102 684q0 350 154 563t387 213q217 0 358.5 -202.5t141.5 -514.5q0 -342 -149.5 -555t-381.5 -213q-215 0 -362.5 198t-147.5 511zM367 739q0 -297 70.5 -479t187.5 -182q113 0 184.5 172t71.5 440q0 305 -71 485.5t-185 180.5q-117 0 -187.5 -173.5t-70.5 -443.5z" />
<glyph horiz-adv-x="907" d="M-4 1151q-2 27 10 29l569 297q39 0 39 -25q0 -14 -6 -176t-6 -289v-860q0 -14 8 -22.5t56.5 -23.5t148.5 -36l-6 -33q0 -12 -12 -12h-639q-14 0 -15 12l-6 33q100 20 148.5 35.5t57.5 24t9 22.5v1108l-338 -133z" />
<glyph horiz-adv-x="1161" d="M51 55l365 346q340 319 340 639q0 133 -62.5 217t-175.5 84q-59 0 -108 -20q16 -96 -27 -145.5t-121 -49.5q-59 0 -95 40t-36 120q217 174 510 174q180 0 286.5 -104.5t106.5 -274.5q0 -162 -108.5 -320.5t-360.5 -387.5l-194 -180l297 4q188 4 252.5 31.5t89.5 133.5 l45 -8q12 -4 12 -16l-31 -320q0 -18 -24 -18h-934q-14 0 -19 16z" />
<glyph horiz-adv-x="1097" d="M37 168q0 4 8 12l31 39q113 -113 293 -113q133 0 216 72t83 211q0 131 -97.5 225.5t-281.5 94.5l8 65q2 14 25 14q162 0 244.5 83t82.5 210q0 115 -60.5 193t-164.5 78q-68 0 -119 -27q8 -84 -29.5 -127t-103.5 -43q-57 0 -93 36t-36 109q215 160 492 160 q190 0 286.5 -96t96.5 -236q0 -129 -88.5 -232t-247.5 -138q180 -23 275 -122t95 -230q0 -199 -142 -315t-361 -116q-135 0 -245 48.5t-161 130.5q-6 10 -6 14z" />
<glyph d="M59 512q35 51 138.5 200.5t168 244t167 234.5t192.5 257q12 8 27 8l96 -20v-891h237q-8 -82 -8 -84l-8 -27h-221v-311q0 -20 23.5 -33.5t125.5 -44.5l-6 -33q0 -12 -10 -12h-514q-14 0 -14 12l-4 33q102 31 126.5 44t24.5 34v311h-514q-10 0 -14 17zM217 545h383v553 q-104 -135 -383 -553z" />
<glyph horiz-adv-x="1120" d="M84 133q0 76 45 119t107 43q53 0 88.5 -33t35.5 -88q0 -29 -10 -65q57 -27 125 -27q150 0 227.5 101.5t77.5 291.5q0 156 -61.5 243t-177.5 87q-180 0 -267 -184h-92l60 815h716l-26 -195q-4 -18 -21 -18h-577l-35 -422q143 166 342 166t293 -114t94 -306 q0 -252 -135 -412t-358 -160q-293 0 -451 158z" />
<glyph horiz-adv-x="1200" d="M113 618q0 358 195.5 600t504.5 242q123 0 195 -41q14 -6 14 -28l-12 -58q-84 27 -152 27q-197 0 -328 -140.5t-143 -377.5q135 160 330 159q193 0 289 -129t96 -323q0 -254 -138.5 -414t-369.5 -160q-219 0 -350 177t-131 466zM385 598q0 -256 70.5 -384t177.5 -128 q203 0 203 385t-211 385q-111 0 -175.5 -85t-64.5 -173z" />
<glyph horiz-adv-x="993" d="M12 1081l25 336q0 6 7 12.5t13 6.5h875q14 0 18 -17l8 -39q-219 -702 -501 -1362q-6 -18 -27 -18h-258q352 627 616 1227l-430 -4q-154 -2 -205 -30t-81 -136l-47 8q-13 4 -13 16z" />
<glyph horiz-adv-x="1171" d="M100 352q0 127 81 228.5t225 144.5q-123 37 -192 128t-69 208q0 164 127 281.5t340 117.5q199 0 313.5 -103.5t114.5 -248.5q0 -111 -69.5 -197t-194.5 -118q137 -43 216 -152t79 -244q0 -182 -131 -302t-367 -120q-217 0 -345 108.5t-128 268.5zM358 375 q0 -127 59.5 -213t166.5 -86q109 0 174 73.5t65 188.5q0 123 -85 216t-238 118q-57 -18 -99.5 -102t-42.5 -195zM383 1128q0 -104 69.5 -184t198.5 -106q70 20 113 89.5t43 168.5q0 113 -56.5 191.5t-154.5 78.5t-155.5 -70t-57.5 -168z" />
<glyph horiz-adv-x="1200" d="M115 942q0 211 139 364.5t362 153.5q229 0 355.5 -174t126.5 -475q0 -240 -60.5 -423t-196.5 -298t-335 -115q-231 0 -387 150q0 74 41 119t104 45q55 0 89 -31t34 -84q0 -35 -12 -74q49 -23 106 -22q145 0 236.5 140t105.5 409q-127 -111 -295 -111q-193 0 -303 119 t-110 307zM375 1018q0 -174 65.5 -274.5t167.5 -100.5q113 0 165 60.5t52 144.5q0 256 -69.5 380t-177.5 124q-96 0 -149.5 -90t-53.5 -244z" />
<glyph d="M45 684q0 350 153.5 563t387.5 213q217 0 358 -202.5t141 -514.5q0 -342 -149.5 -555t-380.5 -213q-215 0 -362.5 198t-147.5 511zM309 739q0 -297 71 -479t187 -182q68 0 123 67l-340 951q-41 -152 -41 -357zM432 1278l344 -959q47 164 47 371q0 305 -70.5 485.5 t-185.5 180.5q-74 0 -135 -78z" />
<glyph d="M45 684q0 350 153.5 563t387.5 213q217 0 358 -202.5t141 -514.5q0 -342 -149.5 -555t-380.5 -213q-215 0 -362.5 198t-147.5 511zM309 739q0 -297 71 -479t187 -182q113 0 184.5 172t71.5 440q0 305 -70.5 485.5t-185.5 180.5q-117 0 -187.5 -173.5t-70.5 -443.5z" />
<glyph d="M150 1151q-2 27 10 29l569 297q39 0 39 -25q0 -14 -6 -176t-6 -289v-860q0 -14 8 -22.5t56 -23.5t149 -36l-6 -33q0 -12 -13 -12h-639q-14 0 -14 12l-6 33q100 20 148 35.5t57.5 24t9.5 22.5v1108l-338 -133z" />
<glyph d="M37 55l364 346q340 319 340 639q0 133 -62.5 217t-174.5 84q-59 0 -109 -20q16 -96 -26.5 -145.5t-120.5 -49.5q-59 0 -95 40t-36 120q217 174 510 174q180 0 286.5 -104.5t106.5 -274.5q0 -162 -108.5 -320.5t-360.5 -387.5l-195 -180l297 4q188 4 253 31.5t89 133.5 l45 -8q12 -4 13 -16l-31 -320q0 -18 -25 -18h-934q-14 0 -18 16z" />
<glyph d="M100 168q0 4 9 12l30 39q113 -113 293 -113q133 0 216 72t83 211q0 131 -97 225.5t-282 94.5l8 65q2 14 25 14q162 0 245 83t83 210q0 115 -60.5 193t-165.5 78q-68 0 -118 -27q8 -84 -30 -127t-103 -43q-57 0 -93.5 36t-36.5 109q215 160 492 160q190 0 286.5 -96 t96.5 -236q0 -129 -88 -232t-248 -138q180 -23 275.5 -122t95.5 -230q0 -199 -142.5 -315t-361.5 -116q-135 0 -244.5 48.5t-161.5 130.5q-6 10 -6 14z" />
<glyph d="M51 512q35 51 138.5 200.5t168 244t167 234.5t192.5 257q12 8 26 8l97 -20v-891h237q-8 -82 -8 -84l-8 -27h-221v-311q0 -20 23.5 -33.5t125.5 -44.5l-6 -33q0 -12 -10 -12h-514q-14 0 -15 12l-4 33q102 31 127 44t25 34v311h-514q-10 0 -15 17zM209 545h383v553 q-104 -135 -383 -553z" />
<glyph d="M90 133q0 76 45 119t107 43q53 0 89 -33t36 -88q0 -29 -11 -65q57 -27 125 -27q141 0 222 82t81 207q0 180 -143 304t-444 146l57 615h715l-27 -195q-4 -18 -22 -18h-574l-20 -187q344 -41 508.5 -204.5t164.5 -389.5q0 -193 -127 -330t-331 -137q-293 0 -451 158z" />
<glyph d="M84 618q0 358 194.5 600t503.5 242q125 0 197 -41q14 -6 14 -28l-12 -58q-84 27 -152 27q-195 0 -326.5 -154.5t-144.5 -396.5q127 111 295 111q193 0 302.5 -119t109.5 -307q0 -211 -138.5 -365t-363.5 -154q-219 0 -349 177t-130 466zM354 592q0 -258 71 -382t179 -124 q96 0 148.5 89t52.5 247q0 172 -65.5 273.5t-166.5 101.5q-113 0 -166 -60.5t-53 -144.5z" />
<glyph d="M119 1081l24 336q0 6 7.5 12.5t13.5 6.5h874q14 0 19 -17l8 -39q-219 -702 -502 -1362q-6 -18 -26 -18h-258q352 627 616 1227l-430 -4q-154 -2 -205 -30t-82 -136l-47 8q-12 4 -12 16z" />
<glyph d="M80 352q0 127 81 228.5t224 144.5q-123 37 -191.5 128t-68.5 208q0 164 127 281.5t340 117.5q199 0 313.5 -103.5t114.5 -248.5q0 -111 -69.5 -197t-194.5 -118q137 -43 216 -152t79 -244q0 -182 -131.5 -302t-366.5 -120q-217 0 -345 108.5t-128 268.5zM338 375 q0 -127 59.5 -213t165.5 -86q109 0 174.5 73.5t65.5 188.5q0 123 -85 216t-239 118q-57 -18 -99 -102t-42 -195zM362 1128q0 -104 70 -184t199 -106q70 20 112.5 89.5t42.5 168.5q0 113 -56 191.5t-154.5 78.5t-156 -70t-57.5 -168z" />
<glyph d="M80 942q0 211 139 364.5t363 153.5q229 0 355 -174t126 -475q0 -240 -60.5 -423t-196.5 -298t-335 -115q-231 0 -387 150q0 74 41 119t104 45q55 0 89 -31t34 -84q0 -35 -12 -74q49 -23 106 -22q145 0 236.5 140t105.5 409q-127 -111 -294 -111q-193 0 -303.5 119 t-110.5 307zM340 1018q0 -174 65.5 -274.5t167.5 -100.5q113 0 165.5 60.5t52.5 144.5q0 256 -70 380t-178 124q-96 0 -149.5 -90t-53.5 -244z" />
<glyph d="M117 164q0 74 40 116t93 42q49 0 83 -29t34 -82q0 -25 -11 -59q66 -20 133 -23l23 496q-166 74 -258 163t-92 232q0 147 107.5 260t281.5 127l12 254h107q0 -4 -13 -254q209 -12 338 -131q0 -76 -40 -118t-91 -42q-49 0 -81.5 30t-32.5 83q0 23 10 57q-43 14 -107 19 q-8 -141 -20 -441q88 -43 139 -72.5t114.5 -82t93.5 -120t30 -153.5q0 -170 -112 -276.5t-306 -128.5l-12 -256h-109q2 29 5 80t5 93t2 79q-208 6 -366 137zM371 1116q0 -119 157 -203q12 258 17 390q-80 -14 -127 -64.5t-47 -122.5zM598 137q199 31 199 217q0 129 -181 224 z" />
<glyph d="M143 723q0 197 119 355.5t309 193.5l7 188h104l-8 -180q111 -2 193.5 -35t117.5 -84q0 -80 -38 -123t-93 -43q-43 0 -72.5 26t-29.5 77q0 35 18 78q-47 14 -76 14q-4 0 -11 -1t-11 -1q-25 -512 -35 -768q31 -6 65 -6q137 0 220 88l30 -35q8 -8 9 -12q0 -4 -7 -13 q-49 -72 -138 -125t-187 -55l-11 -215h-102l10 219q-180 27 -281.5 153t-101.5 304zM381 809q0 -236 154 -344l30 700q-86 -41 -135 -135t-49 -221z" />
<glyph d="M33 670l12 96q0 14 12 14h144q-8 98 -8 162q0 242 157.5 380t399.5 138q113 0 207 -34.5t135 -94.5q0 -84 -45.5 -130t-108.5 -46q-47 0 -80 29.5t-33 83.5q0 37 21 84q-37 10 -80 10q-145 0 -230 -103.5t-85 -291.5q0 -68 10 -187h325l-12 -96q0 -14 -12 -14h-289 q16 -180 16 -267q0 -137 -18 -286l227 6q162 4 232.5 40t97.5 148l43 -6q12 -4 12 -16l-26 -271q0 -6 -7.5 -12t-15.5 -6h-819q23 150 23 332q0 147 -23 338h-182z" />
<glyph d="M-31 1391l6 32q4 12 11 13h495q6 0 11 -13l4 -32q-135 -35 -136 -60q0 -10 13 -28q141 -233 266 -498l100 194q137 264 135 310q0 27 -25.5 44t-100.5 38l6 32q0 12 10 13h389q8 0 12 -13l4 -32q-74 -16 -114 -56q-70 -66 -230 -372l-123 -236q150 4 238 8l-14 -96 q0 -16 -11 -16h-208v-164l233 6l-14 -96q0 -14 -11 -15h-208v-225q0 -23 23.5 -37t115.5 -47l-6 -33q0 -12 -9 -12h-495q-14 0 -14 12l-5 33q90 33 114 47t24 37v225h-238q0 12 4 41l6 43q0 10 44 14.5t95.5 2.5t88.5 0v168h-238q6 100 23 100h184q-129 283 -340 594 q-12 18 -20.5 26.5t-31 21t-63.5 26.5z" />
<glyph d="M66 -342q-12 12 2 27l26 30q66 -45 160 -45q193 0 192 234v1030h-182l12 96q0 14 13 14h157v134q0 184 95.5 272t244.5 88q92 0 168 -27.5t109 -64.5q12 -12 8 -33l-10 -47q-84 33 -187 33q-92 0 -139 -50.5t-47 -174.5v-130h266l-12 -96q0 -14 -12 -14h-242v-1094 q0 -319 -317 -319q-196 0 -305 137z" />
<glyph d="M63 524l17 86q4 14 20 15h62v45q0 84 12 168h-108l14 84q4 14 20 14h93q55 229 196 376.5t350 147.5q231 0 324 -129q0 -84 -47 -131t-107 -47q-45 0 -78.5 29.5t-33.5 83.5q0 39 20 86q-37 10 -78 10q-133 0 -221 -117t-119 -309h439l-17 -84q-4 -14 -18 -14h-414 q-2 -27 -2 -82q0 -70 6 -131h395l-16 -86q-4 -14 -20 -15h-346q35 -182 126 -286.5t232 -104.5q145 0 233 94l31 -37q8 -8 8 -14q0 -4 -6 -12q-51 -80 -154.5 -134.5t-211.5 -54.5q-209 0 -336 155t-158 394h-107z" />
<glyph d="M14 367l13 133q0 14 10 14h221v270h-244l13 134q0 14 10 14h221v360h203v-360h215v360h201v-360h243l-12 -135q0 -12 -10 -13h-221v-270h243l-12 -133q0 -14 -10 -14h-221v-367h-201v367h-215v-367h-203v367h-244zM461 514h215v270h-215v-270z" />
<glyph horiz-adv-x="1208" d="M82 541q0 274 153.5 443t387.5 169q217 0 360 -162t143 -405q0 -266 -151.5 -437.5t-382.5 -171.5q-213 0 -361.5 159t-148.5 405zM338 578q0 -233 69.5 -367.5t194.5 -134.5q123 0 194.5 126t71.5 337q0 240 -71.5 377t-194.5 137q-125 0 -194.5 -131t-69.5 -344z" />
<glyph horiz-adv-x="952" d="M94 911q0 23 10 23l521 235q35 0 34 -20q0 -10 -5 -136t-5 -227v-663q0 -12 8.5 -20.5t50.5 -21.5t132 -36l-4 -33q0 -12 -13 -12h-581q-14 0 -15 12l-6 33q90 23 132 36t50.5 21.5t8.5 20.5v840l-297 -115z" />
<glyph horiz-adv-x="1118" d="M47 61l320 248q174 137 256 256t82 242q0 233 -191 233q-55 0 -98 -18q18 -88 -25 -141.5t-117 -53.5q-59 0 -99 42t-40 118q219 166 492 166q160 0 249 -83t89 -224q0 -143 -110 -269t-353 -301l-129 -92l305 4q170 4 227.5 31t77.5 117l49 -6q10 -6 10 -13l-32 -303 q0 -14 -23 -14h-913q-12 0 -17 12z" />
<glyph horiz-adv-x="1019" d="M35 991q219 162 493 162q174 0 268.5 -96t94.5 -236q0 -137 -82 -236.5t-250 -135.5q180 -23 271.5 -124.5t91.5 -261.5q0 -203 -141.5 -308t-342.5 -105q-225 0 -385 114q-6 4 -6 13q0 6 6 16l17 43q129 -61 262 -61q141 0 230 77.5t89 227.5q0 141 -74.5 221t-214.5 80 q-39 0 -81 -6l-5 65q2 10 23 15q336 47 336 323q0 117 -53.5 191.5t-161.5 74.5q-63 0 -111 -24q6 -94 -35 -139t-104 -45q-59 0 -97 37.5t-38 117.5z" />
<glyph horiz-adv-x="1153" d="M51 225q397 573 709 936q12 8 26 8l93 -20v-891h237q-8 -82 -8 -84l-8 -29h-221v-452h-246v452h-555q-10 0 -15 17zM209 258h424v586q-195 -242 -424 -586z" />
<glyph horiz-adv-x="1052" d="M74 -268q-8 104 30.5 161.5t118.5 57.5q53 0 89 -34t36 -95q0 -33 -10 -62q45 -4 70 -4q141 0 232 97.5t91 271.5q0 172 -136 309t-429 162l57 532h703l-27 -194q-4 -18 -22 -19h-574l-12 -100q334 -47 498.5 -213t164.5 -403q0 -256 -157.5 -399.5t-388.5 -143.5 q-178 0 -334 76z" />
<glyph horiz-adv-x="1173" d="M109 633q0 358 198.5 592.5t515.5 234.5q117 0 181 -35q16 -8 14 -28l-12 -58q-72 23 -140 23q-195 0 -334 -161t-149 -433q123 111 289 111q195 0 303 -120t108 -296q0 -211 -137 -349.5t-362 -138.5q-215 0 -345 180.5t-130 477.5zM377 547q0 -244 69.5 -352.5 t176.5 -108.5q96 0 149 75t53 218q0 176 -64.5 275.5t-166.5 99.5q-111 0 -164 -61.5t-53 -145.5z" />
<glyph horiz-adv-x="1064" d="M74 774l30 336q0 6 7.5 12t13.5 6h924q14 0 18 -16l8 -39q-358 -518 -495.5 -774t-137.5 -418q0 -25 13 -49q53 72 118 72q53 0 84 -32t31 -83q0 -82 -94 -135q-145 20 -233.5 113.5t-88.5 242.5q0 207 142.5 424t445.5 486l-432 -5q-164 -2 -215 -28.5t-80 -136.5l-47 8 q-12 4 -12 16z" />
<glyph horiz-adv-x="1198" d="M123 356q0 133 85 235.5t220 139.5q-115 45 -180.5 131t-65.5 207q0 166 125 278.5t322 112.5q188 0 295.5 -94t107.5 -242q0 -111 -69.5 -203t-194.5 -124q141 -51 225 -152.5t84 -232.5q0 -190 -135 -313.5t-348 -123.5q-207 0 -339 105.5t-132 275.5zM367 365 q0 -139 62.5 -214t174.5 -75q106 0 169 61.5t63 181.5q0 260 -308 353q-66 -20 -113.5 -104t-47.5 -203zM401 1141q0 -203 258 -297q66 20 112 97t46 173q0 121 -55 187.5t-154 66.5q-96 0 -151.5 -63.5t-55.5 -163.5z" />
<glyph horiz-adv-x="1173" d="M66 -199q0 72 40.5 117t104.5 45q53 0 87 -31.5t34 -83.5q0 -39 -15 -73q37 -23 115 -23q147 0 249.5 149.5t117.5 460.5q-121 -115 -291 -114q-188 0 -297 118.5t-109 301.5q0 203 136.5 344t355.5 141q217 0 344 -177t127 -468q0 -373 -164 -614.5t-434 -241.5 q-241 -1 -401 149zM358 754q0 -178 63.5 -277.5t164.5 -99.5q111 0 163 60.5t52 144.5q0 240 -65.5 351t-174.5 111q-94 0 -148.5 -75.5t-54.5 -214.5z" />
<glyph d="M45 541q0 274 153.5 443t387.5 169q217 0 360.5 -162t143.5 -405q0 -266 -152 -437.5t-383 -171.5q-213 0 -361.5 159t-148.5 405zM301 578q0 -233 69.5 -367.5t194.5 -134.5q123 0 194.5 126t71.5 337q0 240 -71.5 377t-194.5 137q-125 0 -194.5 -131t-69.5 -344z" />
<glyph d="M197 911q0 23 10 23l520 235q35 0 35 -20q0 -10 -5 -136t-5 -227v-663q0 -12 8 -20.5t50 -21.5t132 -36l-4 -33q0 -12 -12 -12h-582q-14 0 -14 12l-6 33q90 23 132 36t50 21.5t8 20.5v840l-297 -115z" />
<glyph d="M53 61l320 248q174 137 256 256t82 242q0 233 -191 233q-55 0 -98 -18q18 -88 -25 -141.5t-116 -53.5q-59 0 -99.5 42t-40.5 118q219 166 492 166q160 0 249 -83t89 -224q0 -143 -109.5 -269t-353.5 -301l-129 -92l305 4q170 4 227.5 31t77.5 117l49 -6q10 -6 11 -13 l-33 -303q0 -14 -23 -14h-913q-14 0 -17 12z" />
<glyph d="M92 991q219 162 494 162q174 0 268 -96t94 -236q0 -137 -82 -236.5t-250 -135.5q180 -23 271.5 -124.5t91.5 -261.5q0 -203 -141.5 -308t-341.5 -105q-225 0 -385 114q-6 4 -7 13q0 6 7 16l16 43q129 -61 262 -61q141 0 230.5 77.5t89.5 227.5q0 141 -75 221t-214 80 q-39 0 -82 -6l-4 65q2 10 22 15q336 47 336 323q0 117 -53 191.5t-162 74.5q-63 0 -110 -24q6 -94 -35 -139t-105 -45q-59 0 -97 37.5t-38 117.5z" />
<glyph d="M51 225q397 573 709 936q12 8 26 8l93 -20v-891h237q-8 -82 -8 -84l-8 -29h-221v-452h-246v452h-555q-10 0 -15 17zM209 258h424v586q-195 -242 -424 -586z" />
<glyph d="M94 -268q-8 104 31 161.5t119 57.5q53 0 89 -34t36 -95q0 -33 -11 -62q45 -4 70 -4q141 0 232.5 97.5t91.5 271.5q0 172 -136.5 309t-429.5 162l58 532h702l-26 -194q-4 -18 -23 -19h-573l-13 -100q334 -47 499 -213t165 -403q0 -256 -158 -399.5t-389 -143.5 q-178 0 -334 76z" />
<glyph d="M80 633q0 358 198.5 592.5t516.5 234.5q117 0 180 -35q16 -8 14 -28l-12 -58q-72 23 -139 23q-195 0 -334 -161t-150 -433q123 111 289 111q195 0 303.5 -120t108.5 -296q0 -211 -137.5 -349.5t-362.5 -138.5q-215 0 -345 180.5t-130 477.5zM348 547q0 -244 69.5 -352.5 t176.5 -108.5q96 0 149.5 75t53.5 218q0 176 -64.5 275.5t-167.5 99.5q-111 0 -164 -61.5t-53 -145.5z" />
<glyph d="M115 774l30 336q0 6 7.5 12t13.5 6h924q14 0 18 -16l8 -39q-358 -518 -495.5 -774t-137.5 -418q0 -25 13 -49q53 72 118 72q53 0 84 -32t31 -83q0 -82 -94 -135q-145 20 -233.5 113.5t-88.5 242.5q0 207 142.5 424t445.5 486l-432 -5q-164 -2 -215 -28.5t-80 -136.5 l-47 8q-12 4 -12 16z" />
<glyph d="M90 356q0 133 85 235.5t220 139.5q-115 45 -180 131t-65 207q0 166 124.5 278.5t321.5 112.5q188 0 295.5 -94t107.5 -242q0 -111 -69.5 -203t-194.5 -124q141 -51 225 -152.5t84 -232.5q0 -190 -135 -313.5t-348 -123.5q-207 0 -339 105.5t-132 275.5zM334 365 q0 -139 62.5 -214t174.5 -75q106 0 169 61.5t63 181.5q0 260 -307 353q-66 -20 -114 -104t-48 -203zM369 1141q0 -203 258 -297q66 20 111.5 97t45.5 173q0 121 -55 187.5t-154 66.5q-96 0 -151 -63.5t-55 -163.5z" />
<glyph d="M37 -199q0 72 41 117t104 45q53 0 87 -31.5t34 -83.5q0 -39 -14 -73q37 -23 114 -23q147 0 250 149.5t117 460.5q-121 -115 -291 -114q-188 0 -296.5 118.5t-108.5 301.5q0 203 136 344t355 141q217 0 344 -177t127 -468q0 -373 -163.5 -614.5t-434.5 -241.5 q-241 -1 -401 149zM330 754q0 -178 63.5 -277.5t163.5 -99.5q111 0 163 60.5t52 144.5q0 240 -65.5 351t-174.5 111q-94 0 -148 -75.5t-54 -214.5z" />
<glyph horiz-adv-x="1085" d="M74 535q0 272 138 437t347 165q193 0 323 -158t130 -399q0 -264 -137.5 -431t-342.5 -167q-193 0 -325.5 153.5t-132.5 399.5zM328 569q0 -231 55 -360t160 -129q100 0 156.5 121t56.5 329q0 242 -56.5 374t-156.5 132q-104 0 -159.5 -126t-55.5 -341z" />
<glyph horiz-adv-x="823" d="M20 903q-2 20 11 23l524 233q35 0 35 -20q0 -4 -5 -135.5t-5 -247.5v-633q0 -12 8 -20.5t50 -21.5t132 -36l-4 -33q0 -12 -12 -12h-588q-14 0 -14 12l-7 33q92 23 134.5 36t50.5 21.5t8 20.5v829l-299 -114z" />
<glyph horiz-adv-x="1107" d="M113 66l356 317q111 104 158 193.5t47 207.5q0 240 -182 240q-55 0 -103 -20q16 -84 -23.5 -130.5t-105.5 -46.5q-53 0 -90 40t-37 114q201 156 461 156q166 0 259 -75t93 -214q0 -129 -81 -233.5t-300 -295.5l-155 -137h319q80 0 116 32t56 118l49 -6q12 -4 13 -13 l-27 -299q0 -14 -23 -14h-770q-12 0 -16 12z" />
<glyph horiz-adv-x="1032" d="M84 127l6 12l29 35q113 -86 264 -86q113 0 183.5 51t70.5 160q0 102 -83 171t-247 69l8 69q2 10 23 10q143 0 213 58.5t70 157.5q0 86 -48.5 141t-142.5 55q-53 0 -102 -22q8 -72 -29 -110t-94 -38q-49 0 -82 36t-33 95q78 57 200 101.5t251 44.5q168 0 254 -74t86 -191 q0 -106 -78 -181t-225 -101q168 -18 248.5 -95t80.5 -190q0 -166 -130 -248t-320 -82q-244 0 -367 140q-6 8 -6 12z" />
<glyph horiz-adv-x="991" d="M31 381q336 455 606 752q12 8 25 8l88 -17v-714h215q-8 -102 -21 -103h-194v-180q0 -23 26.5 -37t130.5 -45l-6 -33q0 -12 -10 -12h-520q-14 0 -15 12l-6 33q109 33 136.5 46t27.5 36v180h-457q-8 0 -12 12zM178 410h336v419q-27 -30 -336 -419z" />
<glyph horiz-adv-x="1003" d="M86 119q0 68 38 109.5t97 41.5q53 0 86 -30.5t33 -77.5q0 -35 -12 -62q41 -20 116 -20q104 0 161 75.5t57 211.5q0 106 -45.5 171.5t-133.5 65.5q-133 0 -213 -121h-104l53 627h653l-22 -178q-4 -14 -21 -14h-522l-26 -314q135 135 317 135q154 0 238 -86t84 -241 q0 -193 -126 -315t-323 -122q-207 1 -385 144z" />
<glyph horiz-adv-x="1058" d="M96 487q0 301 173 475.5t450 174.5q113 0 180 -31q14 -8 14 -23l-16 -61q-76 20 -164 20q-162 0 -267.5 -100t-115.5 -276q109 123 279 122.5t261 -98.5t91 -268q0 -182 -122 -314.5t-329 -132.5q-201 0 -317.5 140.5t-116.5 371.5zM354 457q0 -184 59.5 -286.5 t151.5 -102.5q82 0 123 80.5t41 209.5q0 150 -47 234t-135 84q-96 0 -144.5 -65.5t-48.5 -153.5z" />
<glyph horiz-adv-x="1058" d="M135 797l23 299q0 14 18 14h780q12 0 17 -12l8 -33q-233 -629 -440 -1051q-8 -14 -25 -14h-268q340 506 573 913l-422 -4q-98 0 -143 -24.5t-68 -108.5l-43 8q-10 1 -10 13z" />
<glyph horiz-adv-x="1024" d="M78 264q0 219 264 293q-102 25 -165.5 94.5t-63.5 167.5q0 141 119.5 229.5t299.5 88.5q174 0 282 -77t108 -196q0 -90 -63.5 -153.5t-170.5 -89.5q117 -27 186.5 -113t69.5 -197q0 -158 -123 -247t-319 -89q-182 0 -303 76t-121 213zM319 291q0 -231 193 -231.5 t193 198.5q0 203 -267 252q-43 -8 -81 -65.5t-38 -153.5zM342 870q0 -88 57.5 -140t171.5 -79q49 8 87 54.5t38 130.5q0 104 -46 161.5t-130 57.5q-90 0 -134 -51.5t-44 -133.5z" />
<glyph horiz-adv-x="1058" d="M92 104q0 68 37 108t98 40q53 0 83 -28.5t30 -76.5q0 -35 -12 -65q45 -16 96 -16q268 0 293 415q-102 -88 -256 -88q-170 0 -269.5 92.5t-99.5 249.5q0 172 122 287t321 115q205 0 319.5 -139.5t114.5 -368.5q0 -293 -130 -473.5t-390 -180.5q-197 0 -357 129zM342 795 q0 -139 51 -219t139 -80q178 0 179 153q0 395 -205 395q-164 1 -164 -249z" />
<glyph horiz-adv-x="1058" d="M61 535q0 272 138.5 437t347.5 165q193 0 322.5 -158t129.5 -399q0 -264 -137 -431t-342 -167q-193 0 -326 153.5t-133 399.5zM315 569q0 -231 55.5 -360t159.5 -129q100 0 156.5 121t56.5 329q0 242 -56 374t-157 132q-104 0 -159.5 -126t-55.5 -341z" />
<glyph horiz-adv-x="1058" d="M141 903q0 20 11 23l526 233q35 0 35 -20q0 -4 -5.5 -135.5t-5.5 -247.5v-633q0 -12 8.5 -20.5t50.5 -21.5t132 -36l-6 -33q0 -12 -10 -12h-588q-14 0 -15 12l-6 33q90 23 132 36t50.5 21.5t8.5 20.5v829l-297 -114z" />
<glyph horiz-adv-x="1107" d="M115 66l356 317q111 104 158 193.5t47 207.5q0 240 -182 240q-55 0 -103 -20q16 -84 -23.5 -130.5t-105.5 -46.5q-53 0 -90 40t-37 114q201 156 461 156q166 0 259 -75t93 -214q0 -129 -81 -233.5t-300 -295.5l-155 -137h319q80 0 116 32t56 118l49 -6q12 -4 13 -13 l-27 -299q0 -14 -23 -14h-770q-14 0 -16 12z" />
<glyph horiz-adv-x="1058" d="M102 127l7 12l28 35q111 -86 262 -86q113 0 183.5 50t70.5 161q0 102 -82 171t-245 69l8 69q2 10 22 10q143 0 213 58.5t70 157.5q0 86 -48 141t-142 55q-53 0 -105 -22q8 -72 -27.5 -110t-93.5 -38q-49 0 -81.5 36t-32.5 95q78 57 199.5 101.5t248.5 44.5q168 0 255 -74 t87 -191q0 -106 -79 -181t-224 -101q168 -18 248 -95t80 -190q0 -166 -129 -248t-320 -82q-246 0 -369 140z" />
<glyph horiz-adv-x="1058" d="M63 381q336 455 607 752q12 8 24 8l88 -17v-714h215q-8 -102 -20 -103h-195v-180q0 -23 27 -37t131 -45l-6 -33q0 -12 -10 -12h-521q-14 0 -14 12l-6 33q109 33 136.5 46t27.5 36v180h-457q-8 0 -12 12zM211 410h336v419q-27 -30 -336 -419z" />
<glyph horiz-adv-x="1058" d="M86 119q0 68 38 109.5t97 41.5q53 0 86 -30.5t33 -77.5q0 -35 -12 -62q41 -20 116 -20q104 0 161 75.5t57 211.5q0 106 -45.5 171.5t-133.5 65.5q-133 0 -213 -121h-104l53 627h653l-22 -178q-4 -14 -21 -14h-522l-26 -314q135 135 317 135q154 0 238 -86t84 -241 q0 -193 -126 -315t-323 -122q-207 1 -385 144z" />
<glyph horiz-adv-x="1058" d="M96 487q0 301 173 475.5t450 174.5q113 0 180 -31q14 -8 14 -23l-16 -61q-76 20 -164 20q-162 0 -267.5 -100t-115.5 -276q109 123 279 122.5t261 -98.5t91 -268q0 -182 -122 -314.5t-329 -132.5q-201 0 -317.5 140.5t-116.5 371.5zM354 457q0 -184 59.5 -286.5 t151.5 -102.5q82 0 123 80.5t41 209.5q0 150 -47 234t-135 84q-96 0 -144.5 -65.5t-48.5 -153.5z" />
<glyph horiz-adv-x="1058" d="M135 795q8 100 21 301q0 4 7 9t11 5h780q8 0 13.5 -7t9.5 -22.5t4 -17.5q-225 -610 -440 -1049q-8 -14 -27 -14h-266q332 496 571 913l-420 -4q-100 -2 -144 -26.5t-67 -106.5l-43 6q-10 5 -10 13z" />
<glyph horiz-adv-x="1058" d="M96 264q0 219 262 293q-102 25 -165.5 94.5t-63.5 167.5q0 141 121 229.5t301 88.5q174 0 280.5 -77t106.5 -196q0 -90 -62.5 -153.5t-168.5 -89.5q115 -27 184.5 -113t69.5 -197q0 -158 -122 -247t-319 -89q-182 0 -303 76t-121 213zM338 291q0 -231 192.5 -231.5 t192.5 198.5q0 203 -266 252q-45 -6 -82 -64.5t-37 -154.5zM358 870q0 -90 57.5 -141t174.5 -78q47 8 85 55.5t38 129.5q0 104 -46 161.5t-130 57.5q-90 0 -134.5 -51.5t-44.5 -133.5z" />
<glyph horiz-adv-x="1058" d="M92 104q0 68 37 108t98 40q53 0 83 -28.5t30 -76.5q0 -35 -12 -65q45 -16 96 -16q268 0 293 415q-102 -88 -256 -88q-170 0 -269.5 92.5t-99.5 249.5q0 172 122 287t321 115q205 0 319.5 -139.5t114.5 -368.5q0 -293 -130 -473.5t-390 -180.5q-197 0 -357 129zM342 795 q0 -139 51 -219t139 -80q178 0 179 153q0 395 -205 395q-164 1 -164 -249z" />
<glyph horiz-adv-x="1693" d="M78 666q0 362 229.5 578t583.5 216q315 0 519 -198.5t204 -507.5q0 -350 -219 -564.5t-564 -214.5q-324 0 -538.5 188t-214.5 503zM276 713q0 -283 152 -448t412 -165q252 0 411.5 167t159.5 438q0 295 -147.5 461.5t-401.5 166.5q-260 0 -423 -173t-163 -447zM475 309 q82 25 101.5 37t19.5 29v676q0 16 -19.5 28.5t-101.5 36.5l4 35q0 10 10 10h435q178 0 276 -74.5t98 -197.5q0 -131 -94 -203t-252 -72q-53 0 -139 11v-250q0 -12 5 -18.5t33 -18.5t87 -29l-6 -35q0 -10 -8 -10h-432q-12 0 -13 10zM813 694q20 -2 57 -2q111 0 161 42 t50 148.5t-51 152.5t-172 46q-29 0 -45 -2v-385z" />
<glyph horiz-adv-x="1607" d="M88 350q0 285 363 422q-72 133 -72 283q0 172 122 288.5t316 116.5q154 0 239 -77.5t85 -196.5q0 -137 -101.5 -231.5t-296.5 -161.5q55 -74 128 -146t183.5 -166t149.5 -131q125 168 125 326q0 41 -25.5 59.5t-123.5 46.5l6 33q0 12 14 12h248q86 0 86 -88 q0 -96 -65.5 -228t-182.5 -241q186 -197 187 -387q0 -72 -25 -147q-6 -14 -21 -15l-36 7q0 119 -68 214t-199 201q-260 -168 -567 -168q-231 0 -350 103.5t-119 271.5zM334 449q0 -162 103.5 -261.5t264.5 -99.5q193 0 351 111q-23 18 -97.5 72.5t-108.5 80t-97.5 76.5 t-101.5 89t-83 89t-78 101q-153 -78 -153 -258zM614 1151q0 -156 86 -297q229 90 230 301q0 96 -38 150.5t-110 54.5q-78 0 -123 -55.5t-45 -153.5z" />
<glyph horiz-adv-x="1681" d="M141 467q0 96 29 190.5t88 181.5t141 153.5t200 105.5t253 39q256 0 403 -148q-2 -80 -49 -124t-108 -44q-53 0 -89 32t-36 89q0 37 18 78q-74 23 -145 22q-170 0 -288 -103t-152 -259q752 12 1167 47l-12 -109q0 -14 -13 -14h-319v-266q0 -209 170 -209q106 0 172 45 l26 -33q6 -6 6.5 -14t-4.5 -12q-127 -139 -315 -140q-193 0 -260 148q-137 -147 -377 -148q-244 0 -375 141.5t-131 350.5zM393 537q0 -172 96.5 -289t276.5 -117q141 0 238 49q-10 51 -11 111v313h-596q-4 -30 -4 -67z" />
<glyph horiz-adv-x="1681" d="M141 467q0 96 29 190.5t88 181.5t141 153.5t200 105.5t253 39q256 0 403 -148q-2 -80 -49 -124t-108 -44q-53 0 -89 32t-36 89q0 37 18 78q-74 23 -145 22q-170 0 -288 -103t-152 -259q752 12 1167 47l-12 -109q0 -14 -13 -14h-319v-266q0 -209 170 -209q106 0 172 45 l26 -33q6 -6 6.5 -14t-4.5 -12q-127 -139 -315 -140q-193 0 -260 148q-137 -147 -377 -148q-244 0 -375 141.5t-131 350.5zM393 537q0 -172 96.5 -289t276.5 -117q141 0 238 49q-10 51 -11 111v313h-596q-4 -30 -4 -67z" />
<glyph horiz-adv-x="1429" d="M98 463q0 260 209 470t502 210q184 0 260 -69.5t76 -203.5q0 -205 -139.5 -387t-325.5 -182q-90 0 -147.5 49t-57.5 133q0 94 82 182.5t181.5 138.5t195.5 77q0 86 -30 122.5t-118 36.5q-188 0 -322 -147.5t-134 -368.5q0 -176 99 -275t288 -99q229 0 384.5 159.5 t162.5 427.5l53 -6q16 0 16 -20q0 -338 -186 -537t-535 -199q-246 0 -380 139.5t-134 348.5zM670 545q0 -51 30.5 -78t75.5 -27q96 0 131 105q29 78 29 258q-131 -37 -198.5 -109.5t-67.5 -148.5z" />
<glyph horiz-adv-x="1105" d="M-66 45q78 16 113 51t84 144q188 414 361 888h143q156 -453 395 -1009q6 -12 13.5 -21.5t38 -23t85.5 -29.5l-4 -33q-4 -12 -14 -12h-516q-8 0 -12 12l-7 33q150 31 150 59q0 8 -6 21l-84 209h-389q-61 -170 -62 -211q0 -27 23.5 -44.5t103.5 -33.5l-6 -33q0 -12 -10 -12 h-379q-10 0 -14 12zM319 424h320q-72 172 -156 422q-131 -328 -164 -422z" />
<glyph horiz-adv-x="1234" d="M86 45q102 31 126 44t24 36v860q0 23 -24 36t-126 44l6 35q0 10 12 10h533q442 0 442 -252q0 -106 -94 -180t-274 -80q207 -4 320.5 -88t113.5 -209q0 -301 -539 -301h-502q-12 0 -12 12zM483 104q49 -16 133 -16q135 0 191.5 51t56.5 150q0 113 -64.5 174t-207.5 78 q-51 6 -109 6v-443zM483 635q25 -2 70 -2q139 0 200.5 40t61.5 148q0 207 -237 207q-51 0 -95 -8v-385z" />
<glyph horiz-adv-x="1122" d="M92 494q0 270 175 456.5t452 186.5q80 0 165 -17.5t124 -38.5v-276q0 -12 -13 -17l-43 -8q-27 248 -264 248q-162 0 -251 -112.5t-89 -313.5q0 -215 111.5 -333.5t277.5 -118.5q164 0 269 96l30 -37q8 -8 8 -14q0 -2 -6 -13q-61 -92 -168.5 -149.5t-240.5 -57.5 q-250 0 -393.5 144t-143.5 375z" />
<glyph horiz-adv-x="1368" d="M86 45q102 31 126 44t24 36v860q0 23 -24 36t-126 44l6 35q0 10 12 10h525q301 0 474 -139.5t173 -407.5q0 -252 -179 -407.5t-479 -155.5h-514q-12 0 -12 12zM483 104q49 -10 123 -10q76 0 140.5 18.5t124 63.5t94 132t34.5 210q0 266 -112.5 384t-325.5 118 q-53 0 -78 -2v-914z" />
<glyph horiz-adv-x="1134" d="M86 45q102 31 126 45t24 39v852q0 25 -24 39t-126 45l6 33q0 12 10 12h844l31 -266q0 -12 -12 -17l-43 -8q-31 113 -66 149t-102 38l-271 6v-381q188 0 353 20v-129q-152 20 -353 21v-439l346 7q68 2 102 33.5t64 142.5l43 -6q12 -4 13 -17l-27 -264h-918q-14 0 -14 12z " />
<glyph horiz-adv-x="1013" d="M86 45q102 31 126 44t24 36v856q0 25 -24 39t-126 45l6 33q0 12 10 12h844l31 -266q0 -12 -12 -17l-43 -8q-31 113 -66 149t-102 38l-271 6v-398q188 0 353 21v-131q-152 20 -353 20v-399q0 -16 8.5 -24.5t48.5 -21.5t130 -34l-6 -33q0 -12 -11 -12h-547q-14 0 -14 12z " />
<glyph horiz-adv-x="1265" d="M98 487q0 270 189.5 460t478.5 190q94 0 183 -17.5t126 -38.5v-268q0 -12 -12 -16l-45 -9q-25 242 -281 242q-174 0 -277.5 -116.5t-103.5 -319.5q0 -219 114 -347t280 -128q76 0 151 16v293q0 29 -8 44t-58.5 32.5t-152.5 30.5l6 32q0 12 14 13h437v-426 q-256 -178 -500 -179q-248 0 -394.5 141.5t-146.5 370.5z" />
<glyph horiz-adv-x="1527" d="M86 45q102 31 126 44t24 36v860q0 23 -24 36t-126 44l6 33q0 12 12 12h510q12 0 13 -12l6 -33q-102 -31 -126 -44t-24 -36v-350h561v350q0 23 -23.5 36t-125.5 44l6 33q0 12 14 12h510q10 0 11 -12l6 -33q-102 -31 -126 -44t-24 -36v-860q0 -23 23.5 -36t126.5 -44 l-6 -33q0 -12 -11 -12h-510q-14 0 -14 12l-6 33q102 31 125.5 44t23.5 36v416h-561v-416q0 -23 23.5 -36t126.5 -44l-6 -33q0 -12 -11 -12h-510q-14 0 -14 12z" />
<glyph horiz-adv-x="716" d="M86 45q102 31 126 44t24 36v860q0 23 -24 36t-126 44l6 33q0 12 12 12h510q12 0 13 -12l6 -33q-102 -31 -126 -44t-24 -36v-860q0 -23 23.5 -36t126.5 -44l-6 -33q0 -12 -11 -12h-510q-14 0 -14 12z" />
<glyph horiz-adv-x="661" d="M-147 -223l20 35q70 -45 166 -45q193 0 192 235v983q0 23 -23.5 36t-125.5 44l6 33q0 12 12 12h510q12 0 13 -12l6 -33q-102 -31 -126 -44t-24 -36v-1034q0 -158 -88 -242t-250 -84q-188 0 -286 123q-12 13 -2 29z" />
<glyph horiz-adv-x="1355" d="M86 45q102 31 126 44t24 36v860q0 23 -24 36t-126 44l6 33q0 12 12 12h510q12 0 13 -12l6 -33q-102 -31 -126 -44t-24 -36v-367q96 0 192.5 84t225.5 289q8 14 4 26.5t-31.5 25t-80.5 24.5l6 31q0 12 12 12h463q14 0 14 -12l6 -31q-53 -10 -83.5 -21.5t-39 -18.5 t-22.5 -23q-291 -354 -442 -392q88 -10 197.5 -119.5t324.5 -388.5q16 -23 37.5 -34t76.5 -25l-6 -33q0 -12 -12 -12h-336q-27 0 -39 25q-164 287 -273.5 407.5t-193.5 120.5v-428q0 -23 23.5 -36t126.5 -44l-6 -33q0 -12 -11 -12h-510q-14 0 -14 12z" />
<glyph horiz-adv-x="1042" d="M86 45q102 31 126 45t24 39v856q0 23 -24 36t-126 44l6 33q0 12 12 12h510q12 0 13 -12l6 -33q-102 -31 -126 -44t-24 -36v-881l283 7q78 2 121 40.5t76 165.5l43 -6q12 -4 12 -16l-31 -295h-881q-14 0 -14 12z" />
<glyph horiz-adv-x="1763" d="M90 45q98 25 119.5 35t23.5 31q23 676 23 878q0 14 -6 22.5t-38 23t-95 30.5l6 35q0 10 8 10h442q176 -344 326 -758q156 395 326 758h405q10 0 10 -10l9 -35q-68 -16 -98.5 -27.5t-37 -18.5t-6.5 -20q4 -506 27 -888q2 -18 23.5 -29.5t117.5 -36.5l-6 -35q0 -10 -8 -10 h-487q-12 0 -13 10l-6 35q88 25 108.5 36t20.5 30l-22 835q-190 -418 -377 -895h-131q-152 406 -389 895l-19 -835q0 -18 20.5 -29.5t112.5 -36.5l-2 -35q0 -10 -10 -10h-361q-10 0 -10 10z" />
<glyph horiz-adv-x="1372" d="M86 45q102 31 126 45t24 39v852q0 25 -24 39t-126 45l6 33q0 12 10 12h412q309 -367 524 -696v567q0 25 -23.5 39t-125.5 45l6 33q0 12 10 12h373q14 0 14 -12l6 -33q-102 -31 -125.5 -45t-23.5 -39v-971q0 -16 -16 -18l-91 -12q-289 434 -694 944v-795q0 -25 23.5 -39 t126.5 -45l-6 -33q0 -12 -11 -12h-375q-14 0 -14 12z" />
<glyph horiz-adv-x="1351" d="M92 514q0 276 171 449.5t429 173.5q250 0 409 -148.5t159 -398.5q0 -266 -166 -440.5t-428 -174.5q-244 0 -409 142.5t-165 396.5zM371 569.5q0 -221.5 79.5 -359.5t221.5 -138q145 0 228 122.5t83 342.5q0 227 -79 365t-220 138q-147 0 -230 -124.5t-83 -346z" />
<glyph horiz-adv-x="1167" d="M86 45q102 31 126 44t24 36v860q0 23 -24 36t-126 44l6 33q0 12 12 12h543q217 0 338 -90t121 -240q0 -164 -123 -255t-319 -91q-86 0 -181 12v-321q0 -23 24.5 -36t129.5 -44l-6 -33q0 -12 -10 -12h-515q-14 0 -14 12zM483 535q53 -4 70 -5q141 0 209.5 53.5t68.5 182.5 q0 133 -71.5 194.5t-222.5 61.5q-35 0 -54 -2v-485z" />
<glyph horiz-adv-x="1390" d="M92 514q0 276 171 449.5t429 173.5q250 0 407.5 -148.5t157.5 -398.5q0 -299 -227 -481q188 57 412 57l-37 -154q-4 -12 -16 -12h-463q-76 0 -159 -12.5t-101 -12.5q-244 0 -409 142.5t-165 396.5zM371 569.5q0 -221.5 79.5 -359.5t221.5 -138q145 0 228 122.5t83 342.5 q0 227 -79 365t-220 138q-147 0 -230 -124.5t-83 -346z" />
<glyph horiz-adv-x="1300" d="M86 45q102 31 126 44t24 36v860q0 23 -24 36t-126 44l6 33q0 12 12 12h539q213 0 325.5 -78t112.5 -213q0 -111 -88 -188.5t-235 -93.5q119 -10 208 -99.5t238 -345.5q14 -25 96 -47l-8 -35q-4 -10 -14 -10h-309q-23 0 -31 18q-125 270 -200.5 367.5t-153.5 106.5 q-45 6 -101 6v-373q0 -23 23.5 -36t126.5 -44l-6 -33q0 -12 -11 -12h-510q-14 0 -14 12zM483 584q53 -4 68 -4q133 0 197.5 47t64.5 166q0 123 -67.5 176t-208.5 53q-35 0 -54 -2v-436z" />
<glyph horiz-adv-x="987" d="M104 27v258q0 10 15 14l45 10q29 -238 285 -237q229 0 229 176q0 70 -57.5 117t-138.5 78.5t-162.5 68.5t-139 107.5t-57.5 173.5q0 147 112.5 245.5t315.5 98.5q170 0 287 -50v-258q0 -12 -15 -16l-49 -8q-25 238 -244 237q-98 0 -147 -45t-49 -118q0 -61 58.5 -106.5 t141 -78t165.5 -73.5t141.5 -116t58.5 -181q0 -164 -134 -256.5t-345 -92.5q-181 1 -316 52z" />
<glyph horiz-adv-x="1130" d="M27 811l24 299h1026l25 -299q0 -10 -10 -14l-48 -6q-12 123 -57 151.5t-205 34.5l-94 2v-854q0 -23 23.5 -36t126.5 -44l-7 -33q0 -12 -10 -12h-510q-14 0 -14 12l-6 33q102 31 125.5 44t23.5 36v854l-92 -2q-160 -6 -206 -35t-58 -151l-47 6q-10 6 -10 14z" />
<glyph horiz-adv-x="1378" d="M76 1065l6 33q0 12 10 12h510q14 0 14 -12l7 -33q-102 -31 -126 -44t-24 -34v-547q0 -152 79 -233.5t210 -81.5q285 0 285 319v543q0 20 -24 33.5t-126 44.5l6 33q0 12 12 12h388q12 0 12 -12l6 -33q-102 -31 -126 -44t-24 -34v-571q0 -211 -134 -326t-339 -115 q-213 0 -343 116t-130 325v571q0 20 -23.5 33.5t-125.5 44.5z" />
<glyph horiz-adv-x="1128" d="M-41 1065l4 33q4 12 14 12h517q8 0 12 -12l6 -33q-147 -29 -147 -57q0 -6 4 -23q168 -399 264 -698q252 623 252 700q0 27 -23.5 44.5t-103.5 33.5l6 33q0 12 10 12h379q10 0 14 -12l7 -33q-78 -16 -113 -51t-84 -144q-182 -393 -350 -874h-142q-156 455 -383 983 q-8 20 -17 30.5t-40 25t-86 30.5z" />
<glyph horiz-adv-x="1726" d="M-39 1065l4 33q4 12 15 12h516q8 0 12 -12l6 -33q-152 -29 -152 -57q0 -4 5 -21q152 -336 264 -696q160 416 258 819h94q39 -131 88 -278.5t106 -311.5l78 -229q8 18 31 76.5t34 87t32.5 86t34 92.5t31 85t27.5 85t20.5 71.5t15.5 64.5t4 46.5t-5 29.5t-35 24.5t-87 25.5 l6 33q0 12 10 12h383q10 0 15 -12l6 -33q-80 -16 -116 -53t-75 -135q-256 -645 -342 -881h-135q-190 551 -240 682q-117 -309 -254 -682h-133q-170 512 -379 975q-14 37 -38.5 54t-104.5 40z" />
<glyph horiz-adv-x="1331" d="M35 45q76 20 139.5 69.5t204.5 207.5l188 204q-233 307 -370 461q-37 47 -150 78l4 33q4 12 15 12h538q8 0 12 -12l7 -33q-63 -12 -96 -21.5t-40.5 -16.5t-7.5 -19q0 -4 10 -19q203 -252 234 -293l104 123q129 147 129 185q0 20 -21.5 32.5t-92.5 28.5l6 33q4 12 12 12 h404q10 0 14 -12l6 -33q-84 -12 -141.5 -58t-179.5 -184l-185 -198q209 -264 371 -500q18 -29 44 -44t97 -36l-4 -33q-4 -12 -14 -12h-533q-8 0 -12 12l-6 33q143 29 143 57q0 12 -4 21q-90 139 -239 332l-152 -172q-121 -137 -121 -177q0 -20 22.5 -33.5t92.5 -27.5l-6 -33 q-4 -12 -13 -12h-389q-10 0 -14 12z" />
<glyph horiz-adv-x="1234" d="M-16 1065l6 33q4 12 14 12h537q8 0 12 -12l6 -33q-61 -12 -93 -21.5t-40 -16.5t-8 -17q0 -8 8 -21q115 -127 272 -375l115 164q125 178 125 226q0 20 -21.5 32.5t-97.5 28.5l6 33q4 12 13 12h409q8 0 13 -12l6 -33q-92 -25 -161 -83t-175 -204l-170 -233v-420 q0 -23 23.5 -36t125.5 -44l-6 -33q0 -12 -10 -12h-510q-14 0 -14 12l-7 33q102 31 126 44t24 36v371q-176 274 -375 491q-47 51 -153 78z" />
<glyph horiz-adv-x="1198" d="M61 55q383 475 709 951l-297 -7q-152 -2 -213 -41.5t-80 -158.5l-43 8q-12 4 -12 14l27 271q0 6 7 12t15 6h897q12 0 16 -16l9 -39q-358 -522 -690 -951l358 7q156 4 217 41.5t80 162.5l43 -8q12 -4 12 -14l-24 -275q0 -6 -7.5 -12t-15.5 -6h-983q-12 0 -16 16z" />
<glyph horiz-adv-x="1628" d="M-139 45q86 16 132 50t140 145q82 98 298 370.5t296 368.5q2 25 -27.5 44t-117.5 42l6 33q0 12 10 12h846l29 -266q0 -12 -13 -17l-43 -8q-29 111 -63.5 148t-102.5 39l-272 6v-381q190 0 354 20v-129q-152 20 -354 21v-439l348 7q68 2 101.5 33.5t64.5 142.5l43 -6 q12 -4 12 -17l-26 -264h-920q-14 0 -14 12l-6 33q102 31 125.5 45t23.5 39v203h-385q-125 -166 -143 -209q-10 -27 7 -44.5t89 -33.5l-6 -33q0 -12 -10 -12h-402q-10 0 -14 12zM412 420h319v424q-163 -209 -319 -424z" />
<glyph horiz-adv-x="1841" d="M92 514q0 276 171 449.5t429 173.5q104 0 191 -27h792l31 -266q0 -12 -12 -17l-43 -8q-29 111 -64 146.5t-104 40.5l-418 12q174 -135 192 -387q160 2 308 20v-129q-129 16 -308 21q-16 -285 -225 -447l527 15q68 2 101.5 33.5t63.5 142.5l43 -6q12 -4 13 -17l-27 -264 h-911q-84 -25 -176 -25q-244 0 -409 142.5t-165 396.5zM371 569.5q0 -221.5 79.5 -359.5t221.5 -138q145 0 228 122.5t83 342.5q0 227 -79 365t-220 138q-147 0 -230 -124.5t-83 -346z" />
<glyph horiz-adv-x="1372" d="M86 45q102 31 126 45t24 39v852q0 25 -24 39t-126 45l6 33q0 12 10 12h412q309 -367 524 -696v567q0 25 -23.5 39t-125.5 45l6 33q0 12 10 12h373q14 0 14 -12l6 -33q-102 -31 -125.5 -45t-23.5 -39v-1024q0 -139 -75 -251t-189 -159q-8 -4 -25 -4l-51 29 q217 143 223 420q-283 426 -684 932v-795q0 -25 23.5 -39t126.5 -45l-6 -33q0 -12 -11 -12h-375q-14 0 -14 12z" />
<glyph horiz-adv-x="1368" d="M82 506v145h154v334q0 23 -24 36t-126 44l6 35q0 10 12 10h525q301 0 474 -139.5t173 -407.5q0 -252 -179 -407.5t-479 -155.5h-514q-12 0 -12 12l-6 33q102 31 126 44t24 36v381h-154zM483 104q49 -10 123 -10q76 0 140.5 18.5t124 63.5t94 132t34.5 210 q0 266 -112.5 384t-325.5 118q-53 0 -78 -2v-367h160v-145h-160v-402z" />
<glyph horiz-adv-x="1394" d="M86 45q102 31 126 44t24 36v860q0 23 -24 36t-126 44l6 33q0 12 12 12h510q12 0 13 -12l6 -33q-102 -31 -126 -44t-24 -36v-860q0 -23 23.5 -36t126.5 -44l-6 -33q0 -12 -11 -12h-510q-14 0 -14 12zM557 -223l23 35q66 -45 165 -45q190 0 191 235v983q0 23 -23.5 36 t-126.5 44l7 33q0 12 14 12h510q10 0 10 -12l6 -33q-102 -31 -125.5 -44t-23.5 -36v-1034q0 -158 -88 -242t-250 -84q-188 0 -287 123q-10 15 -2 29z" />
<glyph horiz-adv-x="1351" d="M51 0l160 164q-119 145 -119 350q0 276 171 449.5t429 173.5q213 0 365 -113l84 86h162l-164 -166q121 -141 121 -354q0 -266 -166 -440.5t-428 -174.5q-215 0 -367 111l-86 -86h-162zM371 569q0 -121 26 -215l518 525q-82 162 -231 161q-147 0 -230 -125t-83 -346z M438 233q82 -162 234 -161q145 0 228 122.5t83 342.5q0 129 -27 223z" />
<glyph horiz-adv-x="1181" d="M86 45q102 31 126 44t24 36v860q0 23 -24 36t-126 44l6 33q0 12 12 12h510q12 0 13 -12l6 -33q-102 -31 -126 -44t-24 -36v-76h164q217 0 338 -90t121 -241q0 -162 -124 -255.5t-318 -93.5q-86 0 -181 13v-117q0 -23 23.5 -36t126.5 -44l-6 -33q0 -12 -11 -12h-510 q-14 0 -14 12zM483 330q53 -4 70 -4q139 0 208.5 54t69.5 183q0 135 -71.5 196.5t-222.5 61.5q-35 0 -54 -2v-489z" />
<glyph horiz-adv-x="1105" d="M-66 45q78 16 113 51t84 144q188 414 361 888h143q156 -453 395 -1009q6 -12 13.5 -21.5t38 -23t85.5 -29.5l-4 -33q-4 -12 -14 -12h-516q-8 0 -12 12l-7 33q150 31 150 59q0 8 -6 21l-84 209h-389q-61 -170 -62 -211q0 -27 23.5 -44.5t103.5 -33.5l-6 -33q0 -12 -10 -12 h-379q-10 0 -14 12zM319 424h320q-72 172 -156 422q-131 -328 -164 -422zM393 1264l291 321h227q29 0 35 -19.5t-22 -37.5l-490 -311l-39 22q-16 11 -2 25z" />
<glyph horiz-adv-x="1105" d="M-66 45q78 16 113 51t84 144q188 414 361 888h143q156 -453 395 -1009q6 -12 13.5 -21.5t38 -23t85.5 -29.5l-4 -33q-4 -12 -14 -12h-516q-8 0 -12 12l-7 33q150 31 150 59q0 8 -6 21l-84 209h-389q-61 -170 -62 -211q0 -27 23.5 -44.5t103.5 -33.5l-6 -33q0 -12 -10 -12 h-379q-10 0 -14 12zM319 424h320q-72 172 -156 422q-131 -328 -164 -422zM326 1559h82q0 -76 47 -115t114 -39q63 0 107.5 38t44.5 116h82q0 -152 -66.5 -229t-181.5 -77q-111 0 -170 77t-59 229z" />
<glyph horiz-adv-x="1105" d="M-66 45q78 16 113 51t84 144q188 414 361 888h143q156 -453 395 -1009q6 -12 13.5 -21.5t38 -23t85.5 -29.5l-4 -33q-4 -12 -14 -12h-516q-8 0 -12 12l-7 33q150 31 150 59q0 8 -6 21l-84 209h-389q-61 -170 -62 -211q0 -27 23.5 -44.5t103.5 -33.5l-6 -33q0 -12 -10 -12 h-379q-10 0 -14 12zM244 1268l248 307q20 25 49 24h45q33 0 51 -20l240 -311q14 -18 -3 -25l-49 -20l-268 182l-262 -182l-49 20q-16 7 -2 25zM319 424h320q-72 172 -156 422q-131 -328 -164 -422z" />
<glyph horiz-adv-x="1105" d="M-45 45q78 16 112.5 51t84.5 144q188 414 360 888h143q156 -453 396 -1009q6 -12 13 -21.5t38 -23t86 -29.5l-4 -33q-4 -12 -15 -12h-516q-8 0 -12 12l-6 33q150 31 149 59q0 8 -6 21l-84 209h-389q-61 -170 -61 -211q0 -27 23.5 -44.5t103.5 -33.5l-6 -33q0 -12 -11 -12 h-379q-10 0 -14 12zM219 1399q0 53 37 90t90 37t91 -37t38 -90t-38 -92t-91 -39t-90 39t-37 92zM340 424h319q-72 172 -155 422q-131 -328 -164 -422zM672 1399q0 53 36.5 90t92.5 37q53 0 89 -37t36 -90q0 -55 -36 -93t-89 -38q-55 0 -92 38t-37 93z" />
<glyph horiz-adv-x="1105" d="M-66 45q78 16 113 51t84 144q188 414 361 888h143q156 -453 395 -1009q6 -12 13.5 -21.5t38 -23t85.5 -29.5l-4 -33q-4 -12 -14 -12h-516q-8 0 -12 12l-7 33q150 31 150 59q0 8 -6 21l-84 209h-389q-61 -170 -62 -211q0 -27 23.5 -44.5t103.5 -33.5l-6 -33q0 -12 -10 -12 h-379q-10 0 -14 12zM187.5 1565.5q5.5 19.5 35.5 19.5h228l288 -321q18 -14 -2 -25l-37 -22l-489 311q-29 18 -23.5 37.5zM319 424h320q-72 172 -156 422q-131 -328 -164 -422z" />
<glyph horiz-adv-x="1105" d="M-66 45q78 16 113 51t84 144q188 414 361 888h143q156 -453 395 -1009q6 -12 13.5 -21.5t38 -23t85.5 -29.5l-4 -33q-4 -12 -14 -12h-516q-8 0 -12 12l-7 33q150 31 150 59q0 8 -6 21l-84 209h-389q-61 -170 -62 -211q0 -27 23.5 -44.5t103.5 -33.5l-6 -33q0 -12 -10 -12 h-379q-10 0 -14 12zM285 1339v146h532v-146h-532zM319 424h320q-72 172 -156 422q-131 -328 -164 -422z" />
<glyph horiz-adv-x="1105" d="M-66 45q78 16 113 51t84 144q188 414 361 888h143q156 -453 395 -1009q6 -12 13.5 -21.5t38 -23t85.5 -29.5l-4 -33q-4 -12 -14 -12h-64q-88 -45 -135 -113.5t-47 -138.5q0 -131 144 -131q59 0 120 16l11 -47q6 -29 -13 -35q-88 -31 -198 -30q-252 0 -252 182 q0 92 66.5 170t195.5 127h-344q-8 0 -12 12l-7 33q150 31 150 59q0 8 -6 21l-84 209h-389q-61 -170 -62 -211q0 -27 23.5 -44.5t103.5 -33.5l-6 -33q0 -12 -10 -12h-379q-10 0 -14 12zM319 424h320q-72 172 -156 422q-131 -328 -164 -422z" />
<glyph horiz-adv-x="1105" d="M-66 45q78 16 113 51t84 144q188 414 361 888h143q156 -453 395 -1009q6 -12 13.5 -21.5t38 -23t85.5 -29.5l-4 -33q-4 -12 -14 -12h-516q-8 0 -12 12l-7 33q150 31 150 59q0 8 -6 21l-84 209h-389q-61 -170 -62 -211q0 -27 23.5 -44.5t103.5 -33.5l-6 -33q0 -12 -10 -12 h-379q-10 0 -14 12zM319 424h320q-72 172 -156 422q-131 -328 -164 -422zM336 1419q0 92 64.5 153.5t164.5 61.5q106 0 169 -57t63 -158q0 -94 -64.5 -153.5t-167.5 -59.5q-98 0 -163.5 58.5t-65.5 154.5zM467 1419q0 -51 31.5 -86t74.5 -35q45 0 76 35t31 86q0 55 -31 90 t-76 35q-43 0 -74.5 -36t-31.5 -89z" />
<glyph horiz-adv-x="1105" d="M-66 45q78 16 113 51t84 144q188 414 361 888h143q156 -453 395 -1009q6 -12 13.5 -21.5t38 -23t85.5 -29.5l-4 -33q-4 -12 -14 -12h-516q-8 0 -12 12l-7 33q150 31 150 59q0 8 -6 21l-84 209h-389q-61 -170 -62 -211q0 -27 23.5 -44.5t103.5 -33.5l-6 -33q0 -12 -10 -12 h-379q-10 0 -14 12zM244 1255q4 137 59 225.5t139 88.5q57 0 147.5 -62.5t129.5 -62.5q104 0 110 141l62 -8q-2 -139 -54.5 -224t-134.5 -85q-68 0 -151.5 61.5t-122.5 61.5q-115 0 -119 -152zM319 424h320q-72 172 -156 422q-131 -328 -164 -422z" />
</font>
</defs>
</svg>
